<svg xmlns="http://www.w3.org/2000/svg" xmlns:xlink="http://www.w3.org/1999/xlink" viewBox="0 0 796.82 533.86"><defs><style>.cls-1,.cls-5,.cls-87,.cls-88{stroke:#dadada;opacity:0.25;}.cls-1,.cls-101,.cls-104,.cls-106,.cls-109,.cls-5,.cls-57,.cls-75,.cls-82,.cls-87,.cls-88{stroke-miterlimit:10;}.cls-1{fill:url(#Nepojmenovaný_přechod_7);}.cls-11,.cls-118,.cls-119,.cls-12,.cls-120,.cls-13,.cls-14,.cls-15,.cls-16,.cls-17,.cls-18,.cls-19,.cls-2,.cls-20,.cls-21,.cls-22,.cls-3,.cls-4,.cls-6,.cls-7,.cls-77,.cls-78,.cls-79,.cls-84,.cls-85,.cls-86{opacity:0.5;}.cls-2{fill:url(#Nepojmenovaný_přechod_7-2);}.cls-3{fill:url(#Nepojmenovaný_přechod_7-3);}.cls-4{fill:url(#Nepojmenovaný_přechod_7-4);}.cls-5{fill:url(#Nepojmenovaný_přechod_7-5);}.cls-6{fill:url(#Nepojmenovaný_přechod_7-6);}.cls-7{fill:url(#Nepojmenovaný_přechod_7-7);}.cls-8{fill:url(#Nepojmenovaný_přechod_7-8);}.cls-9{fill:url(#Nepojmenovaný_přechod_12);}.cls-10{fill:url(#Nepojmenovaný_přechod_12-2);}.cls-11{fill:url(#Nepojmenovaný_přechod_7-9);}.cls-12{fill:url(#Nepojmenovaný_přechod_7-10);}.cls-13{fill:url(#Nepojmenovaný_přechod_7-11);}.cls-14{fill:url(#Nepojmenovaný_přechod_7-12);}.cls-15{fill:url(#Nepojmenovaný_přechod_7-13);}.cls-16{fill:url(#Nepojmenovaný_přechod_7-14);}.cls-17{fill:url(#Nepojmenovaný_přechod_7-15);}.cls-18{fill:url(#Nepojmenovaný_přechod_7-16);}.cls-19{fill:url(#Nepojmenovaný_přechod_7-17);}.cls-20{fill:url(#Nepojmenovaný_přechod_7-18);}.cls-21{fill:url(#Nepojmenovaný_přechod_7-19);}.cls-22{fill:url(#Nepojmenovaný_přechod_7-20);}.cls-23{font-size:8.57px;fill:#1d1d1b;font-family:HelveticaNeue-Medium, Helvetica Neue;font-weight:500;}.cls-24{letter-spacing:-0.02em;}.cls-25{font-size:5.71px;font-family:HelveticaNeue, Helvetica Neue;}.cls-25,.cls-74{fill:#575756;}.cls-26{letter-spacing:-0.02em;}.cls-27{letter-spacing:-0.02em;}.cls-28{letter-spacing:0em;}.cls-29{fill:url(#Nepojmenovaný_přechod_7-21);}.cls-30{fill:url(#Nepojmenovaný_přechod_7-22);}.cls-31{fill:url(#Nepojmenovaný_přechod_7-23);}.cls-32{fill:url(#Nepojmenovaný_přechod_7-24);}.cls-33{fill:url(#Nepojmenovaný_přechod_7-25);}.cls-34{font-size:11px;}.cls-34,.cls-71{fill:#9d9d9c;}.cls-34,.cls-69,.cls-70{font-family:Helvetica-Bold, Helvetica;}.cls-34,.cls-69,.cls-70,.cls-71{font-weight:700;}.cls-35{letter-spacing:0.02em;}.cls-36{letter-spacing:0em;}.cls-37{fill:url(#Nepojmenovaný_přechod_7-26);}.cls-38{fill:url(#Nepojmenovaný_přechod_7-27);}.cls-39{fill:url(#Nepojmenovaný_přechod_68);}.cls-40{fill:url(#Nepojmenovaný_přechod_90);}.cls-41{fill:url(#Nové_políčko_přechodu_2);}.cls-42{fill:url(#Nové_políčko_přechodu_1);}.cls-43{fill:url(#Nové_políčko_přechodu_1-2);}.cls-44{fill:url(#Nové_políčko_přechodu_1-3);}.cls-45{fill:url(#Nové_políčko_přechodu_1-4);}.cls-46{fill:url(#Nepojmenovaný_přechod_7-28);}.cls-47{fill:url(#Nové_políčko_přechodu_3);}.cls-48{fill:url(#Nové_políčko_přechodu_3-2);}.cls-49{fill:url(#Nové_políčko_přechodu_3-3);}.cls-50{fill:url(#Nové_políčko_přechodu_3-4);}.cls-51{fill:url(#Nepojmenovaný_přechod_68-2);}.cls-101,.cls-104,.cls-106,.cls-109,.cls-52,.cls-54,.cls-56,.cls-57,.cls-59,.cls-61,.cls-63,.cls-75,.cls-82{fill:none;}.cls-52,.cls-54,.cls-56,.cls-59,.cls-61,.cls-63{stroke-linecap:round;stroke-linejoin:round;stroke-width:2px;}.cls-52{stroke:url(#Nové_políčko_přechodu_3-5);}.cls-53{fill:url(#Nové_políčko_přechodu_3-6);}.cls-54,.cls-56{stroke:#b2b2b2;}.cls-55,.cls-69{fill:#b2b2b2;}.cls-56{stroke-dasharray:9.75 9.75;}.cls-101,.cls-104,.cls-106,.cls-109,.cls-57,.cls-75,.cls-82{stroke-width:3px;}.cls-57{stroke:url(#Nové_políčko_přechodu_2-2);}.cls-58{fill:url(#Nové_políčko_přechodu_2-3);}.cls-59{stroke:url(#Nové_políčko_přechodu_1-5);}.cls-60{fill:url(#Nové_políčko_přechodu_1-6);}.cls-61{stroke:url(#Nové_políčko_přechodu_3-7);}.cls-62{fill:url(#Nové_políčko_přechodu_3-8);}.cls-63{stroke:url(#Nové_políčko_přechodu_1-7);}.cls-64{fill:url(#Nové_políčko_přechodu_1-8);}.cls-65{fill:url(#Nepojmenovaný_přechod_7-29);}.cls-66{fill:url(#Nové_políčko_přechodu_2-4);}.cls-67{fill:#ededed;}.cls-68{fill:url(#Nové_políčko_přechodu_1-9);}.cls-69,.cls-70{font-size:10.86px;}.cls-70{fill:#fff;}.cls-71{font-size:24px;font-family:HelveticaNeue-Bold, Helvetica Neue;}.cls-72{letter-spacing:-0.02em;}.cls-73{letter-spacing:0em;}.cls-75{stroke:url(#Nové_políčko_přechodu_3-9);}.cls-76{fill:url(#Nové_políčko_přechodu_3-10);}.cls-77{fill:url(#Nepojmenovaný_přechod_7-30);}.cls-78{fill:url(#Nepojmenovaný_přechod_7-31);}.cls-79{fill:url(#Nepojmenovaný_přechod_7-32);}.cls-80{fill:url(#Nepojmenovaný_přechod_7-33);}.cls-81{fill:url(#Nové_políčko_přechodu_3-11);}.cls-82{stroke:url(#Nové_políčko_přechodu_1-10);}.cls-83{fill:url(#Nové_políčko_přechodu_1-11);}.cls-84{fill:url(#Nepojmenovaný_přechod_7-34);}.cls-85{fill:url(#Nepojmenovaný_přechod_7-35);}.cls-86{fill:url(#Nepojmenovaný_přechod_7-36);}.cls-87{fill:url(#Nepojmenovaný_přechod_7-37);}.cls-88{fill:url(#Nepojmenovaný_přechod_7-38);}.cls-89{letter-spacing:-0.06em;}.cls-90{fill:url(#Nepojmenovaný_přechod_7-39);}.cls-91{fill:url(#Nové_políčko_přechodu_1-12);}.cls-92{fill:url(#Nové_políčko_přechodu_1-13);}.cls-93{fill:url(#Nové_políčko_přechodu_1-14);}.cls-94{letter-spacing:-0.07em;}.cls-95{fill:url(#Nepojmenovaný_přechod_7-40);}.cls-96{fill:url(#Nepojmenovaný_přechod_7-41);}.cls-97{fill:url(#Nepojmenovaný_přechod_68-3);}.cls-98{fill:url(#Nepojmenovaný_přechod_7-42);}.cls-99{fill:url(#Nové_políčko_přechodu_1-15);}.cls-100{fill:url(#Nové_políčko_přechodu_1-16);}.cls-101{stroke:url(#Nové_políčko_přechodu_1-17);}.cls-102{fill:url(#Nové_políčko_přechodu_1-18);}.cls-103{fill:url(#Nové_políčko_přechodu_1-19);}.cls-104{stroke:url(#Nové_políčko_přechodu_1-20);}.cls-105{fill:url(#Nové_políčko_přechodu_1-21);}.cls-106{stroke:url(#Nepojmenovaný_přechod_68-4);}.cls-107{fill:url(#Nepojmenovaný_přechod_68-5);}.cls-108{fill:url(#Nepojmenovaný_přechod_68-6);}.cls-109{stroke:url(#Nové_políčko_přechodu_1-22);}.cls-110{fill:url(#Nové_políčko_přechodu_1-23);}.cls-111{fill:url(#Nové_políčko_přechodu_1-24);}.cls-112{fill:url(#Nové_políčko_přechodu_1-25);}.cls-113{fill:url(#Nové_políčko_přechodu_1-26);}.cls-114{fill:url(#Nepojmenovaný_přechod_7-43);}.cls-115{fill:url(#Nové_políčko_přechodu_1-27);}.cls-116{fill:url(#Nové_políčko_přechodu_1-28);}.cls-117{fill:url(#Nepojmenovaný_přechod_12-3);}.cls-118{fill:url(#Nepojmenovaný_přechod_7-44);}.cls-119{fill:url(#Nepojmenovaný_přechod_7-45);}.cls-120{fill:url(#Nepojmenovaný_přechod_7-46);}.cls-121{fill:url(#Nepojmenovaný_přechod_7-47);}.cls-122{fill:url(#Nepojmenovaný_přechod_12-4);}</style><linearGradient id="Nepojmenovaný_přechod_7" x1="126.3" y1="-46.05" x2="339.89" y2="167.54" gradientUnits="userSpaceOnUse"><stop offset="0" stop-color="#f6f6f6"/><stop offset="1" stop-color="#dadada"/></linearGradient><linearGradient id="Nepojmenovaný_přechod_7-2" x1="327.63" y1="39.66" x2="340.14" y2="52.17" xlink:href="#Nepojmenovaný_přechod_7"/><linearGradient id="Nepojmenovaný_přechod_7-3" x1="324.55" y1="27.7" x2="337.06" y2="40.21" xlink:href="#Nepojmenovaný_přechod_7"/><linearGradient id="Nepojmenovaný_přechod_7-4" x1="324.55" y1="51.62" x2="337.06" y2="64.12" xlink:href="#Nepojmenovaný_přechod_7"/><linearGradient id="Nepojmenovaný_přechod_7-5" x1="194.9" y1="28.93" x2="672.87" y2="506.9" xlink:href="#Nepojmenovaný_přechod_7"/><linearGradient id="Nepojmenovaný_přechod_7-6" x1="749.3" y1="311.74" x2="761.81" y2="324.25" xlink:href="#Nepojmenovaný_přechod_7"/><linearGradient id="Nepojmenovaný_přechod_7-7" x1="746.22" y1="299.79" x2="758.73" y2="312.29" xlink:href="#Nepojmenovaný_přechod_7"/><linearGradient id="Nepojmenovaný_přechod_7-8" x1="496.57" y1="165.63" x2="513.68" y2="182.73" xlink:href="#Nepojmenovaný_přechod_7"/><linearGradient id="Nepojmenovaný_přechod_12" x1="500.65" y1="170.69" x2="510.36" y2="170.69" gradientUnits="userSpaceOnUse"><stop offset="0" stop-color="#575756"/><stop offset="1" stop-color="#c6c6c6"/></linearGradient><linearGradient id="Nepojmenovaný_přechod_12-2" x1="501.06" y1="174.58" x2="509.96" y2="174.58" xlink:href="#Nepojmenovaný_přechod_12"/><linearGradient id="Nepojmenovaný_přechod_7-9" x1="746.22" y1="323.7" x2="758.73" y2="336.21" xlink:href="#Nepojmenovaný_přechod_7"/><linearGradient id="Nepojmenovaný_přechod_7-10" x1="140.04" y1="234.67" x2="183.47" y2="278.1" xlink:href="#Nepojmenovaný_přechod_7"/><linearGradient id="Nepojmenovaný_přechod_7-11" x1="159.84" y1="240.54" x2="191.53" y2="272.23" xlink:href="#Nepojmenovaný_přechod_7"/><linearGradient id="Nepojmenovaný_přechod_7-12" x1="476.62" y1="311.74" x2="489.12" y2="324.25" xlink:href="#Nepojmenovaný_přechod_7"/><linearGradient id="Nepojmenovaný_přechod_7-13" x1="473.54" y1="299.79" x2="486.04" y2="312.29" xlink:href="#Nepojmenovaný_přechod_7"/><linearGradient id="Nepojmenovaný_přechod_7-14" x1="473.54" y1="323.7" x2="486.04" y2="336.21" xlink:href="#Nepojmenovaný_přechod_7"/><linearGradient id="Nepojmenovaný_přechod_7-15" x1="292.23" y1="172.46" x2="335.66" y2="215.89" xlink:href="#Nepojmenovaný_přechod_7"/><linearGradient id="Nepojmenovaný_přechod_7-16" x1="312.02" y1="178.33" x2="343.71" y2="210.02" xlink:href="#Nepojmenovaný_přechod_7"/><linearGradient id="Nepojmenovaný_přechod_7-17" x1="292.23" y1="296.07" x2="335.66" y2="339.5" xlink:href="#Nepojmenovaný_přechod_7"/><linearGradient id="Nepojmenovaný_přechod_7-18" x1="312.02" y1="301.94" x2="343.71" y2="333.63" xlink:href="#Nepojmenovaný_přechod_7"/><linearGradient id="Nepojmenovaný_přechod_7-19" x1="586.68" y1="171.45" x2="630.11" y2="214.88" xlink:href="#Nepojmenovaný_přechod_7"/><linearGradient id="Nepojmenovaný_přechod_7-20" x1="606.47" y1="177.32" x2="638.16" y2="209.01" xlink:href="#Nepojmenovaný_přechod_7"/><linearGradient id="Nepojmenovaný_přechod_7-21" x1="123.62" y1="231.96" x2="172.45" y2="280.8" xlink:href="#Nepojmenovaný_přechod_7"/><linearGradient id="Nepojmenovaný_přechod_7-22" x1="428.15" y1="168.74" x2="476.98" y2="217.58" xlink:href="#Nepojmenovaný_přechod_7"/><linearGradient id="Nepojmenovaný_přechod_7-23" x1="571.83" y1="168.74" x2="620.67" y2="217.58" xlink:href="#Nepojmenovaný_přechod_7"/><linearGradient id="Nepojmenovaný_přechod_7-24" x1="276.35" y1="294.46" x2="325.18" y2="343.29" xlink:href="#Nepojmenovaný_přechod_7"/><linearGradient id="Nepojmenovaný_přechod_7-25" x1="698.96" y1="293.24" x2="747.8" y2="342.07" xlink:href="#Nepojmenovaný_přechod_7"/><linearGradient id="Nepojmenovaný_přechod_7-26" x1="275.35" y1="21.49" x2="324.19" y2="70.33" xlink:href="#Nepojmenovaný_přechod_7"/><linearGradient id="Nepojmenovaný_přechod_7-27" x1="425.77" y1="293.58" x2="474.6" y2="342.41" xlink:href="#Nepojmenovaný_přechod_7"/><linearGradient id="Nepojmenovaný_přechod_68" x1="438.93" y1="310.39" x2="461.44" y2="332.89" gradientUnits="userSpaceOnUse"><stop offset="0" stop-color="#a3151b"/><stop offset="1" stop-color="#e94e1b"/></linearGradient><linearGradient id="Nepojmenovaný_přechod_90" x1="442.62" y1="185.3" x2="462.5" y2="205.18" gradientUnits="userSpaceOnUse"><stop offset="0" stop-color="#c9922a"/><stop offset="1" stop-color="#fcc50f"/></linearGradient><linearGradient id="Nové_políčko_přechodu_2" x1="585.22" y1="184.2" x2="607.28" y2="206.26" gradientUnits="userSpaceOnUse"><stop offset="0" stop-color="#662483"/><stop offset="1" stop-color="#ce357d"/></linearGradient><linearGradient id="Nové_políčko_přechodu_1" x1="294.62" y1="314.12" x2="306.92" y2="326.41" gradientUnits="userSpaceOnUse"><stop offset="0" stop-color="#1d71b8"/><stop offset="1" stop-color="#009fe3"/></linearGradient><linearGradient id="Nové_políčko_přechodu_1-2" x1="299.78" y1="319.28" x2="301.75" y2="321.25" xlink:href="#Nové_políčko_přechodu_1"/><linearGradient id="Nové_políčko_přechodu_1-3" x1="295.73" y1="319.28" x2="297.7" y2="321.25" xlink:href="#Nové_políčko_přechodu_1"/><linearGradient id="Nové_políčko_přechodu_1-4" x1="303.83" y1="319.28" x2="305.79" y2="321.25" xlink:href="#Nové_políčko_přechodu_1"/><linearGradient id="Nepojmenovaný_přechod_7-28" x1="276.35" y1="168.74" x2="325.18" y2="217.58" xlink:href="#Nepojmenovaný_přechod_7"/><linearGradient id="Nové_políčko_přechodu_3" x1="294.62" y1="188.41" x2="306.92" y2="200.7" gradientUnits="userSpaceOnUse"><stop offset="0" stop-color="#008d36"/><stop offset="1" stop-color="#95c11f"/></linearGradient><linearGradient id="Nové_políčko_přechodu_3-2" x1="299.78" y1="193.57" x2="301.75" y2="195.54" xlink:href="#Nové_políčko_přechodu_3"/><linearGradient id="Nové_políčko_přechodu_3-3" x1="295.73" y1="193.57" x2="297.7" y2="195.54" xlink:href="#Nové_políčko_přechodu_3"/><linearGradient id="Nové_políčko_přechodu_3-4" x1="303.83" y1="193.57" x2="305.79" y2="195.54" xlink:href="#Nové_políčko_přechodu_3"/><linearGradient id="Nepojmenovaný_přechod_68-2" x1="139.4" y1="249.97" x2="156.67" y2="267.24" xlink:href="#Nepojmenovaný_přechod_68"/><linearGradient id="Nové_políčko_přechodu_3-5" x1="358.32" y1="193.08" x2="413.54" y2="193.08" xlink:href="#Nové_políčko_přechodu_3"/><linearGradient id="Nové_políčko_přechodu_3-6" x1="358.32" y1="193.03" x2="413.54" y2="193.03" xlink:href="#Nové_políčko_přechodu_3"/><linearGradient id="Nové_políčko_přechodu_2-2" x1="431.99" y1="160.87" x2="431.99" y2="108.67" xlink:href="#Nové_políčko_přechodu_2"/><linearGradient id="Nové_políčko_přechodu_2-3" x1="564.27" y1="160.87" x2="564.27" y2="108.67" xlink:href="#Nové_políčko_přechodu_2"/><linearGradient id="Nové_políčko_přechodu_1-5" x1="358.32" y1="320.26" x2="413.54" y2="320.26" xlink:href="#Nové_políčko_přechodu_1"/><linearGradient id="Nové_políčko_přechodu_1-6" x1="358.32" y1="320.24" x2="413.54" y2="320.24" xlink:href="#Nové_políčko_přechodu_1"/><linearGradient id="Nové_políčko_přechodu_3-7" x1="190.33" y1="212.54" x2="262.15" y2="212.54" xlink:href="#Nové_políčko_přechodu_3"/><linearGradient id="Nové_políčko_přechodu_3-8" x1="190.33" y1="194.55" x2="262.15" y2="194.55" xlink:href="#Nové_políčko_přechodu_3"/><linearGradient id="Nové_políčko_přechodu_1-7" x1="190.33" y1="303.07" x2="262.15" y2="303.07" xlink:href="#Nové_políčko_přechodu_1"/><linearGradient id="Nové_políčko_přechodu_1-8" x1="190.33" y1="284.7" x2="262.15" y2="284.7" xlink:href="#Nové_políčko_přechodu_1"/><linearGradient id="Nepojmenovaný_přechod_7-29" x1="570.3" y1="293.68" x2="619.14" y2="342.52" xlink:href="#Nepojmenovaný_přechod_7"/><linearGradient id="Nové_políčko_přechodu_2-4" x1="291.95" y1="37.26" x2="309.26" y2="54.56" xlink:href="#Nové_políčko_přechodu_2"/><linearGradient id="Nové_políčko_přechodu_1-9" x1="646.89" y1="87.11" x2="706.97" y2="87.11" xlink:href="#Nové_políčko_přechodu_1"/><linearGradient id="Nové_políčko_přechodu_3-9" x1="152.04" y1="211.92" x2="152.04" y2="108.33" xlink:href="#Nové_políčko_přechodu_3"/><linearGradient id="Nové_políčko_přechodu_3-10" x1="149.06" y1="211.92" x2="149.06" y2="108.33" xlink:href="#Nové_políčko_přechodu_3"/><linearGradient id="Nepojmenovaný_přechod_7-30" x1="182.61" y1="40.42" x2="195.12" y2="52.92" xlink:href="#Nepojmenovaný_přechod_7"/><linearGradient id="Nepojmenovaný_přechod_7-31" x1="179.53" y1="28.46" x2="192.03" y2="40.97" xlink:href="#Nepojmenovaný_přechod_7"/><linearGradient id="Nepojmenovaný_přechod_7-32" x1="179.53" y1="52.38" x2="192.03" y2="64.88" xlink:href="#Nepojmenovaný_přechod_7"/><linearGradient id="Nepojmenovaný_přechod_7-33" x1="130.64" y1="21.49" x2="179.47" y2="70.33" xlink:href="#Nepojmenovaný_přechod_7"/><linearGradient id="Nové_políčko_přechodu_3-11" x1="146.78" y1="37.26" x2="164.09" y2="54.56" xlink:href="#Nové_políčko_přechodu_3"/><linearGradient id="Nové_políčko_přechodu_1-10" x1="645.98" y1="313.01" x2="687.55" y2="313.01" xlink:href="#Nové_políčko_přechodu_1"/><linearGradient id="Nové_políčko_přechodu_1-11" x1="645.98" y1="418.07" x2="687.55" y2="418.07" xlink:href="#Nové_políčko_přechodu_1"/><linearGradient id="Nepojmenovaný_přechod_7-34" x1="150.03" y1="452.61" x2="162.53" y2="465.11" xlink:href="#Nepojmenovaný_přechod_7"/><linearGradient id="Nepojmenovaný_přechod_7-35" x1="146.95" y1="440.65" x2="159.45" y2="453.15" xlink:href="#Nepojmenovaný_přechod_7"/><linearGradient id="Nepojmenovaný_přechod_7-36" x1="146.95" y1="464.57" x2="159.45" y2="477.07" xlink:href="#Nepojmenovaný_přechod_7"/><linearGradient id="Nepojmenovaný_přechod_7-37" x1="380.53" y1="317.21" x2="692.35" y2="629.03" xlink:href="#Nepojmenovaný_přechod_7"/><linearGradient id="Nepojmenovaný_přechod_7-38" x1="70.11" y1="420.5" x2="175.35" y2="525.74" xlink:href="#Nepojmenovaný_přechod_7"/><linearGradient id="Nepojmenovaný_přechod_7-39" x1="451.46" y1="433.3" x2="500.3" y2="482.13" xlink:href="#Nepojmenovaný_přechod_7"/><linearGradient id="Nové_políčko_přechodu_1-12" x1="467.03" y1="448.65" x2="485.53" y2="467.16" xlink:href="#Nové_políčko_přechodu_1"/><linearGradient id="Nové_políčko_přechodu_1-13" x1="472.92" y1="463.98" x2="479.63" y2="470.69" xlink:href="#Nové_políčko_přechodu_1"/><linearGradient id="Nové_políčko_přechodu_1-14" x1="469.03" y1="450.65" x2="483.53" y2="465.15" xlink:href="#Nové_políčko_přechodu_1"/><linearGradient id="Nepojmenovaný_přechod_7-40" x1="570.3" y1="433.3" x2="619.14" y2="482.13" xlink:href="#Nepojmenovaný_přechod_7"/><linearGradient id="Nepojmenovaný_přechod_7-41" x1="328.73" y1="433.3" x2="377.57" y2="482.13" xlink:href="#Nepojmenovaný_přechod_7"/><linearGradient id="Nepojmenovaný_přechod_68-3" x1="342.25" y1="447.78" x2="363.34" y2="468.88" xlink:href="#Nepojmenovaný_přechod_68"/><linearGradient id="Nepojmenovaný_přechod_7-42" x1="98.74" y1="433.68" x2="147.57" y2="482.51" xlink:href="#Nepojmenovaný_přechod_7"/><linearGradient id="Nové_políčko_přechodu_1-15" x1="113.66" y1="449.39" x2="132.66" y2="468.39" xlink:href="#Nové_políčko_přechodu_1"/><linearGradient id="Nové_políčko_přechodu_1-16" x1="116.94" y1="452.68" x2="129.37" y2="465.1" xlink:href="#Nové_políčko_přechodu_1"/><linearGradient id="Nové_políčko_přechodu_1-17" x1="121.08" y1="373.81" x2="135.3" y2="373.81" xlink:href="#Nové_políčko_přechodu_1"/><linearGradient id="Nové_políčko_přechodu_1-18" x1="121.08" y1="330.85" x2="135.3" y2="330.85" xlink:href="#Nové_políčko_přechodu_1"/><linearGradient id="Nové_políčko_přechodu_1-19" x1="121.08" y1="416.77" x2="135.3" y2="416.77" xlink:href="#Nové_políčko_přechodu_1"/><linearGradient id="Nové_políčko_přechodu_1-20" x1="419.02" y1="407.72" x2="554.6" y2="407.72" xlink:href="#Nové_políčko_přechodu_1"/><linearGradient id="Nové_políčko_přechodu_1-21" x1="419.02" y1="418.19" x2="554.6" y2="418.19" xlink:href="#Nové_políčko_přechodu_1"/><linearGradient id="Nepojmenovaný_přechod_68-4" x1="148.27" y1="377.82" x2="321.63" y2="377.82" xlink:href="#Nepojmenovaný_přechod_68"/><linearGradient id="Nepojmenovaný_přechod_68-5" x1="148.27" y1="330.88" x2="321.63" y2="330.88" xlink:href="#Nepojmenovaný_přechod_68"/><linearGradient id="Nepojmenovaný_přechod_68-6" x1="148.27" y1="421.95" x2="321.63" y2="421.95" xlink:href="#Nepojmenovaný_přechod_68"/><linearGradient id="Nové_políčko_přechodu_1-22" x1="164.51" y1="373.96" x2="477.42" y2="373.96" xlink:href="#Nové_políčko_přechodu_1"/><linearGradient id="Nové_políčko_přechodu_1-23" x1="164.51" y1="331.05" x2="477.42" y2="331.05" xlink:href="#Nové_políčko_přechodu_1"/><linearGradient id="Nové_políčko_přechodu_1-24" x1="164.51" y1="416.56" x2="477.42" y2="416.56" xlink:href="#Nové_políčko_přechodu_1"/><linearGradient id="Nové_políčko_přechodu_1-25" x1="585.15" y1="451.03" x2="604.08" y2="469.96" xlink:href="#Nové_políčko_přechodu_1"/><linearGradient id="Nové_políčko_přechodu_1-26" x1="713.75" y1="312.9" x2="732.68" y2="331.83" xlink:href="#Nové_políčko_přechodu_1"/><linearGradient id="Nepojmenovaný_přechod_7-43" x1="691.45" y1="433.3" x2="740.29" y2="482.13" xlink:href="#Nepojmenovaný_přechod_7"/><linearGradient id="Nové_políčko_přechodu_1-27" x1="704.53" y1="457.72" x2="727.21" y2="457.72" xlink:href="#Nové_políčko_přechodu_1"/><linearGradient id="Nové_políčko_přechodu_1-28" x1="708.02" y1="453.25" x2="723.72" y2="453.25" xlink:href="#Nové_políčko_přechodu_1"/><linearGradient id="Nepojmenovaný_přechod_12-3" x1="585" y1="310.39" x2="607.5" y2="332.89" xlink:href="#Nepojmenovaný_přechod_12"/><linearGradient id="Nepojmenovaný_přechod_7-44" x1="749.98" y1="186.96" x2="762.48" y2="199.46" xlink:href="#Nepojmenovaný_přechod_7"/><linearGradient id="Nepojmenovaný_přechod_7-45" x1="746.89" y1="175" x2="759.4" y2="187.5" xlink:href="#Nepojmenovaný_přechod_7"/><linearGradient id="Nepojmenovaný_přechod_7-46" x1="746.89" y1="198.92" x2="759.4" y2="211.42" xlink:href="#Nepojmenovaný_přechod_7"/><linearGradient id="Nepojmenovaný_přechod_7-47" x1="699.64" y1="168.45" x2="748.47" y2="217.29" xlink:href="#Nepojmenovaný_přechod_7"/><linearGradient id="Nepojmenovaný_přechod_12-4" x1="715.47" y1="187.85" x2="732.63" y2="205.01" xlink:href="#Nepojmenovaný_přechod_12"/></defs><title>DP_icon_Datový zdroj 6</title><g id="Vrstva_2" data-name="Vrstva 2"><g id="Vrstva_1-2" data-name="Vrstva 1"><rect class="cls-1" x="71.45" y="0.5" width="323.3" height="120.48" rx="14.17"/><rect class="cls-2" x="326.57" y="38.6" width="14.63" height="14.63" rx="3.64"/><rect class="cls-3" x="323.49" y="26.64" width="14.63" height="14.63" rx="3.64"/><rect class="cls-4" x="323.49" y="50.56" width="14.63" height="14.63" rx="3.64"/><rect class="cls-5" x="71.45" y="144.08" width="724.88" height="247.66" rx="14.17"/><rect class="cls-6" x="748.24" y="310.68" width="14.63" height="14.63" rx="3.64"/><rect class="cls-7" x="745.16" y="298.72" width="14.63" height="14.63" rx="3.64"/><rect class="cls-8" x="495.13" y="164.18" width="20" height="20" rx="4.94"/><path class="cls-9" d="M508.67,169.33h-.1a1.83,1.83,0,0,0-1.13.38.17.17,0,0,0-.07.13.2.2,0,0,0,.06.14l2.27,2a.17.17,0,0,0,.12.05h0A.27.27,0,0,0,510,172a1.27,1.27,0,0,0,.41-.93A1.76,1.76,0,0,0,508.67,169.33Zm-8,1.74a1.24,1.24,0,0,0,.42.93.23.23,0,0,0,.12.06h0a.16.16,0,0,0,.11-.05l2.28-2a.19.19,0,0,0,.05-.14.16.16,0,0,0-.06-.13,1.83,1.83,0,0,0-1.13-.38h-.11A1.76,1.76,0,0,0,500.65,171.07Z"/><path class="cls-10" d="M508.89,177.47a4.45,4.45,0,1,0-7.83-2.89,4.46,4.46,0,0,0,1.06,2.89l-.88.89a.38.38,0,0,0,0,.55.42.42,0,0,0,.29.12.41.41,0,0,0,.28-.13l.88-.87a4.45,4.45,0,0,0,5.62,0l.85.87a.39.39,0,0,0,.57,0,.38.38,0,0,0,0-.55Zm-3-2.83a.35.35,0,0,1-.35.35h-2.08a.36.36,0,0,1,0-.71h1.72V171.7a.36.36,0,0,1,.71,0Z"/><rect class="cls-11" x="745.16" y="322.64" width="14.63" height="14.63" rx="3.64"/><rect class="cls-12" x="135.89" y="230.51" width="51.73" height="51.73" rx="14.17"/><rect class="cls-13" x="155.69" y="236.39" width="39.99" height="39.99" rx="14.17"/><rect class="cls-14" x="475.55" y="310.68" width="14.63" height="14.63" rx="3.64"/><rect class="cls-15" x="472.47" y="298.72" width="14.63" height="14.63" rx="3.64"/><rect class="cls-16" x="472.47" y="322.64" width="14.63" height="14.63" rx="3.64"/><rect class="cls-17" x="288.08" y="168.31" width="51.73" height="51.73" rx="14.17"/><rect class="cls-18" x="307.87" y="174.18" width="39.99" height="39.99" rx="14.17"/><rect class="cls-19" x="288.08" y="291.92" width="51.73" height="51.73" rx="14.17"/><rect class="cls-20" x="307.87" y="297.79" width="39.99" height="39.99" rx="14.17"/><rect class="cls-21" x="582.53" y="167.29" width="51.73" height="51.73" rx="14.17"/><rect class="cls-22" x="602.32" y="173.17" width="39.99" height="39.99" rx="14.17"/><text class="cls-23" transform="translate(127.08 301.5)">ACL P<tspan class="cls-24" x="24.91" y="0">r</tspan><tspan x="27.77" y="0">oxy</tspan></text><text class="cls-23" transform="translate(420.26 238.28)">Message B<tspan class="cls-24" x="44.29" y="0">r</tspan><tspan x="47.15" y="0">oker</tspan></text><text class="cls-25" transform="translate(100.7 310.92)">Řízení přístupu (<tspan class="cls-26" x="41.04" y="0">r</tspan><tspan x="42.83" y="0">outes, datové entity)</tspan></text><text class="cls-25" transform="translate(409.84 247.7)">Předávání dat, řízení úloh (CRON)</text><text class="cls-23" transform="translate(685.84 362.78)">Analytické nást<tspan class="cls-24" x="60.31" y="0">r</tspan><tspan x="63.17" y="0">oje</tspan></text><text class="cls-25" transform="translate(701.96 372.19)">RStudio, Jupyter</text><text class="cls-23" transform="translate(560.15 238.62)">Integration Engine</text><text class="cls-23" transform="translate(260.46 364.33)">Output API Gateway</text><text class="cls-25" transform="translate(545.16 248.04)">ETL workers, <tspan class="cls-27" x="35" y="0">r</tspan><tspan class="cls-28" x="36.8" y="0">eporting, alerting, </tspan><tspan class="cls-26" x="83.13" y="0">r</tspan><tspan x="84.93" y="0">etence</tspan></text><text class="cls-25" transform="translate(262.21 373.75)">REST API p<tspan class="cls-26" x="29.83" y="0">r</tspan><tspan x="31.62" y="0">o poskytování dat</tspan></text><rect class="cls-29" x="119.46" y="227.81" width="57.14" height="57.14" rx="14.17"/><rect class="cls-30" x="424" y="164.59" width="57.14" height="57.14" rx="14.17"/><rect class="cls-31" x="567.68" y="164.59" width="57.14" height="57.14" rx="14.17"/><rect class="cls-32" x="272.2" y="290.3" width="57.14" height="57.14" rx="14.17"/><rect class="cls-33" x="694.81" y="289.08" width="57.14" height="57.14" rx="14.17"/><text class="cls-34" transform="translate(19.75 24.4)">Externí<tspan x="-6.74" y="13.2">systémy</tspan><tspan x="4.3" y="26.4">zdrojů</tspan><tspan x="20.79" y="39.6">dat</tspan></text><text class="cls-34" transform="translate(31.98 169.18)">Core<tspan x="-14.05" y="13.2">moduly</tspan><tspan x="-10.39" y="26.4">datové</tspan><tspan x="-25.06" y="39.6">platformy</tspan></text><text class="cls-23" transform="translate(268.27 91.03)">Exte<tspan class="cls-35" x="17.61" y="0">r</tspan><tspan class="cls-36" x="20.78" y="0">ní systémy</tspan></text><text class="cls-25" transform="translate(269.57 100.44)">Pasivní poskytování dat</text><rect class="cls-37" x="271.2" y="17.34" width="57.14" height="57.14" rx="14.17"/><text class="cls-23" transform="translate(431.38 363.12)">Databáze</text><text class="cls-25" transform="translate(420.14 372.53)">MongoDB, Postg<tspan class="cls-27" x="44.01" y="0">r</tspan><tspan class="cls-28" x="45.81" y="0">eSQL</tspan></text><rect class="cls-38" x="421.62" y="289.43" width="57.14" height="57.14" rx="14.17"/><path class="cls-39" d="M459.29,309.5h-8.12v13.65l3.64-3.58a1,1,0,0,1,1.39,0,1,1,0,0,1,0,1.4l-5.32,5.24a1,1,0,0,1-.69.28,1,1,0,0,1-.38-.08,1,1,0,0,1-.31-.2L444.19,321a1,1,0,1,1,1.39-1.4l3.63,3.58V309.5h-8.13a3,3,0,0,0-3,3v18.22a3,3,0,0,0,3,3h18.21a3,3,0,0,0,3-3V312.53A3,3,0,0,0,459.29,309.5Zm-8.12-6.3a1,1,0,1,0-2,0v6.3h2Z"/><path class="cls-40" d="M462.93,188.74H442.2a1.78,1.78,0,0,0-1.78,1.77v11.73A1.78,1.78,0,0,0,442.2,204h20.73a1.78,1.78,0,0,0,1.78-1.78V190.51A1.79,1.79,0,0,0,462.93,188.74Zm-1.36-1.42h-18a.71.71,0,0,1-.71-.71.7.7,0,0,1,.71-.7h18a.7.7,0,0,1,.7.7A.7.7,0,0,1,461.57,187.32ZM460,184.49H445.12a.65.65,0,0,1-.65-.65v-.12a.66.66,0,0,1,.65-.65H460a.66.66,0,0,1,.65.65v.12A.66.66,0,0,1,460,184.49Z"/><path class="cls-41" d="M595.05,199.14a.72.72,0,0,0-.53-.23.74.74,0,0,0-.54.23.75.75,0,0,0-.22.53.73.73,0,0,0,.22.54h0l2.22,2.18h-4.84a2.25,2.25,0,0,1-2.25-1.28,7.65,7.65,0,0,1-.51-3.17v-7.33a3.8,3.8,0,1,0-4.5-3.73,3.8,3.8,0,0,0,3,3.71v7.35a9.7,9.7,0,0,0,.51,3.54,3.76,3.76,0,0,0,3.77,2.42h4.87l-2.16,2.18a.77.77,0,0,0,0,1.07h0a.78.78,0,0,0,.53.21.76.76,0,0,0,.54-.22l3.12-3.11a1.21,1.21,0,0,0,.35-.86,1.16,1.16,0,0,0-.35-.84l-3.23-3.2Zm-7.15-10a2.28,2.28,0,1,1,2.28-2.28A2.28,2.28,0,0,1,587.9,189.16Zm17.51,10.71v-7.35a9.65,9.65,0,0,0-.51-3.54,3.76,3.76,0,0,0-3.77-2.43h-4.86l2.15-2.18a.77.77,0,0,0,0-1.07h0a.75.75,0,0,0-.53-.22.72.72,0,0,0-.53.23l-3.13,3.11a1.23,1.23,0,0,0-.35.85,1.21,1.21,0,0,0,.35.84l3.23,3.22a.79.79,0,0,0,.54.22.73.73,0,0,0,.54-.22.76.76,0,0,0,0-1.07h0l-2.23-2.18h4.84a2.27,2.27,0,0,1,2.26,1.28,7.78,7.78,0,0,1,.5,3.17v7.33a3.79,3.79,0,0,0-3.09,3.72,3.8,3.8,0,1,0,4.61-3.7Zm-.81,6a2.28,2.28,0,1,1,2.28-2.28A2.28,2.28,0,0,1,604.6,205.85Z"/><path class="cls-42" d="M312.78,320l-7.21-6.89a.4.4,0,0,0-.26-.11.38.38,0,0,0-.26.11l-.87.83a.38.38,0,0,0-.12.28.36.36,0,0,0,.12.27l6.06,5.78-6.06,5.79a.36.36,0,0,0,0,.54l.87.84a.39.39,0,0,0,.26.1.35.35,0,0,0,.26-.1l7.22-6.89a.36.36,0,0,0,.12-.28.41.41,0,0,0-.13-.27Zm-21.48.27,6.06-5.78a.4.4,0,0,0,.12-.27.42.42,0,0,0-.12-.28l-.88-.83a.38.38,0,0,0-.25-.11.38.38,0,0,0-.26.11L288.75,320a.36.36,0,0,0-.12.27.36.36,0,0,0,.12.28l7.22,6.89a.37.37,0,0,0,.26.1.33.33,0,0,0,.25-.1l.88-.84a.36.36,0,0,0,0-.54Z"/><circle class="cls-43" cx="300.76" cy="320.26" r="1.39"/><circle class="cls-44" cx="296.72" cy="320.26" r="1.39"/><circle class="cls-45" cx="304.81" cy="320.26" r="1.39"/><text class="cls-23" transform="translate(263.95 238.62)">Input API Gateway</text><text class="cls-25" transform="translate(255.76 248.04)">REST API p<tspan class="cls-26" x="29.83" y="0">r</tspan><tspan x="31.62" y="0">o příjem příchozích dat</tspan></text><rect class="cls-46" x="272.2" y="164.59" width="57.14" height="57.14" rx="14.17"/><path class="cls-47" d="M312.78,194.27l-7.21-6.88a.4.4,0,0,0-.26-.11.38.38,0,0,0-.26.11l-.87.83a.36.36,0,0,0-.12.28.36.36,0,0,0,.12.27l6.06,5.78-6.06,5.79a.36.36,0,0,0,0,.54l.87.84a.39.39,0,0,0,.26.1.35.35,0,0,0,.26-.1l7.22-6.9a.36.36,0,0,0,.12-.27.45.45,0,0,0-.13-.28Zm-21.48.28,6.06-5.78a.4.4,0,0,0,.12-.27.4.4,0,0,0-.12-.28l-.88-.83a.38.38,0,0,0-.25-.11.38.38,0,0,0-.26.11l-7.22,6.89a.36.36,0,0,0,0,.54l7.22,6.9a.37.37,0,0,0,.26.1.33.33,0,0,0,.25-.1l.88-.84a.36.36,0,0,0,0-.54Z"/><circle class="cls-48" cx="300.76" cy="194.55" r="1.39"/><circle class="cls-49" cx="296.72" cy="194.55" r="1.39"/><circle class="cls-50" cx="304.81" cy="194.55" r="1.39"/><path class="cls-51" d="M155,252h-11v-2.81a4,4,0,0,1,7.94,0,.82.82,0,1,0,1.64,0,5.61,5.61,0,1,0-11.21.08V252H141a2.34,2.34,0,0,0-2.34,2.33v11.21a2.34,2.34,0,0,0,2.34,2.33h14a2.34,2.34,0,0,0,2.33-2.33V254.37A2.34,2.34,0,0,0,155,252Zm-6.19,7.28v4a.85.85,0,0,1-.78.84.82.82,0,0,1-.85-.82v-4a1.87,1.87,0,1,1,1.63,0Z"/><path class="cls-52" d="M359.32,193.58c32.58-4.93,20.43,3.53,49.67-.57"/><polygon class="cls-53" points="408.57 195.51 412.54 192.49 407.94 190.56 408.57 195.51"/><path class="cls-54" d="M505,186.88a9.31,9.31,0,0,1-2.25,5.46"/><path class="cls-54" d="M500.21,194.27a13.21,13.21,0,0,1-5.82,1.24"/><polygon class="cls-55" points="495.26 192.98 490.81 195.23 494.98 197.96 495.26 192.98"/><path class="cls-54" d="M495.13,318q3.15.6,5.92,1"/><path class="cls-56" d="M510.77,319.69c11.12.15,19-2.16,34.05-1.68"/><path class="cls-54" d="M549.7,318.25c1.88.13,3.86.3,6,.52"/><polygon class="cls-55" points="554.72 321.26 559.24 319.17 555.16 316.3 554.72 321.26"/><path class="cls-54" d="M627,318c2.11.4,4.07.72,5.93,1"/><path class="cls-56" d="M642.63,319.69c11.12.15,19-2.16,34.06-1.68"/><path class="cls-54" d="M681.56,318.25q2.82.19,6,.52"/><polygon class="cls-55" points="686.58 321.26 691.11 319.17 687.03 316.3 686.58 321.26"/><path class="cls-57" d="M299.77,108.67c0,37.07,235.37,22.32,265,47.41"/><polygon class="cls-58" points="560.86 157.52 567.68 160.59 566.93 153.15 560.86 157.52"/><path class="cls-59" d="M362.88,320.25c29.27-3.94,17.12,4.52,49.66-.58"/><polygon class="cls-60" points="363.91 322.71 359.32 320.76 363.31 317.76 363.91 322.71"/><path class="cls-61" d="M191.33,230.57c29.83-6,33-35.34,66.23-36"/><polygon class="cls-62" points="256.83 197.04 261.15 194.55 256.83 192.06 256.83 197.04"/><path class="cls-54" d="M553.2,193.3c-33.1,1.74-40.75,14.12-58.87,11.41"/><polygon class="cls-55" points="552.34 190.89 556.78 193.16 552.6 195.87 552.34 190.89"/><polygon class="cls-55" points="495.51 202.36 490.81 204.02 494.6 207.26 495.51 202.36"/><path class="cls-54" d="M553.45,209.81c-26.73,12.67-41.82,72.39-60.79,77.47"/><polygon class="cls-55" points="551.84 207.86 556.78 208.5 553.75 212.46 551.84 207.86"/><polygon class="cls-55" points="493.1 284.62 489.08 287.57 493.65 289.57 493.1 284.62"/><path class="cls-63" d="M194.82,284.48c28.59,8.16,37.49,37.17,66.33,37.17"/><polygon class="cls-64" points="194.89 287.11 191.33 283.62 196.14 282.29 194.89 287.11"/><text class="cls-23" transform="translate(544.4 363.22)">A<tspan class="cls-24" x="5.71" y="0">r</tspan><tspan x="8.58" y="0">chivační, analytická DB</tspan></text><text class="cls-25" transform="translate(579.22 372.64)">Postg<tspan class="cls-27" x="14.91" y="0">r</tspan><tspan class="cls-28" x="16.71" y="0">eSQL</tspan></text><rect class="cls-65" x="566.15" y="289.53" width="57.14" height="57.14" rx="14.17"/><path class="cls-66" d="M291.26,38.91v6.25h10.51L299,42.36a.76.76,0,0,1,0-1.07.75.75,0,0,1,1.07,0l4,4.09a.77.77,0,0,1,.22.53.72.72,0,0,1-.06.29,1,1,0,0,1-.16.24l-4,4.09a.76.76,0,0,1-1.07,0,.75.75,0,0,1,0-1.07l2.76-2.8H291.26v6.25a2.35,2.35,0,0,0,2.34,2.33h14A2.35,2.35,0,0,0,310,52.91v-14a2.35,2.35,0,0,0-2.34-2.34h-14A2.35,2.35,0,0,0,291.26,38.91Zm-4.84,6.25a.75.75,0,0,0-.76.75.76.76,0,0,0,.76.76h4.84V45.16Z"/><rect class="cls-67" x="584.07" y="76.24" width="125.71" height="21.73" rx="10.86"/><rect class="cls-68" x="646.89" y="78.05" width="60.08" height="18.11" rx="9.05"/><text class="cls-69" transform="translate(597.31 90.81)">Funkce</text><text class="cls-70" transform="translate(659.76 90.81)">Moduly</text><text class="cls-71" transform="translate(584.07 41.92)">A<tspan class="cls-72" x="16.44" y="0">r</tspan><tspan class="cls-73" x="25.34" y="0">chitektura</tspan><tspan class="cls-74"><tspan x="0" y="24">Datové platformy</tspan></tspan></text><g id="Vrstva_1-2-2" data-name="Vrstva 1-2"><path class="cls-67" d="M470.44,67.17h3.1v1.41a10.93,10.93,0,0,1-2.41.33,2.67,2.67,0,0,1-2.79-2.86,2.78,2.78,0,0,1,3.07-2.8,18.4,18.4,0,0,1,3,.35l.42-2.15a15,15,0,0,0-3.65-.46c-3.24,0-5.4,2-5.4,5.07a5,5,0,0,0,5.32,5.12,12.76,12.76,0,0,0,4.5-1.05V65.19h-5.16Z"/><path class="cls-67" d="M486,61a5.1,5.1,0,1,0,5.24,5.09A4.91,4.91,0,0,0,486,61Zm0,8a2.87,2.87,0,1,1,2.74-2.87A2.68,2.68,0,0,1,486,69Z"/><polygon class="cls-67" points="498.9 61.2 496.49 61.2 496.49 70.96 503.69 70.96 503.69 68.82 498.9 68.82 498.9 61.2"/><polygon class="cls-67" points="508.76 70.96 516.14 70.96 516.14 68.85 511.17 68.85 511.17 67.11 515.49 67.11 515.49 65.05 511.17 65.05 511.17 63.31 516.14 63.31 516.14 61.2 508.76 61.2 508.76 70.96"/><polygon class="cls-67" points="530.44 61.2 527.24 67.8 524.02 61.2 521.85 61.2 521.35 70.96 523.71 70.96 524.01 66.25 526.35 70.96 528.11 70.96 530.45 66.25 530.76 70.96 533.11 70.96 532.59 61.2 530.44 61.2"/><rect class="cls-67" x="538.59" y="61.2" width="2.43" height="9.76"/><path class="cls-67" d="M551.47,61a5.1,5.1,0,1,0,5.24,5.09A4.91,4.91,0,0,0,551.47,61Zm0,8a2.87,2.87,0,1,1,2.74-2.87A2.68,2.68,0,0,1,551.47,69Z"/><path class="cls-67" d="M470.08,46a11.07,11.07,0,1,0-18.6-10.4,18,18,0,0,0-24.76,5l5.65,2.31c.23-.27.47-.54.73-.8a12.06,12.06,0,0,1,17,0h0l7-4.62a5.17,5.17,0,1,1,4.42,5.82,5.11,5.11,0,0,1-1.93-.67L453.1,46.9a12.06,12.06,0,0,1-7.82,15.16c-.28.09-.56.16-.84.23v7.37a7.27,7.27,0,1,1-5.67,0V62.29a12.06,12.06,0,0,1-9.19-11.72,11.46,11.46,0,0,1,.27-2.61l-5.52-2.26A18,18,0,0,0,433,66.36a9.33,9.33,0,0,0-.73.68,13.17,13.17,0,1,0,18.63,0c-.24-.24-.49-.47-.74-.68a18,18,0,0,0,9.38-15.79c0-.57,0-1.14-.08-1.71a11.17,11.17,0,0,0,2.76.35A11,11,0,0,0,470.08,46Z"/></g><path class="cls-75" d="M155.06,108.67c-8.53,37.75-1.74,57.27-6,97.71"/><polygon class="cls-76" points="145.34 204.92 148.44 211.73 152.78 205.65 145.34 204.92"/><rect class="cls-77" x="181.55" y="39.36" width="14.63" height="14.63" rx="3.64"/><rect class="cls-78" x="178.47" y="27.4" width="14.63" height="14.63" rx="3.64"/><rect class="cls-79" x="178.47" y="51.31" width="14.63" height="14.63" rx="3.64"/><text class="cls-23" transform="translate(124.03 91.03)">Exte<tspan class="cls-35" x="17.61" y="0">r</tspan><tspan class="cls-36" x="20.78" y="0">ní </tspan><tspan class="cls-24" x="30.15" y="0">r</tspan><tspan x="33.01" y="0">ozhraní</tspan></text><text class="cls-25" transform="translate(131.04 100.44)">Aktivní posílání dat</text><rect class="cls-80" x="126.49" y="17.34" width="57.14" height="57.14" rx="14.17"/><path class="cls-81" d="M146.09,38.91v6.25H156.6l-2.76-2.8a.76.76,0,0,1,0-1.07.75.75,0,0,1,1.07,0l4,4.09a.76.76,0,0,1,.21.53.71.71,0,0,1,0,.29,1,1,0,0,1-.16.24l-4,4.09a.76.76,0,0,1-1.07,0,.75.75,0,0,1,0-1.07l2.76-2.8H146.09v6.25a2.34,2.34,0,0,0,2.34,2.33h14a2.34,2.34,0,0,0,2.33-2.33v-14a2.34,2.34,0,0,0-2.33-2.34h-14A2.34,2.34,0,0,0,146.09,38.91Zm-4.84,6.25a.75.75,0,0,0-.76.75.76.76,0,0,0,.76.76h4.84V45.16Z"/><text/><path class="cls-82" d="M646.2,208.5c36.65,5.4,12.82,178.6,36.62,209.58"/><polygon class="cls-83" points="679.57 419.91 686.84 421.66 684.72 414.49 679.57 419.91"/><text class="cls-34" transform="translate(216.91 434.11)">Aplikace<tspan x="9.79" y="13.2">datové</tspan><tspan x="-4.87" y="26.4">platformy</tspan></text><rect class="cls-84" x="148.96" y="451.54" width="14.63" height="14.63" rx="3.64"/><rect class="cls-85" x="145.88" y="439.58" width="14.63" height="14.63" rx="3.64"/><rect class="cls-86" x="145.88" y="463.5" width="14.63" height="14.63" rx="3.64"/><rect class="cls-87" x="276.56" y="412.88" width="519.76" height="120.48" rx="14.17"/><text class="cls-34" transform="translate(17.74 434.11)">Externí<tspan x="-6.74" y="13.2">systémy</tspan><tspan x="-17.74" y="26.4">využívající</tspan><tspan x="-9.78" y="39.6">API a OD</tspan></text><rect class="cls-88" x="69.44" y="412.88" width="106.59" height="120.48" rx="14.17"/><text class="cls-23" transform="translate(452.55 503.18)">Client Panel</text><text class="cls-25" transform="translate(439.33 512.59)"><tspan class="cls-89">W</tspan><tspan x="4.96" y="0">ebová vizualizační aplikace</tspan></text><rect class="cls-90" x="447.31" y="429.15" width="57.14" height="57.14" rx="14.17"/><path class="cls-91" d="M486.1,450.18H466.46a2.32,2.32,0,0,0-2.32,2.32v10.81a2.32,2.32,0,0,0,2.32,2.32H486.1a2.32,2.32,0,0,0,2.32-2.32V452.5A2.32,2.32,0,0,0,486.1,450.18ZM487,463.3h0a.92.92,0,0,1-.91.92H466.46a.92.92,0,0,1-.92-.92V452.5a.92.92,0,0,1,.92-.92H486.1a.92.92,0,0,1,.92.92Z"/><path class="cls-92" d="M482,466.63H470.56a.7.7,0,0,0,0,1.4H482a.7.7,0,1,0,0-1.4Z"/><rect class="cls-93" x="466.65" y="452.68" width="19.26" height="10.43" rx="0.6"/><text class="cls-23" transform="translate(572.9 503.18)">Golemio.cz</text><text class="cls-25" transform="translate(561.43 512.59)">BI, graf<tspan class="cls-94" x="18.5" y="0">y</tspan><tspan x="20.94" y="0">, mapové aplikace</tspan></text><rect class="cls-95" x="566.15" y="429.15" width="57.14" height="57.14" rx="14.17"/><text class="cls-23" transform="translate(309.28 503.18)">Client API Managment</text><text class="cls-25" transform="translate(310.44 512.59)">Správa API klíčů p<tspan class="cls-27" x="46.75" y="0">r</tspan><tspan x="48.55" y="0">o přístup k API</tspan></text><rect class="cls-96" x="324.58" y="429.15" width="57.14" height="57.14" rx="14.17"/><path class="cls-97" d="M358.33,456.72a6.56,6.56,0,0,0-2.18.24c-2.95-2.51-10.76-9.16-11.35-9.77a1.19,1.19,0,0,0-.88-.4,1.9,1.9,0,0,0-1.24.57c-.41.38-1.93,2-1.64,2.33.88.9,1.11,1.08,1.47,1.45.55.55,1.65-.06,2.1.13a.85.85,0,0,1,.61.73,12.39,12.39,0,0,1-.17,1.39,1.42,1.42,0,0,0,.53,1.1,1.19,1.19,0,0,0,.91.51c.53,0,1.22-.75,1.78-.18s-.36,1.38-.29,2a2.17,2.17,0,0,0,1.26,1.4c.35.08,1.27-.68,1.79-.56a1.22,1.22,0,0,1,.64.66c.06.27-.4,1.46-.34,1.73a4.13,4.13,0,0,0,.6,1,6.54,6.54,0,0,0-.54,2.78,7,7,0,1,0,13.9,0A7,7,0,0,0,358.33,456.72Zm1.36,10.62a1.87,1.87,0,1,1,1.86-1.87A1.86,1.86,0,0,1,359.69,467.34Z"/><text class="cls-23" transform="translate(91.33 503.22)">Poskytování dat</text><text class="cls-25" transform="translate(91.05 512.63)">Opendata a otevřené API</text><rect class="cls-98" x="94.59" y="429.53" width="57.14" height="57.14" rx="14.17"/><path class="cls-99" d="M134.46,451.39l-9.44-4.3a5.11,5.11,0,0,0-3.73,0l-9.43,4.3c-1.12.51-1.12,1.34,0,1.84l9.35,4.27a5.36,5.36,0,0,0,3.9,0l9.35-4.27C135.58,452.73,135.58,451.9,134.46,451.39Zm-13.25,15-6.31-2.88a1,1,0,0,0-.84,0l-2.2,1c-1.12.5-1.12,1.33,0,1.84l9.35,4.26a5.36,5.36,0,0,0,3.9,0l9.35-4.26c1.12-.51,1.12-1.34,0-1.84l-2.2-1a1,1,0,0,0-.84,0l-6.31,2.88a5.46,5.46,0,0,1-3.9,0Z"/><path class="cls-100" d="M134.46,458l-2-.91a1,1,0,0,0-.83,0l-6.83,3.09a5.56,5.56,0,0,1-3.28,0l-6.83-3.09a1,1,0,0,0-.84,0l-2,.91c-1.11.51-1.11,1.33,0,1.84l9.36,4.27a5.43,5.43,0,0,0,3.89,0l9.36-4.27C135.58,459.3,135.58,458.48,134.46,458Z"/><path class="cls-101" d="M133.59,332.91c-1.73,28.15-12.8,40.57-10.76,81.82"/><polygon class="cls-102" points="129.78 333.85 133.8 327.54 137.26 334.17 129.78 333.85"/><polygon class="cls-103" points="119.08 413.84 123.16 420.1 126.54 413.44 119.08 413.84"/><path class="cls-104" d="M419.14,397.44c35.89,2.92,98.73-2,130.27,20.85"/><polygon class="cls-105" points="546.2 420.61 553.61 421.66 550.81 414.72 546.2 420.61"/><path class="cls-106" d="M149.83,332.91c-3.31,88.15,138.45,67.17,166.88,88.69"/><polygon class="cls-107" points="146.08 333.78 150.2 327.54 153.55 334.22 146.08 333.78"/><polygon class="cls-108" points="313.14 423.52 320.33 425.57 318.51 418.32 313.14 423.52"/><path class="cls-109" d="M166.85,332.85c19.42,88.53,290.58,42.3,308.18,81.93"/><polygon class="cls-110" points="163.45 334.56 166.01 327.54 170.81 333.26 163.45 334.56"/><polygon class="cls-111" points="470.93 414.5 475.88 420.1 478.25 413.01 470.93 414.5"/><path class="cls-112" d="M583,453.4v13.17a.5.5,0,0,0,.5.5h6.08a.5.5,0,0,0,.5-.5V453.4a.5.5,0,0,0-.5-.5h-6.08A.5.5,0,0,0,583,453.4Zm8.59-6.57a.5.5,0,0,0-.5.5v19.74h7.6a.5.5,0,0,0,.5-.5V447.33a.5.5,0,0,0-.5-.5ZM606.76,457h-6.08a.5.5,0,0,0-.5.5v9.12a.5.5,0,0,0,.5.5h6.08a.5.5,0,0,0,.5-.5v-9.12a.5.5,0,0,0-.5-.5Z"/><path class="cls-113" d="M711.58,315.28v13.16a.5.5,0,0,0,.5.5h6.08a.5.5,0,0,0,.5-.5V315.28a.5.5,0,0,0-.5-.5h-6.08A.5.5,0,0,0,711.58,315.28Zm8.59-6.58a.5.5,0,0,0-.5.5v19.74h7.6a.5.5,0,0,0,.5-.5V309.2a.51.51,0,0,0-.5-.5Zm15.19,10.12h-6.08a.5.5,0,0,0-.5.5v9.12a.5.5,0,0,0,.5.5h6.08a.5.5,0,0,0,.5-.5v-9.12a.5.5,0,0,0-.5-.5Z"/><text class="cls-23" transform="translate(676.35 503.18)">Opendatový katalog</text><text class="cls-25" transform="translate(664.65 512.59)">Metadata, katalogizace, kontaktní osoby</text><rect class="cls-114" x="687.3" y="429.15" width="57.14" height="57.14" rx="14.17"/><path class="cls-115" d="M725,447.25H706.71a2.19,2.19,0,0,0-2.18,2.18V466a2.19,2.19,0,0,0,2.18,2.18H725a2.19,2.19,0,0,0,2.18-2.18V449.43A2.19,2.19,0,0,0,725,447.25Zm.65,9.59a.88.88,0,0,1-.87.88h-4.73a.89.89,0,0,0-.83.57,1.62,1.62,0,0,1-1.42,1.17h-3.92a1.63,1.63,0,0,1-1.43-1.17.87.87,0,0,0-.82-.57h-4.73a.88.88,0,0,1-.87-.88v-7.19a.87.87,0,0,1,.87-.87h17.88a.87.87,0,0,1,.87.87Z"/><path class="cls-116" d="M723,452.27H708.78a.77.77,0,0,1-.76-.77.76.76,0,0,1,.76-.76H723a.76.76,0,0,1,.76.76A.77.77,0,0,1,723,452.27Zm0,3.48H708.78a.76.76,0,0,1,0-1.52H723a.76.76,0,0,1,0,1.52Z"/><path class="cls-117" d="M605.36,309.5h-8.12v13.65l3.63-3.58a1,1,0,1,1,1.39,1.4L597,326.21a1,1,0,0,1-.69.28,1,1,0,0,1-.38-.08,1,1,0,0,1-.31-.2L590.26,321a1,1,0,1,1,1.38-1.4l3.64,3.58V309.5h-8.14a3,3,0,0,0-3,3v18.22a3,3,0,0,0,3,3h18.22a3,3,0,0,0,3-3V312.53A3,3,0,0,0,605.36,309.5Zm-8.12-6.3a1,1,0,0,0-2,0v6.3h2Z"/><rect class="cls-118" x="748.91" y="185.89" width="14.63" height="14.63" rx="3.64"/><rect class="cls-119" x="745.83" y="173.93" width="14.63" height="14.63" rx="3.64"/><rect class="cls-120" x="745.83" y="197.85" width="14.63" height="14.63" rx="3.64"/><text class="cls-23" transform="translate(702.71 237.99)">Monitoring</text><text class="cls-25" transform="translate(697.82 247.4)">Log<tspan class="cls-94" x="9.73" y="0">y</tspan><tspan x="12.17" y="0">, výkon, alerting</tspan></text><rect class="cls-121" x="695.48" y="164.3" width="57.14" height="57.14" rx="14.17"/><path class="cls-122" d="M724.05,184.3A12.14,12.14,0,0,0,715,204.48l.18.19a1.36,1.36,0,0,0,1,.44,1.39,1.39,0,0,0,1-.44,9.38,9.38,0,0,1,13.81,0,1.37,1.37,0,0,0,1,.44,1.33,1.33,0,0,0,1-.44l.17-.19a12.13,12.13,0,0,0-9.09-20.18Zm-.76,2.48a.76.76,0,0,1,1.52,0v2a.76.76,0,0,1-1.52,0Zm-6.93,10.41h-2a.76.76,0,0,1,0-1.52h2a.76.76,0,0,1,0,1.52Zm2.79-5.66a.78.78,0,0,1-1.08,0l-1.38-1.38a.76.76,0,0,1,1.07-1.07l1.39,1.38A.77.77,0,0,1,719.15,191.53Zm8.7,1.87-2.57,4.09a1.52,1.52,0,0,1-.38.38,1.63,1.63,0,1,1-1.9-2.66l4.09-2.57a.56.56,0,0,1,.64,0A.54.54,0,0,1,727.85,193.4Zm2.18-1.87a.77.77,0,0,1-1.07,0,.78.78,0,0,1,0-1.08l1.38-1.38a.76.76,0,0,1,1.07,1.08Zm3.67,5.66h-2a.76.76,0,1,1,0-1.52h2a.76.76,0,0,1,0,1.52Z"/></g></g></svg>