<svg xmlns="http://www.w3.org/2000/svg" xmlns:xlink="http://www.w3.org/1999/xlink" viewBox="0 0 362.37 416.96"><defs><style>.cls-1,.cls-2,.cls-3,.cls-4{opacity:0.5;}.cls-1{fill:url(#Nepojmenovaný_přechod_7);}.cls-2{fill:url(#Nepojmenovaný_přechod_7-2);}.cls-3{fill:url(#Nepojmenovaný_přechod_7-3);}.cls-4{fill:url(#Nepojmenovaný_přechod_7-4);}.cls-5{fill:url(#Nepojmenovaný_přechod_7-5);}.cls-6{fill:url(#Nové_políčko_přechodu_1);}.cls-7{fill:url(#Nové_políčko_přechodu_1-2);}.cls-8{fill:url(#Nové_políčko_přechodu_1-3);}.cls-9{fill:url(#Nepojmenovaný_přechod_7-6);}.cls-10{fill:#585857;}.cls-11{fill:#9c9b9b;}.cls-12{fill:url(#Nepojmenovaný_přechod_7-7);}.cls-13{fill:url(#Nové_políčko_přechodu_1-4);}.cls-14{fill:url(#Nové_políčko_přechodu_1-5);}.cls-15{fill:url(#Nepojmenovaný_přechod_7-8);}.cls-16{fill:url(#Nepojmenovaný_přechod_7-9);}.cls-17{fill:url(#Nepojmenovaný_přechod_7-10);}.cls-18{fill:url(#Nepojmenovaný_přechod_7-11);}.cls-19{fill:url(#Nepojmenovaný_přechod_7-12);}.cls-20{fill:url(#Nové_políčko_přechodu_1-6);}.cls-21{fill:url(#Nepojmenovaný_přechod_7-13);}.cls-22{fill:url(#Nové_políčko_přechodu_2);}.cls-23{fill:url(#Nové_políčko_přechodu_1-7);}.cls-24{fill:url(#Nové_políčko_přechodu_1-8);}.cls-25{fill:url(#Nové_políčko_přechodu_1-9);}.cls-26{fill:url(#Nové_políčko_přechodu_3);}.cls-27{fill:url(#Nové_políčko_přechodu_3-2);}.cls-28{fill:url(#Nové_políčko_přechodu_3-3);}.cls-29{fill:url(#Nové_políčko_přechodu_3-4);}.cls-30{fill:url(#Nové_políčko_přechodu_3-5);}.cls-31{fill:url(#Nové_políčko_přechodu_3-6);}.cls-32{fill:url(#Nové_políčko_přechodu_3-7);}.cls-33{fill:url(#Nové_políčko_přechodu_3-8);}.cls-34{fill:url(#Nové_políčko_přechodu_3-9);}.cls-35{fill:url(#Nové_políčko_přechodu_3-10);}.cls-36{fill:url(#Nové_políčko_přechodu_3-11);}.cls-37{fill:url(#Nové_políčko_přechodu_3-12);}.cls-38{fill:url(#Nové_políčko_přechodu_3-13);}.cls-39{fill:url(#Nové_políčko_přechodu_3-14);}.cls-40{fill:url(#Nové_políčko_přechodu_3-15);}.cls-41{fill:url(#Nové_políčko_přechodu_3-16);}.cls-42{fill:url(#Nové_políčko_přechodu_3-17);}.cls-43{fill:url(#Nové_políčko_přechodu_3-18);}.cls-44{fill:url(#Nové_políčko_přechodu_3-19);}.cls-45{fill:url(#Nové_políčko_přechodu_3-20);}.cls-46{fill:url(#Nové_políčko_přechodu_3-21);}.cls-47{fill:url(#Nové_políčko_přechodu_3-22);}.cls-48{fill:url(#Nové_políčko_přechodu_3-23);}.cls-49{fill:url(#Nové_políčko_přechodu_3-24);}.cls-50{fill:url(#Nové_políčko_přechodu_3-25);}.cls-51{fill:url(#Nové_políčko_přechodu_3-26);}.cls-52{fill:url(#Nové_políčko_přechodu_3-27);}.cls-53{fill:url(#Nové_políčko_přechodu_3-28);}.cls-54{fill:url(#Nové_políčko_přechodu_3-29);}.cls-55{fill:url(#Nové_políčko_přechodu_3-30);}.cls-56{fill:url(#Nové_políčko_přechodu_3-31);}.cls-57{fill:url(#Nové_políčko_přechodu_3-32);}</style><linearGradient id="Nepojmenovaný_přechod_7" x1="123.27" y1="134.81" x2="153.7" y2="165.24" gradientUnits="userSpaceOnUse"><stop offset="0" stop-color="#f6f6f6"/><stop offset="1" stop-color="#d9d9d9"/></linearGradient><linearGradient id="Nepojmenovaný_přechod_7-2" x1="109.33" y1="166.51" x2="165.78" y2="222.95" xlink:href="#Nepojmenovaný_přechod_7"/><linearGradient id="Nepojmenovaný_přechod_7-3" x1="169.55" y1="159.3" x2="245.01" y2="234.76" xlink:href="#Nepojmenovaný_přechod_7"/><linearGradient id="Nepojmenovaný_přechod_7-4" x1="207.49" y1="130.43" x2="263.94" y2="186.87" xlink:href="#Nepojmenovaný_přechod_7"/><linearGradient id="Nepojmenovaný_přechod_7-5" x1="156.36" y1="4.15" x2="205.2" y2="52.99" xlink:href="#Nepojmenovaný_přechod_7"/><linearGradient id="Nové_políčko_přechodu_1" x1="171.93" y1="19.5" x2="190.44" y2="38.01" gradientUnits="userSpaceOnUse"><stop offset="0" stop-color="#4570b4"/><stop offset="1" stop-color="#009de0"/></linearGradient><linearGradient id="Nové_políčko_přechodu_1-2" x1="177.83" y1="34.83" x2="184.54" y2="41.54" xlink:href="#Nové_políčko_přechodu_1"/><linearGradient id="Nové_políčko_přechodu_1-3" x1="173.93" y1="21.51" x2="188.43" y2="36" xlink:href="#Nové_políčko_přechodu_1"/><linearGradient id="Nepojmenovaný_přechod_7-6" x1="275.2" y1="4.15" x2="324.04" y2="52.99" xlink:href="#Nepojmenovaný_přechod_7"/><linearGradient id="Nepojmenovaný_přechod_7-7" x1="38.2" y1="4.53" x2="87.03" y2="53.36" xlink:href="#Nepojmenovaný_přechod_7"/><linearGradient id="Nové_políčko_přechodu_1-4" x1="53.12" y1="20.24" x2="72.12" y2="39.24" xlink:href="#Nové_políčko_přechodu_1"/><linearGradient id="Nové_políčko_přechodu_1-5" x1="56.4" y1="23.53" x2="68.83" y2="35.95" xlink:href="#Nové_políčko_přechodu_1"/><linearGradient id="Nepojmenovaný_přechod_7-8" x1="4.15" y1="339.83" x2="52.99" y2="388.67" xlink:href="#Nepojmenovaný_přechod_7"/><linearGradient id="Nepojmenovaný_přechod_7-9" x1="80.55" y1="339.83" x2="129.38" y2="388.67" xlink:href="#Nepojmenovaný_přechod_7"/><linearGradient id="Nepojmenovaný_přechod_7-10" x1="156.59" y1="339.83" x2="205.43" y2="388.67" xlink:href="#Nepojmenovaný_přechod_7"/><linearGradient id="Nepojmenovaný_přechod_7-11" x1="233.34" y1="339.83" x2="282.18" y2="388.67" xlink:href="#Nepojmenovaný_přechod_7"/><linearGradient id="Nepojmenovaný_přechod_7-12" x1="309.38" y1="339.83" x2="358.22" y2="388.67" xlink:href="#Nepojmenovaný_přechod_7"/><linearGradient id="Nové_políčko_přechodu_1-6" x1="290.05" y1="21.88" x2="308.99" y2="40.81" xlink:href="#Nové_políčko_přechodu_1"/><linearGradient id="Nepojmenovaný_přechod_7-13" x1="142.75" y1="140.61" x2="219.49" y2="217.36" xlink:href="#Nepojmenovaný_přechod_7"/><linearGradient id="Nové_políčko_přechodu_2" x1="159.38" y1="179.66" x2="210.13" y2="179.66" gradientUnits="userSpaceOnUse"><stop offset="0" stop-color="#5a287f"/><stop offset="1" stop-color="#b2387b"/></linearGradient><linearGradient id="Nové_políčko_přechodu_1-7" x1="571.51" y1="159.08" x2="574.92" y2="173.47" gradientTransform="translate(9.22 682.72) rotate(-90)" xlink:href="#Nové_políčko_přechodu_1"/><linearGradient id="Nové_políčko_přechodu_1-8" x1="562.8" y1="161.14" x2="566.2" y2="175.53" gradientTransform="translate(9.22 682.72) rotate(-90)" xlink:href="#Nové_políčko_přechodu_1"/><linearGradient id="Nové_políčko_přechodu_1-9" x1="567.83" y1="159.95" x2="571.24" y2="174.34" gradientTransform="translate(9.22 682.72) rotate(-90)" xlink:href="#Nové_políčko_přechodu_1"/><linearGradient id="Nové_políčko_přechodu_3" x1="361.82" y1="158.08" x2="380.95" y2="185.83" gradientTransform="translate(9.22 682.72) rotate(-90)" gradientUnits="userSpaceOnUse"><stop offset="0" stop-color="#4d8c3f"/><stop offset="1" stop-color="#a2c037"/></linearGradient><linearGradient id="Nové_políčko_přechodu_3-2" x1="356.8" y1="161.53" x2="375.93" y2="189.28" xlink:href="#Nové_políčko_přechodu_3"/><linearGradient id="Nové_políčko_přechodu_3-3" x1="360.4" y1="159.05" x2="379.54" y2="186.8" xlink:href="#Nové_políčko_přechodu_3"/><linearGradient id="Nové_políčko_přechodu_3-4" x1="-4.25" y1="355.26" x2="23.67" y2="385.82" gradientTransform="matrix(1, 0, 0, 1, 0, 0)" xlink:href="#Nové_políčko_přechodu_3"/><linearGradient id="Nové_políčko_přechodu_3-5" x1="4.48" y1="347.29" x2="32.4" y2="377.84" gradientTransform="matrix(1, 0, 0, 1, 0, 0)" xlink:href="#Nové_políčko_přechodu_3"/><linearGradient id="Nové_políčko_přechodu_3-6" x1="6.6" y1="345.35" x2="34.52" y2="375.9" gradientTransform="matrix(1, 0, 0, 1, 0, 0)" xlink:href="#Nové_políčko_přechodu_3"/><linearGradient id="Nové_políčko_přechodu_3-7" x1="22.61" y1="330.72" x2="50.53" y2="361.28" gradientTransform="matrix(1, 0, 0, 1, 0, 0)" xlink:href="#Nové_políčko_přechodu_3"/><linearGradient id="Nové_políčko_přechodu_3-8" x1="18.06" y1="334.88" x2="45.98" y2="365.44" gradientTransform="matrix(1, 0, 0, 1, 0, 0)" xlink:href="#Nové_políčko_přechodu_3"/><linearGradient id="Nové_políčko_přechodu_3-9" x1="23.7" y1="329.73" x2="51.62" y2="360.28" gradientTransform="matrix(1, 0, 0, 1, 0, 0)" xlink:href="#Nové_políčko_přechodu_3"/><linearGradient id="Nové_políčko_přechodu_3-10" x1="9.91" y1="342.33" x2="37.83" y2="372.88" gradientTransform="matrix(1, 0, 0, 1, 0, 0)" xlink:href="#Nové_políčko_přechodu_3"/><linearGradient id="Nové_políčko_přechodu_3-11" x1="9.1" y1="343.07" x2="37.02" y2="373.62" gradientTransform="matrix(1, 0, 0, 1, 0, 0)" xlink:href="#Nové_políčko_přechodu_3"/><linearGradient id="Nové_políčko_přechodu_3-12" x1="89.98" y1="339.74" x2="121.48" y2="375.21" gradientTransform="matrix(1, 0, 0, 1, 0, 0)" xlink:href="#Nové_políčko_přechodu_3"/><linearGradient id="Nové_políčko_přechodu_3-13" x1="89.75" y1="339.95" x2="121.25" y2="375.41" gradientTransform="matrix(1, 0, 0, 1, 0, 0)" xlink:href="#Nové_políčko_přechodu_3"/><linearGradient id="Nové_políčko_přechodu_3-14" x1="75.3" y1="352.79" x2="106.8" y2="388.25" gradientTransform="matrix(1, 0, 0, 1, 0, 0)" xlink:href="#Nové_políčko_přechodu_3"/><linearGradient id="Nové_políčko_přechodu_3-15" x1="158.78" y1="344.78" x2="197.32" y2="384.6" gradientTransform="matrix(1, 0, 0, 1, 0, 0)" xlink:href="#Nové_políčko_přechodu_3"/><linearGradient id="Nové_políčko_přechodu_3-16" x1="161.07" y1="342.57" x2="199.61" y2="382.39" gradientTransform="matrix(1, 0, 0, 1, 0, 0)" xlink:href="#Nové_políčko_přechodu_3"/><linearGradient id="Nové_políčko_přechodu_3-17" x1="154.61" y1="348.82" x2="193.15" y2="388.64" gradientTransform="matrix(1, 0, 0, 1, 0, 0)" xlink:href="#Nové_políčko_přechodu_3"/><linearGradient id="Nové_políčko_přechodu_3-18" x1="165.06" y1="338.7" x2="203.6" y2="378.53" gradientTransform="matrix(1, 0, 0, 1, 0, 0)" xlink:href="#Nové_políčko_přechodu_3"/><linearGradient id="Nové_políčko_přechodu_3-19" x1="159.42" y1="344.16" x2="197.96" y2="383.99" gradientTransform="matrix(1, 0, 0, 1, 0, 0)" xlink:href="#Nové_políčko_přechodu_3"/><linearGradient id="Nové_políčko_přechodu_3-20" x1="162.86" y1="340.83" x2="201.4" y2="380.66" gradientTransform="matrix(1, 0, 0, 1, 0, 0)" xlink:href="#Nové_políčko_přechodu_3"/><linearGradient id="Nové_políčko_přechodu_3-21" x1="245.35" y1="334.53" x2="283.83" y2="367.9" gradientTransform="matrix(1, 0, 0, 1, 0, 0)" xlink:href="#Nové_políčko_přechodu_3"/><linearGradient id="Nové_políčko_přechodu_3-22" x1="229.97" y1="352.27" x2="268.46" y2="385.63" gradientTransform="matrix(1, 0, 0, 1, 0, 0)" xlink:href="#Nové_políčko_přechodu_3"/><linearGradient id="Nové_políčko_přechodu_3-23" x1="239.94" y1="340.77" x2="278.42" y2="374.13" gradientTransform="matrix(1, 0, 0, 1, 0, 0)" xlink:href="#Nové_políčko_přechodu_3"/><linearGradient id="Nové_políčko_přechodu_3-24" x1="232.28" y1="349.6" x2="270.77" y2="382.97" gradientTransform="matrix(1, 0, 0, 1, 0, 0)" xlink:href="#Nové_políčko_přechodu_3"/><linearGradient id="Nové_políčko_přechodu_3-25" x1="232.7" y1="349.12" x2="271.18" y2="382.49" gradientTransform="matrix(1, 0, 0, 1, 0, 0)" xlink:href="#Nové_políčko_přechodu_3"/><linearGradient id="Nové_políčko_přechodu_3-26" x1="235.65" y1="345.72" x2="274.13" y2="379.08" gradientTransform="matrix(1, 0, 0, 1, 0, 0)" xlink:href="#Nové_políčko_přechodu_3"/><linearGradient id="Nové_políčko_přechodu_3-27" x1="237.8" y1="343.24" x2="276.28" y2="376.61" gradientTransform="matrix(1, 0, 0, 1, 0, 0)" xlink:href="#Nové_políčko_přechodu_3"/><linearGradient id="Nové_políčko_přechodu_3-28" x1="324.43" y1="333.49" x2="361.79" y2="371" gradientTransform="matrix(1, 0, 0, 1, 0, 0)" xlink:href="#Nové_políčko_přechodu_3"/><linearGradient id="Nové_políčko_přechodu_3-29" x1="317.98" y1="339.91" x2="355.34" y2="377.42" gradientTransform="matrix(1, 0, 0, 1, 0, 0)" xlink:href="#Nové_políčko_přechodu_3"/><linearGradient id="Nové_políčko_přechodu_3-30" x1="316.1" y1="341.79" x2="353.46" y2="379.3" gradientTransform="matrix(1, 0, 0, 1, 0, 0)" xlink:href="#Nové_políčko_přechodu_3"/><linearGradient id="Nové_políčko_přechodu_3-31" x1="312.92" y1="344.96" x2="350.27" y2="382.47" gradientTransform="matrix(1, 0, 0, 1, 0, 0)" xlink:href="#Nové_políčko_přechodu_3"/><linearGradient id="Nové_políčko_přechodu_3-32" x1="301.22" y1="356.6" x2="338.58" y2="394.11" gradientTransform="matrix(1, 0, 0, 1, 0, 0)" xlink:href="#Nové_políčko_přechodu_3"/></defs><title>GolemioAimDatový zdroj 12</title><g id="Vrstva_2" data-name="Vrstva 2"><g id="Vrstva_1-2" data-name="Vrstva 1"><rect class="cls-1" x="119.12" y="130.66" width="38.73" height="38.73" rx="14.17"/><rect class="cls-2" x="105.18" y="162.36" width="64.75" height="64.75" rx="14.17"/><rect class="cls-3" x="165.4" y="155.15" width="83.76" height="83.76" rx="14.17"/><rect class="cls-4" x="203.34" y="126.28" width="64.75" height="64.75" rx="14.17"/><rect class="cls-5" x="152.21" width="57.14" height="57.14" rx="14.17"/><path class="cls-6" d="M191,21H171.36A2.33,2.33,0,0,0,169,23.35V34.16a2.33,2.33,0,0,0,2.32,2.32H191a2.33,2.33,0,0,0,2.33-2.32V23.35A2.34,2.34,0,0,0,191,21Zm.92,13.13h0a.92.92,0,0,1-.92.91H171.36a.91.91,0,0,1-.91-.91V23.35a.92.92,0,0,1,.91-.92H191a.92.92,0,0,1,.92.92Z"/><path class="cls-7" d="M186.9,37.48H175.46a.71.71,0,0,0,0,1.41H186.9a.71.71,0,0,0,0-1.41Z"/><rect class="cls-8" x="171.55" y="23.54" width="19.26" height="10.43" rx="0.6"/><rect class="cls-9" x="271.05" width="57.14" height="57.14" rx="14.17"/><path class="cls-10" d="M43.71,246.8A5.72,5.72,0,0,1,46.65,249a7.74,7.74,0,0,1,1.23,2.79,13.37,13.37,0,0,1,.33,2.86,11.52,11.52,0,0,1-1.38,5.84A6.26,6.26,0,0,1,41,263.7H33.58V246.43H41A9.16,9.16,0,0,1,43.71,246.8Zm-6.62,2.63V260.7h3.33A3.6,3.6,0,0,0,44,258.18a8.82,8.82,0,0,0,.55-3.29,8.11,8.11,0,0,0-.83-4c-.55-.94-1.65-1.41-3.29-1.41Z"/><path class="cls-10" d="M55.71,255.93a5.27,5.27,0,0,0,1.33-.29,1,1,0,0,0,.72-.95,1.13,1.13,0,0,0-.55-1.09,3.64,3.64,0,0,0-1.62-.29,2.13,2.13,0,0,0-1.7.58,2.41,2.41,0,0,0-.48,1.17H50.19a4.87,4.87,0,0,1,.94-2.75q1.34-1.69,4.57-1.69a8.2,8.2,0,0,1,3.74.83,3.21,3.21,0,0,1,1.64,3.15v5.85c0,.41,0,.9,0,1.48a1.78,1.78,0,0,0,.2.89,1.15,1.15,0,0,0,.49.39v.49H58.16A3.9,3.9,0,0,1,58,263c0-.22-.07-.48-.1-.77a6.68,6.68,0,0,1-1.6,1.28,4.87,4.87,0,0,1-2.45.62,4.23,4.23,0,0,1-2.88-1,3.53,3.53,0,0,1-1.14-2.81,3.64,3.64,0,0,1,1.83-3.41,8.34,8.34,0,0,1,3-.82Zm2,1.56a3.91,3.91,0,0,1-.65.32,5.75,5.75,0,0,1-.9.23l-.76.14a5.09,5.09,0,0,0-1.53.46,1.52,1.52,0,0,0-.79,1.42,1.47,1.47,0,0,0,.48,1.23,1.79,1.79,0,0,0,1.17.38,3.5,3.5,0,0,0,2-.63,2.68,2.68,0,0,0,1-2.31Z"/><path class="cls-10" d="M62.68,253.42V251h1.78v-3.56h3.31V251h2.07v2.38H67.77v6.75c0,.53.06.85.2,1a2.16,2.16,0,0,0,1.22.2h.32l.33,0v2.5l-1.58.06c-1.58.05-2.66-.22-3.23-.82a2.45,2.45,0,0,1-.57-1.77v-7.87Z"/><path class="cls-10" d="M82.64,262.14a6,6,0,0,1-4.91,2,5.94,5.94,0,0,1-4.91-2,7.92,7.92,0,0,1,0-9.6,5.9,5.9,0,0,1,4.91-2,5.91,5.91,0,0,1,4.91,2,7.92,7.92,0,0,1,0,9.6ZM80,260.29a6,6,0,0,0,0-5.91,3,3,0,0,0-4.51,0,5.92,5.92,0,0,0,0,5.91,3,3,0,0,0,4.51,0Z"/><path class="cls-10" d="M94.52,250.93H98.1L93.49,263.7H90l-4.58-12.77h3.75l2.66,9.42Z"/><path class="cls-10" d="M105.05,255.93a5.27,5.27,0,0,0,1.34-.29,1,1,0,0,0,.72-.95,1.15,1.15,0,0,0-.55-1.09,3.65,3.65,0,0,0-1.63-.29,2.11,2.11,0,0,0-1.69.58,2.41,2.41,0,0,0-.48,1.17H99.54a4.87,4.87,0,0,1,.94-2.75q1.33-1.69,4.57-1.69a8.2,8.2,0,0,1,3.74.83,3.21,3.21,0,0,1,1.63,3.15v5.85c0,.41,0,.9,0,1.48a1.78,1.78,0,0,0,.2.89,1.15,1.15,0,0,0,.49.39v.49h-3.63a2.81,2.81,0,0,1-.21-.73,6.94,6.94,0,0,1-.1-.77,6.88,6.88,0,0,1-1.6,1.28,4.87,4.87,0,0,1-2.45.62,4.24,4.24,0,0,1-2.89-1,3.55,3.55,0,0,1-1.13-2.81,3.64,3.64,0,0,1,1.83-3.41,8.34,8.34,0,0,1,3-.82Zm2,1.56a3.91,3.91,0,0,1-.65.32,5.75,5.75,0,0,1-.9.23l-.76.14a5.09,5.09,0,0,0-1.53.46,1.52,1.52,0,0,0-.79,1.42,1.47,1.47,0,0,0,.48,1.23,1.79,1.79,0,0,0,1.17.38,3.52,3.52,0,0,0,2-.63,2.71,2.71,0,0,0,1-2.31Zm2.08-11.79-3.56,3.5h-2.41l2.25-3.5Z"/><path class="cls-10" d="M130.75,252.3a6.81,6.81,0,0,1,1.56,4.85,7.64,7.64,0,0,1-1.52,5.14,5,5,0,0,1-3.94,1.77,4.08,4.08,0,0,1-2.54-.76,4.81,4.81,0,0,1-1.09-1.23v6.66h-3.3v-17.8h3.2v1.88a5.37,5.37,0,0,1,1.15-1.31,4.28,4.28,0,0,1,2.67-.85A5,5,0,0,1,130.75,252.3Zm-2.56,2.4a2.38,2.38,0,0,0-2.21-1.14,2.52,2.52,0,0,0-2.52,1.73,6.39,6.39,0,0,0-.36,2.32,3.69,3.69,0,0,0,1.2,3.13,2.73,2.73,0,0,0,1.68.52,2.44,2.44,0,0,0,2.15-1.08,5.64,5.64,0,0,0,.06-5.48Z"/><path class="cls-10" d="M138.08,263.7h-3.34V246.43h3.34Z"/><path class="cls-10" d="M146.4,255.93a5.27,5.27,0,0,0,1.33-.29,1,1,0,0,0,.72-.95,1.13,1.13,0,0,0-.55-1.09,3.64,3.64,0,0,0-1.62-.29,2.13,2.13,0,0,0-1.7.58,2.41,2.41,0,0,0-.48,1.17h-3.22a5,5,0,0,1,.94-2.75q1.34-1.69,4.57-1.69a8.2,8.2,0,0,1,3.74.83,3.21,3.21,0,0,1,1.64,3.15v5.85c0,.41,0,.9,0,1.48a1.78,1.78,0,0,0,.2.89,1.15,1.15,0,0,0,.49.39v.49h-3.63a3.9,3.9,0,0,1-.21-.73,7.13,7.13,0,0,1-.09-.77,6.93,6.93,0,0,1-1.61,1.28,4.87,4.87,0,0,1-2.45.62,4.23,4.23,0,0,1-2.88-1,3.53,3.53,0,0,1-1.14-2.81,3.64,3.64,0,0,1,1.83-3.41,8.34,8.34,0,0,1,2.95-.82Zm2,1.56a3.56,3.56,0,0,1-.65.32,5.47,5.47,0,0,1-.9.23l-.75.14a5.08,5.08,0,0,0-1.54.46,1.52,1.52,0,0,0-.79,1.42,1.47,1.47,0,0,0,.48,1.23,1.8,1.8,0,0,0,1.18.38,3.49,3.49,0,0,0,2-.63,2.65,2.65,0,0,0,1-2.31Z"/><path class="cls-10" d="M153.37,253.42V251h1.78v-3.56h3.31V251h2.07v2.38h-2.07v6.75a1.53,1.53,0,0,0,.2,1,2.16,2.16,0,0,0,1.22.2h.32l.33,0v2.5l-1.58.06c-1.58.05-2.65-.22-3.23-.82a2.45,2.45,0,0,1-.57-1.77v-7.87Z"/><path class="cls-10" d="M168,246.27l.71,0V249c-.19,0-.51,0-.95,0a1,1,0,0,0-1.16,1V251h2.19v2.36h-2.19v10.3h-3.32V253.4h-1.87V251h1.82v-.82a4.26,4.26,0,0,1,.7-2.82c.48-.77,1.65-1.15,3.5-1.15Z"/><path class="cls-10" d="M181.32,262.14a7.05,7.05,0,0,1-9.82,0,8,8,0,0,1,0-9.6,7,7,0,0,1,9.82,0,7.92,7.92,0,0,1,0,9.6Zm-2.67-1.85a5.92,5.92,0,0,0,0-5.91,2.65,2.65,0,0,0-2.25-1,2.68,2.68,0,0,0-2.26,1,5.92,5.92,0,0,0,0,5.91,2.66,2.66,0,0,0,2.26,1A2.62,2.62,0,0,0,178.65,260.29Z"/><path class="cls-10" d="M192.43,250.63l.28,0v3.42c-.21,0-.4,0-.56,0h-.4a2.77,2.77,0,0,0-2.7,1.31,5.07,5.07,0,0,0-.39,2.28v6.1H185.3V250.93h3.18v2.22a7.16,7.16,0,0,1,1.35-1.74,3.65,3.65,0,0,1,2.44-.79Z"/><path class="cls-10" d="M210.61,251a3.88,3.88,0,0,1,1.49,1.15,3.61,3.61,0,0,1,.72,1.64,11.11,11.11,0,0,1,.12,1.89l0,8h-3.43v-8.13a2.62,2.62,0,0,0-.23-1.2,1.67,1.67,0,0,0-1.64-.89,1.91,1.91,0,0,0-1.91,1.15,3.61,3.61,0,0,0-.27,1.47v7.6h-3.36v-7.6a4.24,4.24,0,0,0-.24-1.66,1.64,1.64,0,0,0-1.65-.92,2,2,0,0,0-1.92.92A3.57,3.57,0,0,0,198,256v7.69h-3.39V251h3.25v1.86A5.23,5.23,0,0,1,199,251.4a4.66,4.66,0,0,1,4.89-.11,3.78,3.78,0,0,1,1.1,1.54,4.27,4.27,0,0,1,1.63-1.66,5,5,0,0,1,2.29-.52A4.63,4.63,0,0,1,210.61,251Z"/><path class="cls-10" d="M221.07,255.93a5.17,5.17,0,0,0,1.33-.29,1,1,0,0,0,.72-.95,1.13,1.13,0,0,0-.55-1.09,3.64,3.64,0,0,0-1.62-.29,2.13,2.13,0,0,0-1.7.58,2.31,2.31,0,0,0-.47,1.17h-3.23a5,5,0,0,1,.94-2.75q1.33-1.69,4.57-1.69a8.17,8.17,0,0,1,3.74.83,3.21,3.21,0,0,1,1.64,3.15v5.85c0,.41,0,.9,0,1.48a1.89,1.89,0,0,0,.2.89,1.21,1.21,0,0,0,.49.39v.49h-3.63a3.9,3.9,0,0,1-.21-.73,7.13,7.13,0,0,1-.09-.77,6.93,6.93,0,0,1-1.61,1.28,4.87,4.87,0,0,1-2.45.62,4.23,4.23,0,0,1-2.88-1,3.53,3.53,0,0,1-1.14-2.81,3.64,3.64,0,0,1,1.83-3.41,8.41,8.41,0,0,1,2.95-.82Zm2,1.56a3.56,3.56,0,0,1-.65.32,5.31,5.31,0,0,1-.89.23l-.76.14a5.08,5.08,0,0,0-1.54.46,1.54,1.54,0,0,0-.79,1.42,1.44,1.44,0,0,0,.49,1.23,1.79,1.79,0,0,0,1.17.38,3.47,3.47,0,0,0,2-.63,2.65,2.65,0,0,0,1-2.31Z"/><path class="cls-10" d="M247.91,251.82a3.35,3.35,0,0,0-2-2.47,4.86,4.86,0,0,0-2-.39,4.28,4.28,0,0,0-3.42,1.57,7.12,7.12,0,0,0-1.35,4.73c0,2.12.49,3.62,1.46,4.51a4.78,4.78,0,0,0,3.3,1.32,4.31,4.31,0,0,0,3-1,4.54,4.54,0,0,0,1.43-2.74h-4v-2.88h7.2v9.27h-2.39l-.37-2.16a8.09,8.09,0,0,1-1.87,1.73,6.66,6.66,0,0,1-3.52.88,7.31,7.31,0,0,1-5.62-2.38,9,9,0,0,1-2.29-6.54,9.59,9.59,0,0,1,2.31-6.72,7.87,7.87,0,0,1,6.11-2.53,8,8,0,0,1,5.29,1.67,6.25,6.25,0,0,1,2.29,4.17Z"/><path class="cls-10" d="M265.35,262.14a7.05,7.05,0,0,1-9.82,0,7.92,7.92,0,0,1,0-9.6,7,7,0,0,1,9.82,0,8,8,0,0,1,0,9.6Zm-2.68-1.85a5.92,5.92,0,0,0,0-5.91,3,3,0,0,0-4.5,0,5.92,5.92,0,0,0,0,5.91,3,3,0,0,0,4.5,0Z"/><path class="cls-10" d="M272.76,263.7h-3.34V246.43h3.34Z"/><path class="cls-10" d="M284.35,251.19a5.19,5.19,0,0,1,2.2,1.89,6,6,0,0,1,1,2.64,15.79,15.79,0,0,1,.11,2.53h-9.3a3.07,3.07,0,0,0,1.33,2.7,3.42,3.42,0,0,0,1.85.48,2.83,2.83,0,0,0,1.85-.59,2.76,2.76,0,0,0,.69-.88h3.41a4.2,4.2,0,0,1-1.24,2.31,6.23,6.23,0,0,1-4.81,1.86,7,7,0,0,1-4.5-1.57c-1.3-1-1.95-2.75-1.95-5.11a6.93,6.93,0,0,1,1.76-5.09,6.18,6.18,0,0,1,4.57-1.77A7.32,7.32,0,0,1,284.35,251.19Zm-5,2.88a3.5,3.5,0,0,0-.89,2h5.75a2.75,2.75,0,0,0-.89-2,2.91,2.91,0,0,0-2-.69A2.64,2.64,0,0,0,279.35,254.07Z"/><path class="cls-10" d="M305.31,251a3.88,3.88,0,0,1,1.49,1.15,3.72,3.72,0,0,1,.72,1.64,11.11,11.11,0,0,1,.12,1.89l0,8h-3.43v-8.13a2.62,2.62,0,0,0-.23-1.2,1.67,1.67,0,0,0-1.64-.89,1.91,1.91,0,0,0-1.91,1.15,3.61,3.61,0,0,0-.27,1.47v7.6h-3.36v-7.6a4.24,4.24,0,0,0-.24-1.66,1.64,1.64,0,0,0-1.65-.92,2,2,0,0,0-1.92.92,3.57,3.57,0,0,0-.27,1.57v7.69h-3.39V251h3.25v1.86a5.23,5.23,0,0,1,1.17-1.41,4.66,4.66,0,0,1,4.89-.11,3.78,3.78,0,0,1,1.1,1.54,4.2,4.2,0,0,1,1.63-1.66,5,5,0,0,1,2.29-.52A4.63,4.63,0,0,1,305.31,251Z"/><path class="cls-10" d="M314.14,249.4h-3.38v-3.08h3.38Zm-3.38,1.53h3.38V263.7h-3.38Z"/><path class="cls-10" d="M328,262.14a7.05,7.05,0,0,1-9.82,0,7.92,7.92,0,0,1,0-9.6,7,7,0,0,1,9.82,0,7.92,7.92,0,0,1,0,9.6Zm-2.67-1.85a6,6,0,0,0,0-5.91,3,3,0,0,0-4.51,0,5.92,5.92,0,0,0,0,5.91,3,3,0,0,0,4.51,0Z"/><path class="cls-11" d="M33.81,281.08a1.87,1.87,0,0,1,.74.57,1.93,1.93,0,0,1,.37.82,5.62,5.62,0,0,1,.06.95l0,4H33.25v-4.07a1.41,1.41,0,0,0-.11-.59.84.84,0,0,0-.82-.45,1,1,0,0,0-1,.58,1.77,1.77,0,0,0-.13.73v3.8H29.54v-3.8a2.14,2.14,0,0,0-.11-.83.82.82,0,0,0-.83-.46,1,1,0,0,0-1,.46,1.82,1.82,0,0,0-.13.79v3.84h-1.7v-6.37h1.62V282a2.86,2.86,0,0,1,.59-.71,2,2,0,0,1,1.26-.38,1.94,1.94,0,0,1,1.18.33A1.7,1.7,0,0,1,31,282a2.15,2.15,0,0,1,.82-.82,2.44,2.44,0,0,1,1.15-.27A2.2,2.2,0,0,1,33.81,281.08Z"/><path class="cls-11" d="M41.84,286.66a3,3,0,0,1-2.46,1,3,3,0,0,1-2.45-1,3.71,3.71,0,0,1-.81-2.4,3.74,3.74,0,0,1,.81-2.4,3,3,0,0,1,2.45-1,3,3,0,0,1,2.46,1,3.74,3.74,0,0,1,.81,2.4A3.71,3.71,0,0,1,41.84,286.66Zm-1.34-.92a3,3,0,0,0,0-3,1.48,1.48,0,0,0-2.25,0,2.94,2.94,0,0,0,0,3,1.48,1.48,0,0,0,2.25,0Z"/><path class="cls-11" d="M47.23,281.16a2,2,0,0,1,.73.7v-3h1.69v8.62H48v-.88a2.44,2.44,0,0,1-.81.82,2.47,2.47,0,0,1-3-.65,3.45,3.45,0,0,1-.77-2.32,4,4,0,0,1,.75-2.57,2.46,2.46,0,0,1,2-.94A2.07,2.07,0,0,1,47.23,281.16Zm.41,4.55a2.41,2.41,0,0,0,.37-1.37,2.09,2.09,0,0,0-.59-1.67,1.27,1.27,0,0,0-.85-.31,1.17,1.17,0,0,0-1.07.55,2.57,2.57,0,0,0-.35,1.38,2.54,2.54,0,0,0,.35,1.41,1.17,1.17,0,0,0,1.06.53A1.24,1.24,0,0,0,47.64,285.71Z"/><path class="cls-11" d="M52.84,281.05v3.85a2.11,2.11,0,0,0,.12.82.89.89,0,0,0,.9.49,1.16,1.16,0,0,0,1.16-.69,2.5,2.5,0,0,0,.16-1v-3.48h1.7v6.39H55.26v-.9l-.12.17a1.12,1.12,0,0,1-.22.26,2.17,2.17,0,0,1-.76.48,2.47,2.47,0,0,1-.86.13,1.9,1.9,0,0,1-1.9-1,3.94,3.94,0,0,1-.28-1.66v-3.85Z"/><path class="cls-11" d="M60.21,287.44H58.54V278.8h1.67Z"/><path class="cls-11" d="M64.36,283.56a2.49,2.49,0,0,0,.67-.15.5.5,0,0,0,.36-.48.56.56,0,0,0-.27-.54,1.77,1.77,0,0,0-.81-.15,1,1,0,0,0-.85.3,1.19,1.19,0,0,0-.24.58H61.61a2.34,2.34,0,0,1,.47-1.37,2.71,2.71,0,0,1,2.28-.85,4,4,0,0,1,1.87.42,1.59,1.59,0,0,1,.82,1.57v2.93c0,.2,0,.45,0,.74a1,1,0,0,0,.1.44.62.62,0,0,0,.25.19v.25H65.59a2,2,0,0,1-.1-.36,3.74,3.74,0,0,1,0-.39,3.57,3.57,0,0,1-.8.64,2.39,2.39,0,0,1-1.23.31,2.12,2.12,0,0,1-1.44-.5,1.75,1.75,0,0,1-.57-1.4,1.82,1.82,0,0,1,.92-1.7,4,4,0,0,1,1.47-.41Zm1,.78a2.49,2.49,0,0,1-.33.16,2.46,2.46,0,0,1-.45.11l-.38.07a2.37,2.37,0,0,0-.76.23.87.87,0,0,0-.16,1.33,1,1,0,0,0,.59.19,1.78,1.78,0,0,0,1-.32,1.37,1.37,0,0,0,.48-1.15Zm1-5.9-1.78,1.75H63.44l1.13-1.75Z"/><path class="cls-11" d="M72.06,280.9h.14v1.71l-.28,0h-.2a1.37,1.37,0,0,0-1.35.65,2.56,2.56,0,0,0-.2,1.14v3.05H68.49v-6.39h1.6v1.12a3.44,3.44,0,0,1,.67-.88A1.84,1.84,0,0,1,72,280.9Z"/><path class="cls-11" d="M78.33,281.42a2.12,2.12,0,0,1,.63,1.72v4.3H77.25v-3.88a1.78,1.78,0,0,0-.14-.78.93.93,0,0,0-.93-.49A1.16,1.16,0,0,0,75,283a2.69,2.69,0,0,0-.16,1v3.46H73.19v-6.37h1.62V282a2.66,2.66,0,0,1,.6-.71,2.12,2.12,0,0,1,1.31-.39A2.43,2.43,0,0,1,78.33,281.42Z"/><path class="cls-11" d="M83.41,278.44l-1.78,1.75H80.42l1.13-1.75Zm-2.88,2.61h1.7v6.39h-1.7Z"/><path class="cls-11" d="M88.47,285.4a1.09,1.09,0,0,0,.23.63,1.53,1.53,0,0,0,1.16.34,1.72,1.72,0,0,0,.78-.15.46.46,0,0,0,.29-.44.5.5,0,0,0-.23-.43,10.84,10.84,0,0,0-1.75-.5,3.6,3.6,0,0,1-1.53-.67A1.46,1.46,0,0,1,87,283a2,2,0,0,1,.7-1.52,2.76,2.76,0,0,1,2-.64,3.57,3.57,0,0,1,2,.48,2,2,0,0,1,.86,1.65H90.77a.91.91,0,0,0-.18-.51,1.12,1.12,0,0,0-.94-.34,1.41,1.41,0,0,0-.78.17.5.5,0,0,0-.23.4.42.42,0,0,0,.25.41,10.17,10.17,0,0,0,1.74.47,3.09,3.09,0,0,1,1.5.71,1.6,1.6,0,0,1,.49,1.2,2,2,0,0,1-.71,1.55,3.32,3.32,0,0,1-2.18.6A3.26,3.26,0,0,1,87.5,287a2.05,2.05,0,0,1-.72-1.62Z"/><path class="cls-11" d="M94.1,288.67h.21a3.54,3.54,0,0,0,.47,0,.76.76,0,0,0,.38-.14.8.8,0,0,0,.27-.41,1.14,1.14,0,0,0,.11-.39l-2.35-6.67h1.86l1.39,4.72,1.32-4.72h1.78l-2.19,6.29a8.5,8.5,0,0,1-1,2.25,1.9,1.9,0,0,1-1.47.43h-.36l-.41,0Z"/><path class="cls-11" d="M101.82,285.4a1,1,0,0,0,.23.63,1.52,1.52,0,0,0,1.15.34,1.74,1.74,0,0,0,.79-.15.47.47,0,0,0,.29-.44.5.5,0,0,0-.23-.43,10.84,10.84,0,0,0-1.75-.5,3.66,3.66,0,0,1-1.54-.67,1.49,1.49,0,0,1-.44-1.15,2,2,0,0,1,.69-1.52,2.79,2.79,0,0,1,2-.64,3.63,3.63,0,0,1,2,.48,2,2,0,0,1,.86,1.65h-1.67a.91.91,0,0,0-.18-.51,1.13,1.13,0,0,0-.94-.34,1.41,1.41,0,0,0-.78.17.5.5,0,0,0-.23.4.42.42,0,0,0,.25.41,10.17,10.17,0,0,0,1.74.47,3.18,3.18,0,0,1,1.5.71,1.64,1.64,0,0,1,.49,1.2,2,2,0,0,1-.71,1.55,3.33,3.33,0,0,1-2.19.6,3.23,3.23,0,0,1-2.22-.64,2.05,2.05,0,0,1-.72-1.62Z"/><path class="cls-11" d="M106.54,282.3v-1.19h.89v-1.78h1.66v1.78h1v1.19h-1v3.38a.84.84,0,0,0,.09.49,1.18,1.18,0,0,0,.61.09h.33v1.25l-.79,0a2.12,2.12,0,0,1-1.62-.41,1.26,1.26,0,0,1-.28-.89V282.3Z"/><path class="cls-11" d="M115.36,281.18a2.64,2.64,0,0,1,1.1.95,3.2,3.2,0,0,1,.51,1.32,8.68,8.68,0,0,1,0,1.27h-4.65a1.52,1.52,0,0,0,.67,1.34,1.7,1.7,0,0,0,.92.24,1.4,1.4,0,0,0,.93-.29,1.32,1.32,0,0,0,.34-.44h1.71a2.11,2.11,0,0,1-.62,1.16,3.11,3.11,0,0,1-2.4.93,3.42,3.42,0,0,1-2.25-.79,3.09,3.09,0,0,1-1-2.56,3.44,3.44,0,0,1,.88-2.54,3.09,3.09,0,0,1,2.28-.89A3.67,3.67,0,0,1,115.36,281.18Zm-2.5,1.45a1.69,1.69,0,0,0-.45,1h2.88a1.4,1.4,0,0,0-.44-1,1.49,1.49,0,0,0-1-.35A1.29,1.29,0,0,0,112.86,282.63Zm3-4.19-1.78,1.75h-1.21l1.13-1.75Z"/><path class="cls-11" d="M125.84,281.08a1.87,1.87,0,0,1,.74.57,1.81,1.81,0,0,1,.36.82,5.62,5.62,0,0,1,.06.95v4h-1.71v-4.07a1.26,1.26,0,0,0-.12-.59.83.83,0,0,0-.82-.45.94.94,0,0,0-1,.58,1.76,1.76,0,0,0-.14.73v3.8h-1.68v-3.8a2.1,2.1,0,0,0-.12-.83.8.8,0,0,0-.82-.46,1,1,0,0,0-1,.46,1.8,1.8,0,0,0-.14.79v3.84h-1.69v-6.37h1.62V282a2.65,2.65,0,0,1,.59-.71,2,2,0,0,1,1.26-.38,1.94,1.94,0,0,1,1.18.33,1.78,1.78,0,0,1,.55.76,2.08,2.08,0,0,1,.82-.82,2.41,2.41,0,0,1,1.15-.27A2.24,2.24,0,0,1,125.84,281.08Z"/><path class="cls-11" d="M133.59,280.29H131.9v-1.54h1.69Zm-1.69.76h1.69v6.39H131.9Z"/><path class="cls-11" d="M140.36,281.42a2.15,2.15,0,0,1,.62,1.72v4.3h-1.71v-3.88a1.8,1.8,0,0,0-.13-.78.93.93,0,0,0-.93-.49,1.16,1.16,0,0,0-1.16.72,2.49,2.49,0,0,0-.16,1v3.46h-1.67v-6.37h1.62V282a2.66,2.66,0,0,1,.6-.71,2.09,2.09,0,0,1,1.3-.39A2.44,2.44,0,0,1,140.36,281.42Z"/><path class="cls-11" d="M141.88,282.3v-1.19h.89v-1.78h1.65v1.78h1v1.19h-1v3.38a.82.82,0,0,0,.1.49,1.18,1.18,0,0,0,.61.09h.33v1.25l-.79,0a2.12,2.12,0,0,1-1.62-.41,1.22,1.22,0,0,1-.28-.89V282.3Z"/><path class="cls-11" d="M150.69,281.18a2.6,2.6,0,0,1,1.11.95,3.2,3.2,0,0,1,.51,1.32,8.68,8.68,0,0,1,.05,1.27h-4.65a1.52,1.52,0,0,0,.67,1.34,1.68,1.68,0,0,0,.92.24,1.4,1.4,0,0,0,.93-.29,1.32,1.32,0,0,0,.34-.44h1.7a2.09,2.09,0,0,1-.61,1.16,3.13,3.13,0,0,1-2.41.93,3.45,3.45,0,0,1-2.25-.79,3.08,3.08,0,0,1-1-2.56,3.44,3.44,0,0,1,.88-2.54,3.09,3.09,0,0,1,2.28-.89A3.59,3.59,0,0,1,150.69,281.18Zm-2.49,1.45a1.69,1.69,0,0,0-.45,1h2.88a1.37,1.37,0,0,0-.45-1,1.44,1.44,0,0,0-1-.35A1.28,1.28,0,0,0,148.2,282.63Z"/><path class="cls-11" d="M156.37,281.05a2,2,0,0,1,1,.92v-.92H159v6.06a3.38,3.38,0,0,1-.42,1.87,3.07,3.07,0,0,1-2.74,1.07,3.75,3.75,0,0,1-2-.48,1.77,1.77,0,0,1-.85-1.43h1.81a.84.84,0,0,0,.23.42,1.42,1.42,0,0,0,.91.23,1.22,1.22,0,0,0,1.21-.61,3.07,3.07,0,0,0,.2-1.3v-.41a1.87,1.87,0,0,1-1.82,1,2.45,2.45,0,0,1-2-.86,3.51,3.51,0,0,1-.74-2.34,4,4,0,0,1,.71-2.4,2.33,2.33,0,0,1,2-1A2.17,2.17,0,0,1,156.37,281.05Zm.56,4.58a2.06,2.06,0,0,0,.41-1.41,2.16,2.16,0,0,0-.38-1.38,1.26,1.26,0,0,0-1-.48,1.22,1.22,0,0,0-1.21.83,3.06,3.06,0,0,0-.17,1.08,2.57,2.57,0,0,0,.18,1,1.22,1.22,0,0,0,1.22.81A1.27,1.27,0,0,0,156.93,285.63Z"/><path class="cls-11" d="M164.08,280.9h.15v1.71l-.28,0h-.2a1.39,1.39,0,0,0-1.36.65,2.58,2.58,0,0,0-.19,1.14v3.05h-1.68v-6.39h1.59v1.12a3.67,3.67,0,0,1,.68-.88,1.84,1.84,0,0,1,1.22-.39Z"/><path class="cls-11" d="M167.74,283.56a2.49,2.49,0,0,0,.66-.15.5.5,0,0,0,.36-.48.56.56,0,0,0-.27-.54,1.77,1.77,0,0,0-.81-.15,1,1,0,0,0-.85.3,1.19,1.19,0,0,0-.24.58H165a2.34,2.34,0,0,1,.47-1.37,2.71,2.71,0,0,1,2.28-.85,4,4,0,0,1,1.87.42,1.59,1.59,0,0,1,.82,1.57v2.93c0,.2,0,.45,0,.74a1,1,0,0,0,.1.44.62.62,0,0,0,.25.19v.25H169a2,2,0,0,1-.1-.36,3.74,3.74,0,0,1-.05-.39,3.57,3.57,0,0,1-.8.64,2.39,2.39,0,0,1-1.23.31,2.12,2.12,0,0,1-1.44-.5,1.75,1.75,0,0,1-.57-1.4,1.82,1.82,0,0,1,.92-1.7,4,4,0,0,1,1.47-.41Zm1,.78a2.49,2.49,0,0,1-.33.16,2.26,2.26,0,0,1-.45.11l-.38.07a2.37,2.37,0,0,0-.76.23.87.87,0,0,0-.16,1.33,1,1,0,0,0,.59.19,1.75,1.75,0,0,0,1-.32,1.32,1.32,0,0,0,.48-1.15Z"/><path class="cls-11" d="M175.7,283.35a1.46,1.46,0,0,0-.24-.65,1,1,0,0,0-.88-.39,1.15,1.15,0,0,0-1.15.84,3.47,3.47,0,0,0-.17,1.18,3.16,3.16,0,0,0,.17,1.13,1.12,1.12,0,0,0,1.13.8,1,1,0,0,0,.83-.32,1.64,1.64,0,0,0,.3-.82h1.7a2.76,2.76,0,0,1-.55,1.44,2.68,2.68,0,0,1-2.33,1.1,2.74,2.74,0,0,1-2.27-.92,4.36,4.36,0,0,1,.08-4.92,2.82,2.82,0,0,1,2.22-.92,3.35,3.35,0,0,1,2,.54,2.49,2.49,0,0,1,.9,1.91Z"/><path class="cls-11" d="M182.72,281.18a2.64,2.64,0,0,1,1.1.95,3.2,3.2,0,0,1,.51,1.32,8.68,8.68,0,0,1,0,1.27h-4.65a1.52,1.52,0,0,0,.67,1.34,1.68,1.68,0,0,0,.92.24,1.4,1.4,0,0,0,.93-.29,1.32,1.32,0,0,0,.34-.44h1.71a2.11,2.11,0,0,1-.62,1.16,3.13,3.13,0,0,1-2.41.93,3.45,3.45,0,0,1-2.25-.79,3.11,3.11,0,0,1-1-2.56,3.44,3.44,0,0,1,.88-2.54,3.09,3.09,0,0,1,2.28-.89A3.67,3.67,0,0,1,182.72,281.18Zm-2.5,1.45a1.69,1.69,0,0,0-.45,1h2.88a1.37,1.37,0,0,0-.45-1,1.44,1.44,0,0,0-1-.35A1.29,1.29,0,0,0,180.22,282.63Z"/><path class="cls-11" d="M185.14,288.83a1.27,1.27,0,0,0,.74-.47,1.67,1.67,0,0,0,.27-.92h-1v-1.75h1.8v1.52a3.54,3.54,0,0,1-.1.83,1.69,1.69,0,0,1-.39.75,1.93,1.93,0,0,1-.73.51,1.71,1.71,0,0,1-.58.17Z"/><path class="cls-11" d="M193.56,281.05v3.85a1.91,1.91,0,0,0,.13.82.88.88,0,0,0,.89.49,1.17,1.17,0,0,0,1.17-.69,2.69,2.69,0,0,0,.16-1v-3.48h1.69v6.39H196v-.9l-.12.17a.92.92,0,0,1-.22.26,2.08,2.08,0,0,1-.76.48,2.41,2.41,0,0,1-.85.13,1.92,1.92,0,0,1-1.91-1,4,4,0,0,1-.27-1.66v-3.85Z"/><path class="cls-11" d="M199.21,278.83h1.64v4.66l2.11-2.41H205l-2.29,2.38,2.38,4h-2l-1.55-2.73-.69.72v2h-1.64Z"/><path class="cls-11" d="M207.6,287.44h-1.67V278.8h1.67Z"/><path class="cls-11" d="M211.76,283.56a2.59,2.59,0,0,0,.67-.15.5.5,0,0,0,.36-.48.55.55,0,0,0-.28-.54,1.71,1.71,0,0,0-.81-.15,1.06,1.06,0,0,0-.85.3,1.28,1.28,0,0,0-.23.58H209a2.34,2.34,0,0,1,.47-1.37,2.71,2.71,0,0,1,2.28-.85,4,4,0,0,1,1.87.42,1.59,1.59,0,0,1,.82,1.57v2.93c0,.2,0,.45,0,.74a1,1,0,0,0,.1.44.55.55,0,0,0,.25.19v.25H213a2.07,2.07,0,0,1-.11-.36c0-.12,0-.24,0-.39a3.57,3.57,0,0,1-.8.64,2.42,2.42,0,0,1-1.23.31,2.12,2.12,0,0,1-1.44-.5,1.75,1.75,0,0,1-.57-1.4,1.8,1.8,0,0,1,.92-1.7,4,4,0,0,1,1.47-.41Zm1,.78a1.91,1.91,0,0,1-.32.16,2.46,2.46,0,0,1-.45.11l-.38.07a2.54,2.54,0,0,0-.77.23.87.87,0,0,0-.15,1.33,1,1,0,0,0,.59.19,1.78,1.78,0,0,0,1-.32,1.34,1.34,0,0,0,.47-1.15Zm1.05-5.9-1.78,1.75h-1.21l1.12-1.75Z"/><path class="cls-11" d="M219.29,281.16a2,2,0,0,1,.74.7v-3h1.69v8.62H220.1v-.88a2.38,2.38,0,0,1-.82.82,2.28,2.28,0,0,1-1.13.26,2.37,2.37,0,0,1-1.89-.91,3.45,3.45,0,0,1-.76-2.32,4,4,0,0,1,.75-2.57,2.43,2.43,0,0,1,2-.94A2,2,0,0,1,219.29,281.16Zm.41,4.55a2.33,2.33,0,0,0,.37-1.37,2.06,2.06,0,0,0-.59-1.67,1.23,1.23,0,0,0-.84-.31,1.2,1.2,0,0,0-1.08.55,2.57,2.57,0,0,0-.34,1.38,2.54,2.54,0,0,0,.35,1.41,1.16,1.16,0,0,0,1.06.53A1.21,1.21,0,0,0,219.7,285.71Z"/><path class="cls-11" d="M225.77,283.56a2.49,2.49,0,0,0,.66-.15.5.5,0,0,0,.36-.48.56.56,0,0,0-.27-.54,1.77,1.77,0,0,0-.81-.15,1,1,0,0,0-.85.3,1.19,1.19,0,0,0-.24.58H223a2.34,2.34,0,0,1,.47-1.37,2.71,2.71,0,0,1,2.28-.85,4,4,0,0,1,1.87.42,1.59,1.59,0,0,1,.82,1.57v2.93c0,.2,0,.45,0,.74a1.13,1.13,0,0,0,.1.44.62.62,0,0,0,.25.19v.25H227a2,2,0,0,1-.1-.36,3.74,3.74,0,0,1,0-.39,3.57,3.57,0,0,1-.8.64,2.39,2.39,0,0,1-1.23.31,2.12,2.12,0,0,1-1.44-.5,1.75,1.75,0,0,1-.57-1.4,1.82,1.82,0,0,1,.92-1.7,4.07,4.07,0,0,1,1.47-.41Zm1,.78a2.49,2.49,0,0,1-.33.16,2.14,2.14,0,0,1-.44.11l-.38.07a2.36,2.36,0,0,0-.77.23.77.77,0,0,0-.4.71.73.73,0,0,0,.25.62.94.94,0,0,0,.58.19,1.75,1.75,0,0,0,1-.32,1.32,1.32,0,0,0,.48-1.15Zm1-5.9-1.78,1.75h-1.21l1.13-1.75Z"/><path class="cls-11" d="M235.06,281.42a2.12,2.12,0,0,1,.63,1.72v4.3H234v-3.88a1.78,1.78,0,0,0-.14-.78.93.93,0,0,0-.93-.49,1.15,1.15,0,0,0-1.15.72,2.48,2.48,0,0,0-.17,1v3.46h-1.67v-6.37h1.62V282a2.67,2.67,0,0,1,.61-.71,2.07,2.07,0,0,1,1.3-.39A2.42,2.42,0,0,1,235.06,281.42Z"/><path class="cls-11" d="M240.14,278.44l-1.78,1.75h-1.21l1.13-1.75Zm-2.88,2.61H239v6.39h-1.7Z"/><path class="cls-11" d="M246.44,283.56a2.7,2.7,0,0,0,.67-.15.5.5,0,0,0,.36-.48.57.57,0,0,0-.28-.54,1.71,1.71,0,0,0-.81-.15,1.06,1.06,0,0,0-.85.3,1.19,1.19,0,0,0-.24.58h-1.61a2.42,2.42,0,0,1,.47-1.37,2.74,2.74,0,0,1,2.28-.85,4.07,4.07,0,0,1,1.88.42,1.6,1.6,0,0,1,.81,1.57v2.93c0,.2,0,.45,0,.74a.86.86,0,0,0,.1.44.52.52,0,0,0,.24.19v.25h-1.81a1.46,1.46,0,0,1-.11-.36,3.74,3.74,0,0,1-.05-.39,3.57,3.57,0,0,1-.8.64,2.38,2.38,0,0,1-1.22.31,2.13,2.13,0,0,1-1.45-.5,1.77,1.77,0,0,1-.56-1.4,1.81,1.81,0,0,1,.91-1.7,4.07,4.07,0,0,1,1.48-.41Zm1,.78a2.39,2.39,0,0,1-.32.16,2.46,2.46,0,0,1-.45.11l-.38.07a2.45,2.45,0,0,0-.77.23.87.87,0,0,0-.15,1.33.94.94,0,0,0,.58.19,1.75,1.75,0,0,0,1-.32,1.32,1.32,0,0,0,.48-1.15Z"/><path class="cls-11" d="M257.85,281.05h1.79l-2.3,6.39h-1.76l-2.29-6.39h1.87l1.33,4.72Z"/><path class="cls-11" d="M262.31,280.29h-1.7v-1.54h1.7Zm-1.7.76h1.7v6.39h-1.7Z"/><path class="cls-11" d="M263.56,282.41v-1.36h5.05v1.39l-3.13,3.63h3.24v1.37h-5.38v-1.3l3.17-3.73Z"/><path class="cls-11" d="M271.59,281.05v3.85a1.91,1.91,0,0,0,.13.82.88.88,0,0,0,.89.49,1.17,1.17,0,0,0,1.17-.69,2.69,2.69,0,0,0,.16-1v-3.48h1.69v6.39H274v-.9l-.12.17a.92.92,0,0,1-.22.26,2.08,2.08,0,0,1-.76.48,2.41,2.41,0,0,1-.85.13,1.91,1.91,0,0,1-1.91-1,4,4,0,0,1-.27-1.66v-3.85Z"/><path class="cls-11" d="M279.78,283.56a2.49,2.49,0,0,0,.67-.15.5.5,0,0,0,.36-.48.56.56,0,0,0-.27-.54,1.79,1.79,0,0,0-.82-.15,1,1,0,0,0-.84.3,1.19,1.19,0,0,0-.24.58H277a2.34,2.34,0,0,1,.47-1.37,2.71,2.71,0,0,1,2.28-.85,4,4,0,0,1,1.87.42,1.59,1.59,0,0,1,.82,1.57v2.93c0,.2,0,.45,0,.74a1,1,0,0,0,.1.44.62.62,0,0,0,.25.19v.25H281a2,2,0,0,1-.1-.36,3.74,3.74,0,0,1-.05-.39,3.57,3.57,0,0,1-.8.64,2.39,2.39,0,0,1-1.23.31,2.12,2.12,0,0,1-1.44-.5,1.75,1.75,0,0,1-.57-1.4,1.82,1.82,0,0,1,.92-1.7,4,4,0,0,1,1.47-.41Zm1,.78a2.49,2.49,0,0,1-.33.16,2.46,2.46,0,0,1-.45.11l-.38.07a2.37,2.37,0,0,0-.76.23.87.87,0,0,0-.16,1.33,1,1,0,0,0,.59.19,1.78,1.78,0,0,0,1-.32,1.37,1.37,0,0,0,.48-1.15Z"/><path class="cls-11" d="M285.63,287.44H284V278.8h1.67Z"/><path class="cls-11" d="M289,280.29h-1.69v-1.54H289Zm-1.69.76H289v6.39h-1.69Z"/><path class="cls-11" d="M290.23,282.41v-1.36h5v1.39l-3.13,3.63h3.25v1.37H290v-1.3l3.17-3.73Z"/><path class="cls-11" d="M299.13,283.56a2.49,2.49,0,0,0,.66-.15.5.5,0,0,0,.36-.48.56.56,0,0,0-.27-.54,1.77,1.77,0,0,0-.81-.15,1,1,0,0,0-.85.3,1.19,1.19,0,0,0-.24.58h-1.61a2.34,2.34,0,0,1,.47-1.37,2.71,2.71,0,0,1,2.28-.85,4,4,0,0,1,1.87.42,1.59,1.59,0,0,1,.82,1.57v2.93c0,.2,0,.45,0,.74a1.13,1.13,0,0,0,.1.44.62.62,0,0,0,.25.19v.25h-1.82a2,2,0,0,1-.1-.36,3.74,3.74,0,0,1-.05-.39,3.57,3.57,0,0,1-.8.64,2.39,2.39,0,0,1-1.23.31,2.12,2.12,0,0,1-1.44-.5,1.75,1.75,0,0,1-.57-1.4,1.82,1.82,0,0,1,.92-1.7,4,4,0,0,1,1.47-.41Zm1,.78a2.49,2.49,0,0,1-.33.16,2.14,2.14,0,0,1-.44.11l-.38.07a2.36,2.36,0,0,0-.77.23.77.77,0,0,0-.4.71.76.76,0,0,0,.24.62,1,1,0,0,0,.59.19,1.75,1.75,0,0,0,1-.32,1.32,1.32,0,0,0,.48-1.15Z"/><path class="cls-11" d="M307.09,283.35a1.46,1.46,0,0,0-.24-.65,1,1,0,0,0-.88-.39,1.15,1.15,0,0,0-1.15.84,3.47,3.47,0,0,0-.17,1.18,3.16,3.16,0,0,0,.17,1.13,1.12,1.12,0,0,0,1.13.8,1,1,0,0,0,.83-.32,1.64,1.64,0,0,0,.3-.82h1.7a2.77,2.77,0,0,1-2.88,2.54,2.71,2.71,0,0,1-2.26-.92,3.67,3.67,0,0,1-.73-2.37,3.76,3.76,0,0,1,.8-2.55,2.82,2.82,0,0,1,2.22-.92,3.35,3.35,0,0,1,2,.54,2.49,2.49,0,0,1,.9,1.91Z"/><path class="cls-11" d="M314.11,281.18a2.64,2.64,0,0,1,1.1.95,3.2,3.2,0,0,1,.51,1.32,8.68,8.68,0,0,1,0,1.27h-4.65a1.52,1.52,0,0,0,.67,1.34,1.7,1.7,0,0,0,.92.24,1.4,1.4,0,0,0,.93-.29,1.32,1.32,0,0,0,.34-.44h1.71a2.11,2.11,0,0,1-.62,1.16,3.11,3.11,0,0,1-2.4.93,3.42,3.42,0,0,1-2.25-.79,3.09,3.09,0,0,1-1-2.56,3.44,3.44,0,0,1,.88-2.54,3.09,3.09,0,0,1,2.28-.89A3.67,3.67,0,0,1,314.11,281.18Zm-2.5,1.45a1.69,1.69,0,0,0-.45,1H314a1.4,1.4,0,0,0-.44-1,1.49,1.49,0,0,0-1-.35A1.29,1.29,0,0,0,311.61,282.63Z"/><path class="cls-11" d="M323.34,281.16a2,2,0,0,1,.73.7v-3h1.69v8.62h-1.62v-.88a2.44,2.44,0,0,1-.81.82,2.47,2.47,0,0,1-3-.65,3.45,3.45,0,0,1-.77-2.32,3.94,3.94,0,0,1,.76-2.57,2.43,2.43,0,0,1,2-.94A2.07,2.07,0,0,1,323.34,281.16Zm.41,4.55a2.33,2.33,0,0,0,.37-1.37,2.09,2.09,0,0,0-.59-1.67,1.27,1.27,0,0,0-.85-.31,1.18,1.18,0,0,0-1.07.55,2.57,2.57,0,0,0-.35,1.38,2.54,2.54,0,0,0,.35,1.41,1.18,1.18,0,0,0,1.06.53A1.24,1.24,0,0,0,323.75,285.71Z"/><path class="cls-11" d="M329.81,283.56a2.59,2.59,0,0,0,.67-.15.5.5,0,0,0,.36-.48.55.55,0,0,0-.28-.54,1.71,1.71,0,0,0-.81-.15,1.06,1.06,0,0,0-.85.3,1.09,1.09,0,0,0-.23.58h-1.62a2.49,2.49,0,0,1,.47-1.37,2.75,2.75,0,0,1,2.29-.85,4.05,4.05,0,0,1,1.87.42,1.61,1.61,0,0,1,.82,1.57v2.93c0,.2,0,.45,0,.74a.86.86,0,0,0,.1.44.58.58,0,0,0,.24.19v.25H331a2.07,2.07,0,0,1-.11-.36c0-.12,0-.24,0-.39a3.63,3.63,0,0,1-.81.64,2.38,2.38,0,0,1-1.22.31,2.12,2.12,0,0,1-1.44-.5,1.75,1.75,0,0,1-.57-1.4,1.81,1.81,0,0,1,.91-1.7,4.13,4.13,0,0,1,1.48-.41Zm1,.78a1.91,1.91,0,0,1-.32.16,2.46,2.46,0,0,1-.45.11l-.38.07a2.45,2.45,0,0,0-.77.23.87.87,0,0,0-.15,1.33,1,1,0,0,0,.59.19,1.72,1.72,0,0,0,1-.32,1.32,1.32,0,0,0,.48-1.15Z"/><path class="cls-11" d="M333.3,282.3v-1.19h.89v-1.78h1.65v1.78h1v1.19h-1v3.38a.82.82,0,0,0,.1.49,1.18,1.18,0,0,0,.61.09h.33v1.25l-.79,0a2.12,2.12,0,0,1-1.62-.41,1.22,1.22,0,0,1-.28-.89V282.3Z"/><path class="cls-11" d="M42.51,71.66a3.79,3.79,0,0,1-2.83,1,3.76,3.76,0,0,1-2.83-1,4.65,4.65,0,0,1-1.32-3.56,4.57,4.57,0,0,1,1.32-3.57,3.76,3.76,0,0,1,2.83-1,3.79,3.79,0,0,1,2.83,1,4.6,4.6,0,0,1,1.3,3.57A4.68,4.68,0,0,1,42.51,71.66Zm-1.13-1.31a4.33,4.33,0,0,0,0-4.5,2.22,2.22,0,0,0-3.41,0,3.45,3.45,0,0,0-.64,2.25A3.49,3.49,0,0,0,38,70.35a2.23,2.23,0,0,0,3.41,0Z"/><path class="cls-11" d="M50.43,66.72a3.43,3.43,0,0,1,.78,2.43,3.81,3.81,0,0,1-.77,2.57,2.46,2.46,0,0,1-2,.89,2.11,2.11,0,0,1-1.28-.38,2.63,2.63,0,0,1-.54-.62v3.33H45V66h1.6V67a2.48,2.48,0,0,1,.58-.65,2.08,2.08,0,0,1,1.33-.43A2.53,2.53,0,0,1,50.43,66.72Zm-1.29,1.21a1.17,1.17,0,0,0-1.1-.57,1.25,1.25,0,0,0-1.26.86,3.17,3.17,0,0,0-.18,1.16,1.83,1.83,0,0,0,.6,1.56,1.36,1.36,0,0,0,.84.27,1.23,1.23,0,0,0,1.08-.54,2.56,2.56,0,0,0,.37-1.44A2.43,2.43,0,0,0,49.14,67.93Z"/><path class="cls-11" d="M56.55,66.17a2.61,2.61,0,0,1,1.1.94,3.2,3.2,0,0,1,.51,1.32,8.55,8.55,0,0,1,.06,1.27H53.56a1.55,1.55,0,0,0,.67,1.35,1.7,1.7,0,0,0,.92.24,1.46,1.46,0,0,0,.93-.29,1.56,1.56,0,0,0,.34-.44h1.71a2.09,2.09,0,0,1-.62,1.15,3.1,3.1,0,0,1-2.4.93,3.5,3.5,0,0,1-2.25-.78,3.11,3.11,0,0,1-1-2.56,3.49,3.49,0,0,1,.88-2.55,3.09,3.09,0,0,1,2.29-.88A3.65,3.65,0,0,1,56.55,66.17Zm-2.5,1.44a1.76,1.76,0,0,0-.45,1h2.88a1.42,1.42,0,0,0-.44-1,1.47,1.47,0,0,0-1-.34A1.35,1.35,0,0,0,54.05,67.61Z"/><path class="cls-11" d="M64.21,66.41a2.08,2.08,0,0,1,.63,1.71v4.31H63.13V68.54a1.73,1.73,0,0,0-.14-.77.93.93,0,0,0-.93-.49A1.16,1.16,0,0,0,60.9,68a2.61,2.61,0,0,0-.16,1v3.46H59.07V66.05h1.62V67a2.65,2.65,0,0,1,.61-.71,2.13,2.13,0,0,1,1.3-.38A2.43,2.43,0,0,1,64.21,66.41Z"/><path class="cls-11" d="M69.78,66.14a2.07,2.07,0,0,1,.73.71v-3H72.2v8.63H70.58v-.89a2.33,2.33,0,0,1-.82.83,2.28,2.28,0,0,1-1.13.25,2.39,2.39,0,0,1-1.89-.9A3.47,3.47,0,0,1,66,69.4a4,4,0,0,1,.75-2.58,2.47,2.47,0,0,1,2-.93A2.07,2.07,0,0,1,69.78,66.14Zm.41,4.55a2.37,2.37,0,0,0,.37-1.36,2.08,2.08,0,0,0-.6-1.68,1.27,1.27,0,0,0-.84-.3,1.15,1.15,0,0,0-1.07.55,2.56,2.56,0,0,0-.35,1.37,2.6,2.6,0,0,0,.35,1.42,1.19,1.19,0,0,0,1.06.53A1.25,1.25,0,0,0,70.19,70.69Z"/><path class="cls-11" d="M76.25,68.54a2.7,2.7,0,0,0,.67-.15.5.5,0,0,0,.36-.47.57.57,0,0,0-.28-.54,1.71,1.71,0,0,0-.81-.15,1.09,1.09,0,0,0-.85.29,1.22,1.22,0,0,0-.24.59H73.49A2.48,2.48,0,0,1,74,66.73a2.77,2.77,0,0,1,2.29-.84,4.18,4.18,0,0,1,1.87.41,1.6,1.6,0,0,1,.81,1.57V70.8c0,.21,0,.45,0,.74a.87.87,0,0,0,.1.45.6.6,0,0,0,.24.19v.25H77.48a1.92,1.92,0,0,1-.11-.37c0-.11,0-.24-.05-.38a3.28,3.28,0,0,1-.8.63,2.38,2.38,0,0,1-1.22.31,2.12,2.12,0,0,1-1.45-.49,1.79,1.79,0,0,1-.56-1.4A1.82,1.82,0,0,1,74.2,69a4.13,4.13,0,0,1,1.48-.41Zm1,.78a1.59,1.59,0,0,1-.32.16,3.46,3.46,0,0,1-.45.12l-.38.07a2.49,2.49,0,0,0-.77.22.77.77,0,0,0-.39.71.74.74,0,0,0,.24.62.88.88,0,0,0,.58.19,1.74,1.74,0,0,0,1-.31,1.35,1.35,0,0,0,.48-1.16Z"/><path class="cls-11" d="M79.74,67.29V66.1h.89V64.32h1.65V66.1h1v1.19h-1v3.37c0,.26,0,.43.1.49s.27.1.61.1h.33v1.24l-.79,0a2.12,2.12,0,0,1-1.62-.41,1.19,1.19,0,0,1-.28-.88V67.29Z"/><path class="cls-11" d="M86.92,68.54a2.7,2.7,0,0,0,.67-.15.5.5,0,0,0,.36-.47.57.57,0,0,0-.28-.54,1.71,1.71,0,0,0-.81-.15,1.09,1.09,0,0,0-.85.29,1.22,1.22,0,0,0-.24.59H84.16a2.48,2.48,0,0,1,.47-1.38,2.77,2.77,0,0,1,2.29-.84,4.18,4.18,0,0,1,1.87.41,1.6,1.6,0,0,1,.81,1.57V70.8c0,.21,0,.45,0,.74a.87.87,0,0,0,.1.45.6.6,0,0,0,.24.19v.25H88.15a1.92,1.92,0,0,1-.11-.37c0-.11,0-.24-.05-.38a3.28,3.28,0,0,1-.8.63,2.38,2.38,0,0,1-1.22.31,2.12,2.12,0,0,1-1.45-.49,1.79,1.79,0,0,1-.56-1.4A1.82,1.82,0,0,1,84.87,69a4.13,4.13,0,0,1,1.48-.41Zm1,.78a1.59,1.59,0,0,1-.32.16,3.46,3.46,0,0,1-.45.12l-.38.07a2.49,2.49,0,0,0-.77.22.77.77,0,0,0-.39.71.74.74,0,0,0,.24.62.88.88,0,0,0,.58.19,1.74,1.74,0,0,0,1-.31,1.35,1.35,0,0,0,.48-1.16Z"/><path class="cls-11" d="M44.84,86.06a3.76,3.76,0,0,1-2.83,1,3.78,3.78,0,0,1-2.83-1,4.68,4.68,0,0,1-1.31-3.56,4.6,4.6,0,0,1,1.31-3.57,3.77,3.77,0,0,1,2.83-1,3.76,3.76,0,0,1,2.83,1,4.6,4.6,0,0,1,1.31,3.57A4.68,4.68,0,0,1,44.84,86.06Zm-1.13-1.31a4.33,4.33,0,0,0,0-4.5,2.05,2.05,0,0,0-1.7-.8,2.1,2.1,0,0,0-1.71.8,3.51,3.51,0,0,0-.64,2.25,3.54,3.54,0,0,0,.64,2.25,2.12,2.12,0,0,0,1.71.79A2.07,2.07,0,0,0,43.71,84.75Z"/><path class="cls-11" d="M52.76,81.12a3.43,3.43,0,0,1,.78,2.43,3.81,3.81,0,0,1-.76,2.57,2.49,2.49,0,0,1-2,.89,2.08,2.08,0,0,1-1.27-.38A2.25,2.25,0,0,1,49,86v3.33H47.34v-8.9h1.6v.94a2.88,2.88,0,0,1,.58-.65,2.1,2.1,0,0,1,1.33-.43A2.53,2.53,0,0,1,52.76,81.12Zm-1.28,1.21a1.18,1.18,0,0,0-1.1-.57,1.23,1.23,0,0,0-1.26.86,3.17,3.17,0,0,0-.18,1.16,1.83,1.83,0,0,0,.6,1.56,1.32,1.32,0,0,0,.84.27,1.22,1.22,0,0,0,1.07-.54,2.48,2.48,0,0,0,.37-1.44A2.43,2.43,0,0,0,51.48,82.33Z"/><path class="cls-11" d="M58.88,80.57a2.58,2.58,0,0,1,1.11.94,3.2,3.2,0,0,1,.51,1.32,8.82,8.82,0,0,1,0,1.27H55.9a1.55,1.55,0,0,0,.67,1.35,1.68,1.68,0,0,0,.92.24,1.41,1.41,0,0,0,.92-.29,1.58,1.58,0,0,0,.35-.44h1.7a2,2,0,0,1-.62,1.15,3.1,3.1,0,0,1-2.4.93,3.5,3.5,0,0,1-2.25-.78,3.11,3.11,0,0,1-1-2.56,3.43,3.43,0,0,1,.88-2.54,3,3,0,0,1,2.28-.89A3.59,3.59,0,0,1,58.88,80.57ZM56.39,82a1.69,1.69,0,0,0-.45,1h2.88a1.39,1.39,0,0,0-.45-1,1.44,1.44,0,0,0-1-.34A1.31,1.31,0,0,0,56.39,82Z"/><path class="cls-11" d="M66.55,80.81a2.12,2.12,0,0,1,.62,1.72v4.3H65.46V82.94a1.78,1.78,0,0,0-.13-.77,1,1,0,0,0-.93-.49,1.15,1.15,0,0,0-1.16.72,2.42,2.42,0,0,0-.16,1v3.46H61.41V80.45H63v.93a3.06,3.06,0,0,1,.61-.71,2.15,2.15,0,0,1,1.3-.38A2.44,2.44,0,0,1,66.55,80.81Z"/><path class="cls-11" d="M71.33,78.19h2l3.06,8.64h-2l-.57-1.78H70.72l-.59,1.78H68.25Zm-.12,5.37h2.21l-1.09-3.4Z"/><path class="cls-11" d="M83.32,83.09a3.27,3.27,0,0,1-2.16.63h-1.8v3.11H77.57V78.19h3.7a3,3,0,0,1,2,.67,2.59,2.59,0,0,1,.76,2.07A2.66,2.66,0,0,1,83.32,83.09ZM82,80a1.47,1.47,0,0,0-1-.29H79.36v2.54H81a1.37,1.37,0,0,0,1-.31,1.25,1.25,0,0,0,.34-1A1.18,1.18,0,0,0,82,80Z"/><path class="cls-11" d="M87.18,86.83h-1.8V78.19h1.8Z"/><path class="cls-11" d="M142.13,63.79H144l-2.94,8.64h-1.71l-2.92-8.64h1.93l1.87,6.56Z"/><path class="cls-11" d="M148.45,66.17a2.61,2.61,0,0,1,1.1.94,3.2,3.2,0,0,1,.51,1.32,8.82,8.82,0,0,1,.05,1.27h-4.65a1.55,1.55,0,0,0,.67,1.35,1.7,1.7,0,0,0,.92.24A1.46,1.46,0,0,0,148,71a1.56,1.56,0,0,0,.34-.44H150a2.09,2.09,0,0,1-.62,1.15,3.1,3.1,0,0,1-2.4.93,3.5,3.5,0,0,1-2.25-.78,3.11,3.11,0,0,1-1-2.56,3.45,3.45,0,0,1,.88-2.55,3.09,3.09,0,0,1,2.29-.88A3.65,3.65,0,0,1,148.45,66.17ZM146,67.61a1.69,1.69,0,0,0-.45,1h2.88a1.42,1.42,0,0,0-.44-1,1.47,1.47,0,0,0-1-.34A1.33,1.33,0,0,0,146,67.61Z"/><path class="cls-11" d="M151.87,65l-1.37-1.75h1.36l.76,1,.77-1h1.35L153.37,65Zm2.64.91h.14v1.71l-.28,0h-.2a1.38,1.38,0,0,0-1.35.66,2.48,2.48,0,0,0-.2,1.13v3.06h-1.68V66h1.6v1.11a3.54,3.54,0,0,1,.67-.87,1.84,1.84,0,0,1,1.22-.39Z"/><path class="cls-11" d="M159.79,66.17a2.55,2.55,0,0,1,1.1.94,3,3,0,0,1,.51,1.32,7.37,7.37,0,0,1,.06,1.27h-4.65a1.54,1.54,0,0,0,.66,1.35,1.74,1.74,0,0,0,.93.24,1.41,1.41,0,0,0,.92-.29,1.58,1.58,0,0,0,.35-.44h1.7a2,2,0,0,1-.62,1.15,3.1,3.1,0,0,1-2.4.93,3.5,3.5,0,0,1-2.25-.78,3.11,3.11,0,0,1-1-2.56,3.45,3.45,0,0,1,.88-2.55,3.05,3.05,0,0,1,2.28-.88A3.59,3.59,0,0,1,159.79,66.17Zm-2.5,1.44a1.75,1.75,0,0,0-.44,1h2.87a1.38,1.38,0,0,0-.44-1,1.47,1.47,0,0,0-1-.34A1.35,1.35,0,0,0,157.29,67.61Z"/><path class="cls-11" d="M161.58,73.65h.3a.5.5,0,0,0,.37-.12.63.63,0,0,0,.13-.47v-7h1.67v7a2.24,2.24,0,0,1-.38,1.43,1.89,1.89,0,0,1-1.5.46h-.59Zm2.47-8.37h-1.67V63.74h1.67Z"/><path class="cls-11" d="M170.79,66.41a2.08,2.08,0,0,1,.62,1.71v4.31H169.7V68.54a1.75,1.75,0,0,0-.13-.77.93.93,0,0,0-.93-.49,1.16,1.16,0,0,0-1.16.72,2.42,2.42,0,0,0-.16,1v3.46h-1.67V66.05h1.62V67a2.83,2.83,0,0,1,.6-.71,2.17,2.17,0,0,1,1.3-.38A2.44,2.44,0,0,1,170.79,66.41Z"/><path class="cls-11" d="M177.13,66.17a2.61,2.61,0,0,1,1.1.94,3.2,3.2,0,0,1,.51,1.32,7.37,7.37,0,0,1,.06,1.27h-4.66a1.55,1.55,0,0,0,.67,1.35,1.7,1.7,0,0,0,.92.24,1.46,1.46,0,0,0,.93-.29,1.56,1.56,0,0,0,.34-.44h1.71a2.09,2.09,0,0,1-.62,1.15,3.1,3.1,0,0,1-2.4.93,3.5,3.5,0,0,1-2.25-.78,3.11,3.11,0,0,1-1-2.56,3.49,3.49,0,0,1,.88-2.55,3.09,3.09,0,0,1,2.29-.88A3.65,3.65,0,0,1,177.13,66.17Zm-2.5,1.44a1.68,1.68,0,0,0-.44,1h2.87a1.42,1.42,0,0,0-.44-1,1.47,1.47,0,0,0-1-.34A1.35,1.35,0,0,0,174.63,67.61Zm3-4.18-1.78,1.75h-1.21l1.13-1.75Z"/><path class="cls-11" d="M186,66h1.69l1,4.6,1-4.6h1.74l-1.85,6.39h-1.72l-1-4.66-1,4.66h-1.74L182.28,66h1.79l1,4.58Z"/><path class="cls-11" d="M196.47,66.17a2.55,2.55,0,0,1,1.1.94,3,3,0,0,1,.51,1.32,7.37,7.37,0,0,1,.06,1.27h-4.65a1.54,1.54,0,0,0,.66,1.35,1.74,1.74,0,0,0,.93.24A1.43,1.43,0,0,0,196,71a1.58,1.58,0,0,0,.35-.44h1.7a2,2,0,0,1-.62,1.15,3.1,3.1,0,0,1-2.4.93,3.5,3.5,0,0,1-2.25-.78,3.11,3.11,0,0,1-1-2.56,3.49,3.49,0,0,1,.87-2.55,3.09,3.09,0,0,1,2.29-.88A3.62,3.62,0,0,1,196.47,66.17ZM194,67.61a1.75,1.75,0,0,0-.44,1h2.87a1.38,1.38,0,0,0-.44-1,1.47,1.47,0,0,0-1-.34A1.35,1.35,0,0,0,194,67.61Z"/><path class="cls-11" d="M204.44,66.81a3.69,3.69,0,0,1,.71,2.34,4.14,4.14,0,0,1-.7,2.47,2.57,2.57,0,0,1-3.26.66,2.5,2.5,0,0,1-.62-.66v.81h-1.65V63.8h1.67v3.07a2.52,2.52,0,0,1,.71-.68,2.11,2.11,0,0,1,1.15-.29A2.38,2.38,0,0,1,204.44,66.81ZM203,70.7a2.38,2.38,0,0,0,.36-1.37,3,3,0,0,0-.18-1.13,1.22,1.22,0,0,0-1.24-.84,1.25,1.25,0,0,0-1.26.82,3.34,3.34,0,0,0-.17,1.14,2.39,2.39,0,0,0,.36,1.36,1.27,1.27,0,0,0,1.12.54A1.18,1.18,0,0,0,203,70.7Z"/><path class="cls-11" d="M211.64,71.64a3.51,3.51,0,0,1-4.91,0,3.95,3.95,0,0,1,0-4.79,3.46,3.46,0,0,1,4.91,0,3.95,3.95,0,0,1,0,4.79Zm-1.34-.92a2.94,2.94,0,0,0,0-3,1.32,1.32,0,0,0-1.12-.51,1.34,1.34,0,0,0-1.13.51,2.94,2.94,0,0,0,0,3,1.32,1.32,0,0,0,1.13.52A1.3,1.3,0,0,0,210.3,70.72Z"/><path class="cls-11" d="M217.58,66h1.79l-2.31,6.39H215.3L213,66h1.88l1.33,4.71Z"/><path class="cls-11" d="M224.48,66.17a2.61,2.61,0,0,1,1.1.94,3.2,3.2,0,0,1,.51,1.32,8.55,8.55,0,0,1,.06,1.27h-4.66a1.55,1.55,0,0,0,.67,1.35,1.7,1.7,0,0,0,.92.24A1.46,1.46,0,0,0,224,71a1.56,1.56,0,0,0,.34-.44h1.71a2.09,2.09,0,0,1-.62,1.15,3.1,3.1,0,0,1-2.4.93,3.5,3.5,0,0,1-2.25-.78,3.11,3.11,0,0,1-1-2.56,3.49,3.49,0,0,1,.88-2.55,3.09,3.09,0,0,1,2.29-.88A3.65,3.65,0,0,1,224.48,66.17ZM222,67.61a1.68,1.68,0,0,0-.44,1h2.87a1.42,1.42,0,0,0-.44-1,1.47,1.47,0,0,0-1-.34A1.35,1.35,0,0,0,222,67.61Zm3-4.18-1.78,1.75H222l1.13-1.75Z"/><path class="cls-11" d="M160.81,82.94a2.7,2.7,0,0,0,.67-.15.49.49,0,0,0,.36-.47.55.55,0,0,0-.28-.54,1.71,1.71,0,0,0-.81-.15,1.09,1.09,0,0,0-.85.29,1.22,1.22,0,0,0-.24.59h-1.61a2.48,2.48,0,0,1,.47-1.38,2.77,2.77,0,0,1,2.29-.84,4.18,4.18,0,0,1,1.87.41,1.61,1.61,0,0,1,.82,1.57V85.2c0,.21,0,.45,0,.74a.87.87,0,0,0,.1.45.6.6,0,0,0,.24.19v.25H162a1.92,1.92,0,0,1-.11-.37c0-.11,0-.24-.05-.38a3.1,3.1,0,0,1-.8.63,2.39,2.39,0,0,1-1.22.32,2.1,2.1,0,0,1-1.44-.5,1.76,1.76,0,0,1-.57-1.4,1.82,1.82,0,0,1,.91-1.71,4.13,4.13,0,0,1,1.48-.41Zm1,.78a1.59,1.59,0,0,1-.32.16,3.46,3.46,0,0,1-.45.12l-.38.07a2.49,2.49,0,0,0-.77.22.77.77,0,0,0-.39.71.73.73,0,0,0,.24.62.88.88,0,0,0,.58.19,1.72,1.72,0,0,0,1-.31,1.34,1.34,0,0,0,.48-1.16Z"/><path class="cls-11" d="M170.33,81.12a3.43,3.43,0,0,1,.78,2.43,3.81,3.81,0,0,1-.77,2.57,2.47,2.47,0,0,1-2,.89,2.11,2.11,0,0,1-1.28-.38,2.63,2.63,0,0,1-.54-.62v3.33h-1.65v-8.9h1.6v.94a2.66,2.66,0,0,1,.58-.65,2.08,2.08,0,0,1,1.33-.43A2.54,2.54,0,0,1,170.33,81.12ZM169,82.33a1.17,1.17,0,0,0-1.1-.57,1.25,1.25,0,0,0-1.26.86,3.17,3.17,0,0,0-.18,1.16,1.83,1.83,0,0,0,.6,1.56,1.36,1.36,0,0,0,.84.27,1.21,1.21,0,0,0,1.07-.54,2.48,2.48,0,0,0,.37-1.44A2.43,2.43,0,0,0,169,82.33Z"/><path class="cls-11" d="M174,86.83h-1.67V78.19H174Z"/><path class="cls-11" d="M177.34,79.68h-1.7V78.14h1.7Zm-1.7.76h1.7v6.39h-1.7Z"/><path class="cls-11" d="M178.93,78.22h1.65v4.66l2.1-2.41h2.08l-2.29,2.38,2.38,4h-2l-1.54-2.73-.69.72v2h-1.65Z"/><path class="cls-11" d="M188.16,82.94a2.49,2.49,0,0,0,.66-.15.49.49,0,0,0,.36-.47.56.56,0,0,0-.27-.54,1.77,1.77,0,0,0-.81-.15,1.07,1.07,0,0,0-.85.29,1.22,1.22,0,0,0-.24.59H185.4a2.4,2.4,0,0,1,.47-1.38,2.74,2.74,0,0,1,2.28-.84,4.15,4.15,0,0,1,1.87.41,1.59,1.59,0,0,1,.82,1.57V85.2c0,.21,0,.45,0,.74a1,1,0,0,0,.1.45.72.72,0,0,0,.25.19v.25h-1.82a1.86,1.86,0,0,1-.1-.37,3.53,3.53,0,0,1-.05-.38,3.28,3.28,0,0,1-.8.63,2.4,2.4,0,0,1-1.23.32,2.12,2.12,0,0,1-1.44-.5,1.76,1.76,0,0,1-.57-1.4,1.82,1.82,0,0,1,.92-1.71,4,4,0,0,1,1.47-.41Zm1,.78a1.66,1.66,0,0,1-.33.16,3.06,3.06,0,0,1-.45.12l-.38.07a2.41,2.41,0,0,0-.76.22.76.76,0,0,0-.4.71.73.73,0,0,0,.24.62.91.91,0,0,0,.59.19,1.74,1.74,0,0,0,1-.31,1.34,1.34,0,0,0,.48-1.16Z"/><path class="cls-11" d="M196.12,82.73a1.42,1.42,0,0,0-.24-.64,1,1,0,0,0-.88-.39,1.15,1.15,0,0,0-1.15.84,3.43,3.43,0,0,0-.17,1.18,3.2,3.2,0,0,0,.17,1.13,1.11,1.11,0,0,0,1.12.79,1,1,0,0,0,.84-.31,1.67,1.67,0,0,0,.3-.82h1.7a2.83,2.83,0,0,1-.55,1.44A2.67,2.67,0,0,1,194.93,87a2.74,2.74,0,0,1-2.27-.91,4.38,4.38,0,0,1,.08-4.93,2.8,2.8,0,0,1,2.22-.91,3.35,3.35,0,0,1,2,.54,2.48,2.48,0,0,1,.9,1.9Z"/><path class="cls-11" d="M203.14,80.57a2.61,2.61,0,0,1,1.1.94,3.2,3.2,0,0,1,.51,1.32,8.82,8.82,0,0,1,.05,1.27h-4.65a1.55,1.55,0,0,0,.67,1.35,1.68,1.68,0,0,0,.92.24,1.46,1.46,0,0,0,.93-.29A1.56,1.56,0,0,0,203,85h1.71a2.09,2.09,0,0,1-.62,1.15,3.13,3.13,0,0,1-2.41.93,3.5,3.5,0,0,1-2.25-.78,3.14,3.14,0,0,1-1-2.56,3.43,3.43,0,0,1,.88-2.54,3.05,3.05,0,0,1,2.28-.89A3.67,3.67,0,0,1,203.14,80.57ZM200.64,82a1.69,1.69,0,0,0-.45,1h2.88a1.39,1.39,0,0,0-.45-1,1.44,1.44,0,0,0-1-.34A1.32,1.32,0,0,0,200.64,82Z"/><path class="cls-11" d="M273,64.71a2.24,2.24,0,0,1,.39,1.32,1.91,1.91,0,0,1-.4,1.27,1.94,1.94,0,0,1-.65.49,1.88,1.88,0,0,1,1,.76,2.25,2.25,0,0,1,.34,1.27,2.52,2.52,0,0,1-.39,1.38,2.3,2.3,0,0,1-.61.67,2.27,2.27,0,0,1-1,.44,5.87,5.87,0,0,1-1.22.12h-3.89V63.79h4.17A2.63,2.63,0,0,1,273,64.71Zm-4.69.58v1.9h2.1a1.75,1.75,0,0,0,.91-.21.83.83,0,0,0,.35-.76.78.78,0,0,0-.46-.8,3.29,3.29,0,0,0-1-.13Zm0,3.33v2.31h2.1a2,2,0,0,0,.87-.16,1.07,1.07,0,0,0,.57-1.07.94.94,0,0,0-.55-.93,2.43,2.43,0,0,0-.87-.15Z"/><path class="cls-11" d="M276.85,72.43h-1.79V63.79h1.79Z"/><path class="cls-11" d="M285.28,65.89h.15v1.71l-.28,0H285a1.39,1.39,0,0,0-1.36.66,2.5,2.5,0,0,0-.19,1.13v3.06h-1.68V66h1.59v1.11a3.53,3.53,0,0,1,.68-.87,1.81,1.81,0,0,1,1.21-.39Z"/><path class="cls-11" d="M290.57,66.17a2.61,2.61,0,0,1,1.1.94,3.2,3.2,0,0,1,.51,1.32,8.82,8.82,0,0,1,.05,1.27h-4.65a1.55,1.55,0,0,0,.67,1.35,1.7,1.7,0,0,0,.92.24,1.46,1.46,0,0,0,.93-.29,1.56,1.56,0,0,0,.34-.44h1.71a2.09,2.09,0,0,1-.62,1.15,3.1,3.1,0,0,1-2.4.93,3.5,3.5,0,0,1-2.25-.78,3.11,3.11,0,0,1-1-2.56,3.45,3.45,0,0,1,.88-2.55,3.09,3.09,0,0,1,2.29-.88A3.65,3.65,0,0,1,290.57,66.17Zm-2.5,1.44a1.69,1.69,0,0,0-.45,1h2.88a1.42,1.42,0,0,0-.44-1,1.47,1.47,0,0,0-1-.34A1.35,1.35,0,0,0,288.07,67.61Z"/><path class="cls-11" d="M298.45,66.72a3.43,3.43,0,0,1,.78,2.43,3.81,3.81,0,0,1-.76,2.57,2.49,2.49,0,0,1-2,.89,2.08,2.08,0,0,1-1.27-.38,2.44,2.44,0,0,1-.55-.62v3.33H293V66h1.6V67a2.67,2.67,0,0,1,.58-.65,2.1,2.1,0,0,1,1.33-.43A2.53,2.53,0,0,1,298.45,66.72Zm-1.28,1.21a1.2,1.2,0,0,0-1.11-.57,1.25,1.25,0,0,0-1.26.86,3.43,3.43,0,0,0-.17,1.16,1.86,1.86,0,0,0,.59,1.56,1.36,1.36,0,0,0,.84.27,1.23,1.23,0,0,0,1.08-.54,2.48,2.48,0,0,0,.37-1.44A2.43,2.43,0,0,0,297.17,67.93Z"/><path class="cls-11" d="M305.74,71.64a3,3,0,0,1-2.46,1,2.93,2.93,0,0,1-2.45-1,3.95,3.95,0,0,1,0-4.79,2.92,2.92,0,0,1,2.45-1,3,3,0,0,1,2.46,1,4,4,0,0,1,0,4.79Zm-1.34-.92a3,3,0,0,0,0-3,1.5,1.5,0,0,0-2.25,0,2.94,2.94,0,0,0,0,3,1.48,1.48,0,0,0,2.25,0Z"/><path class="cls-11" d="M311.29,65.89h.14v1.71l-.28,0H311a1.38,1.38,0,0,0-1.35.66,2.48,2.48,0,0,0-.2,1.13v3.06h-1.68V66h1.6v1.11a3.54,3.54,0,0,1,.67-.87,1.84,1.84,0,0,1,1.22-.39Z"/><path class="cls-11" d="M311.75,67.29V66.1h.89V64.32h1.66V66.1h1v1.19h-1v3.37c0,.26,0,.43.1.49s.27.1.61.1h.32v1.24l-.79,0a2.08,2.08,0,0,1-1.61-.41,1.19,1.19,0,0,1-.29-.88V67.29Z"/><path class="cls-11" d="M318.12,65.28h-1.69V63.74h1.69Zm-1.69.76h1.69v6.39h-1.69Z"/><path class="cls-11" d="M324.89,66.41a2.08,2.08,0,0,1,.63,1.71v4.31h-1.71V68.54a1.73,1.73,0,0,0-.14-.77.93.93,0,0,0-.93-.49,1.16,1.16,0,0,0-1.16.72,2.61,2.61,0,0,0-.16,1v3.46h-1.67V66.05h1.62V67a2.83,2.83,0,0,1,.6-.71,2.18,2.18,0,0,1,1.31-.38A2.43,2.43,0,0,1,324.89,66.41Z"/><path class="cls-11" d="M330.23,66a2,2,0,0,1,1,.93V66h1.63V72.1a3.47,3.47,0,0,1-.41,1.86A3.08,3.08,0,0,1,329.68,75a3.77,3.77,0,0,1-2-.48,1.77,1.77,0,0,1-.85-1.44h1.82a.7.7,0,0,0,.22.42,1.38,1.38,0,0,0,.91.23,1.23,1.23,0,0,0,1.21-.6,3.1,3.1,0,0,0,.2-1.3v-.41a1.89,1.89,0,0,1-.52.61,2,2,0,0,1-1.29.38,2.44,2.44,0,0,1-2-.86,3.51,3.51,0,0,1-.73-2.34,3.87,3.87,0,0,1,.71-2.39,2.32,2.32,0,0,1,2-1A2.38,2.38,0,0,1,330.23,66Zm.57,4.58a2,2,0,0,0,.4-1.41,2.2,2.2,0,0,0-.38-1.38,1.25,1.25,0,0,0-1-.47,1.19,1.19,0,0,0-1.2.82,2.89,2.89,0,0,0-.18,1.09,2.4,2.4,0,0,0,.19,1,1.2,1.2,0,0,0,1.21.8A1.27,1.27,0,0,0,330.8,70.61Z"/><path class="cls-11" d="M281.25,82.94a2.7,2.7,0,0,0,.67-.15.49.49,0,0,0,.36-.47.55.55,0,0,0-.28-.54,1.71,1.71,0,0,0-.81-.15,1.09,1.09,0,0,0-.85.29,1.22,1.22,0,0,0-.24.59h-1.61a2.48,2.48,0,0,1,.47-1.38,2.77,2.77,0,0,1,2.29-.84,4.18,4.18,0,0,1,1.87.41,1.61,1.61,0,0,1,.82,1.57V85.2c0,.21,0,.45,0,.74a.87.87,0,0,0,.1.45.6.6,0,0,0,.24.19v.25h-1.81a1.92,1.92,0,0,1-.11-.37c0-.11,0-.24-.05-.38a3.1,3.1,0,0,1-.8.63,2.39,2.39,0,0,1-1.22.32,2.12,2.12,0,0,1-1.44-.5,1.76,1.76,0,0,1-.57-1.4,1.82,1.82,0,0,1,.91-1.71,4.13,4.13,0,0,1,1.48-.41Zm1,.78a1.59,1.59,0,0,1-.32.16,3.46,3.46,0,0,1-.45.12l-.38.07a2.49,2.49,0,0,0-.77.22A.77.77,0,0,0,280,85a.73.73,0,0,0,.24.62.88.88,0,0,0,.58.19,1.72,1.72,0,0,0,1-.31,1.34,1.34,0,0,0,.48-1.16Z"/><path class="cls-11" d="M290.55,80.81a2.12,2.12,0,0,1,.62,1.72v4.3h-1.71V82.94a1.78,1.78,0,0,0-.13-.77,1,1,0,0,0-.93-.49,1.15,1.15,0,0,0-1.16.72,2.42,2.42,0,0,0-.16,1v3.46h-1.67V80.45H287v.93a3.06,3.06,0,0,1,.61-.71,2.15,2.15,0,0,1,1.3-.38A2.44,2.44,0,0,1,290.55,80.81Z"/><path class="cls-11" d="M295.25,82.94a2.49,2.49,0,0,0,.67-.15.49.49,0,0,0,.36-.47.56.56,0,0,0-.27-.54,1.79,1.79,0,0,0-.82-.15,1.07,1.07,0,0,0-.84.29,1.22,1.22,0,0,0-.24.59H292.5a2.4,2.4,0,0,1,.47-1.38,2.74,2.74,0,0,1,2.28-.84,4.15,4.15,0,0,1,1.87.41,1.59,1.59,0,0,1,.82,1.57V85.2c0,.21,0,.45,0,.74a1,1,0,0,0,.1.45.72.72,0,0,0,.25.19v.25h-1.82a1.36,1.36,0,0,1-.1-.37,3.53,3.53,0,0,1-.05-.38,3.28,3.28,0,0,1-.8.63,2.4,2.4,0,0,1-1.23.32,2.12,2.12,0,0,1-1.44-.5,1.76,1.76,0,0,1-.57-1.4,1.82,1.82,0,0,1,.92-1.71,4,4,0,0,1,1.47-.41Zm1,.78a1.66,1.66,0,0,1-.33.16,3.46,3.46,0,0,1-.45.12l-.38.07a2.41,2.41,0,0,0-.76.22.76.76,0,0,0-.4.71.73.73,0,0,0,.24.62.91.91,0,0,0,.59.19,1.77,1.77,0,0,0,1-.31,1.39,1.39,0,0,0,.48-1.16Z"/><path class="cls-11" d="M301.1,86.83h-1.67V78.19h1.67Z"/><path class="cls-11" d="M303,88.05h.22a2.3,2.3,0,0,0,.46,0,.75.75,0,0,0,.38-.13.89.89,0,0,0,.27-.42.94.94,0,0,0,.11-.38l-2.35-6.67h1.86l1.4,4.71,1.31-4.71h1.78l-2.19,6.28a9,9,0,0,1-1,2.25,1.92,1.92,0,0,1-1.48.44h-.36l-.41,0Zm4.27-10.22-1.78,1.75h-1.21l1.13-1.75Z"/><path class="cls-11" d="M309,81.8V80.44h5v1.39L311,85.45h3.25v1.38h-5.39v-1.3L312,81.8Z"/><path class="cls-11" d="M315.66,88.05h.21a2.43,2.43,0,0,0,.47,0,.71.71,0,0,0,.37-.13,1,1,0,0,0,.28-.42c.08-.21.12-.34.1-.38l-2.34-6.67h1.85l1.4,4.71,1.32-4.71h1.77l-2.19,6.28a8.59,8.59,0,0,1-1,2.25,1.92,1.92,0,0,1-1.48.44h-.36l-.4,0Z"/><rect class="cls-12" x="34.05" y="0.38" width="57.14" height="57.14" rx="14.17"/><path class="cls-13" d="M73.92,22.25l-9.44-4.31a5.11,5.11,0,0,0-3.73,0l-9.44,4.31c-1.11.5-1.11,1.33,0,1.84l9.36,4.26a5.33,5.33,0,0,0,3.89,0l9.36-4.26C75,23.58,75,22.75,73.92,22.25Zm-13.25,15-6.31-2.88a1,1,0,0,0-.84,0l-2.21,1c-1.11.5-1.11,1.33,0,1.84l9.36,4.27a5.43,5.43,0,0,0,3.89,0l9.36-4.27c1.11-.51,1.11-1.34,0-1.84l-2.2-1a1,1,0,0,0-.85,0l-6.31,2.88a5.33,5.33,0,0,1-3.89,0Z"/><path class="cls-14" d="M73.92,28.82l-2-.91a1,1,0,0,0-.84,0L64.25,31A5.56,5.56,0,0,1,61,31l-6.83-3.09a1,1,0,0,0-.83,0l-2,.91c-1.12.51-1.12,1.34,0,1.84l9.35,4.27a5.36,5.36,0,0,0,3.9,0l9.36-4.27C75,30.16,75,29.33,73.92,28.82Z"/><path class="cls-11" d="M10.53,405.92A2.89,2.89,0,0,1,12,407a3.84,3.84,0,0,1,.61,1.39,6.7,6.7,0,0,1,.17,1.43,5.64,5.64,0,0,1-.7,2.92,3.1,3.1,0,0,1-2.89,1.61H5.47v-8.63H9.2A4.5,4.5,0,0,1,10.53,405.92Zm-3.3,1.32v5.63H8.89a1.8,1.8,0,0,0,1.79-1.26A4.51,4.51,0,0,0,11,410a4.14,4.14,0,0,0-.41-2,1.76,1.76,0,0,0-1.65-.7Z"/><path class="cls-11" d="M19.33,413.59a3,3,0,0,1-2.45,1,3,3,0,0,1-2.46-1,3.67,3.67,0,0,1-.81-2.4,3.74,3.74,0,0,1,.81-2.4,3,3,0,0,1,2.46-1,3,3,0,0,1,2.45,1,3.74,3.74,0,0,1,.81,2.4A3.67,3.67,0,0,1,19.33,413.59ZM18,412.67a3,3,0,0,0,0-3,1.49,1.49,0,0,0-2.26,0,3,3,0,0,0,0,3,1.49,1.49,0,0,0,2.26,0Z"/><path class="cls-11" d="M26.71,408.67a3.41,3.41,0,0,1,.78,2.43,3.83,3.83,0,0,1-.77,2.57,2.46,2.46,0,0,1-2,.89,2.05,2.05,0,0,1-1.28-.39,2.56,2.56,0,0,1-.54-.61v3.33H21.29V408h1.6v.94a2.54,2.54,0,0,1,.58-.66,2.13,2.13,0,0,1,1.33-.42A2.54,2.54,0,0,1,26.71,408.67Zm-1.29,1.2a1.17,1.17,0,0,0-1.1-.56,1.25,1.25,0,0,0-1.26.86,3.17,3.17,0,0,0-.18,1.16,1.83,1.83,0,0,0,.6,1.56,1.35,1.35,0,0,0,.84.26,1.22,1.22,0,0,0,1.07-.53,2.84,2.84,0,0,0,0-2.75Z"/><path class="cls-11" d="M32.21,407.84h.15v1.71l-.28,0h-.2a1.4,1.4,0,0,0-1.36.65,2.58,2.58,0,0,0-.19,1.14v3.05H28.65V408h1.59v1.11a3.17,3.17,0,0,1,.68-.87,1.82,1.82,0,0,1,1.21-.4Z"/><path class="cls-11" d="M35.86,410.49a2.49,2.49,0,0,0,.67-.15.5.5,0,0,0,.36-.47.56.56,0,0,0-.27-.54,1.77,1.77,0,0,0-.81-.15,1,1,0,0,0-.85.29,1.18,1.18,0,0,0-.24.59H33.11a2.4,2.4,0,0,1,.47-1.38,2.74,2.74,0,0,1,2.28-.85,4,4,0,0,1,1.87.42,1.59,1.59,0,0,1,.82,1.57v2.93c0,.2,0,.45,0,.74a.91.91,0,0,0,.1.44.63.63,0,0,0,.25.2v.24H37.09A2,2,0,0,1,37,414a3.42,3.42,0,0,1-.05-.39,3.31,3.31,0,0,1-.8.64,2.39,2.39,0,0,1-1.23.31,2.11,2.11,0,0,1-1.44-.49,1.77,1.77,0,0,1-.57-1.41,1.82,1.82,0,0,1,.92-1.7,4,4,0,0,1,1.47-.41Zm1,.78a2.49,2.49,0,0,1-.33.16,2.46,2.46,0,0,1-.45.11l-.38.07a2.66,2.66,0,0,0-.76.23.75.75,0,0,0-.4.71.74.74,0,0,0,.24.62.91.91,0,0,0,.59.19,1.78,1.78,0,0,0,1-.32,1.37,1.37,0,0,0,.48-1.15Z"/><path class="cls-11" d="M43.94,408h1.8l-2.31,6.38H41.67L39.38,408h1.87l1.33,4.71Z"/><path class="cls-11" d="M49.21,410.49a2.59,2.59,0,0,0,.67-.15.5.5,0,0,0,.36-.47.55.55,0,0,0-.28-.54,1.71,1.71,0,0,0-.81-.15,1.05,1.05,0,0,0-.85.29,1.1,1.1,0,0,0-.23.59H46.45a2.48,2.48,0,0,1,.48-1.38,2.74,2.74,0,0,1,2.28-.85,4.05,4.05,0,0,1,1.87.42,1.59,1.59,0,0,1,.82,1.57v2.93c0,.2,0,.45,0,.74a.8.8,0,0,0,.1.44.57.57,0,0,0,.25.2v.24H50.44a2.07,2.07,0,0,1-.11-.36,3.63,3.63,0,0,1,0-.39,3.18,3.18,0,0,1-.81.64,2.36,2.36,0,0,1-1.22.31,2.11,2.11,0,0,1-1.44-.49,1.77,1.77,0,0,1-.57-1.41,1.81,1.81,0,0,1,.91-1.7,4.13,4.13,0,0,1,1.48-.41Zm1,.78a1.91,1.91,0,0,1-.32.16,2.46,2.46,0,0,1-.45.11l-.38.07a2.75,2.75,0,0,0-.77.23.76.76,0,0,0-.39.71.74.74,0,0,0,.24.62.91.91,0,0,0,.59.19,1.78,1.78,0,0,0,1-.32,1.34,1.34,0,0,0,.47-1.15Z"/><rect class="cls-15" y="335.68" width="57.14" height="57.14" rx="14.17"/><path class="cls-11" d="M89.19,413.61a4.5,4.5,0,0,1-5.66,0A4.7,4.7,0,0,1,82.22,410a4.58,4.58,0,0,1,1.31-3.56,4.47,4.47,0,0,1,5.66,0A4.58,4.58,0,0,1,90.5,410,4.7,4.7,0,0,1,89.19,413.61Zm-1.13-1.32a4.32,4.32,0,0,0,0-4.49,2.05,2.05,0,0,0-1.7-.8,2.12,2.12,0,0,0-1.71.79A3.49,3.49,0,0,0,84,410a3.45,3.45,0,0,0,.64,2.25,2.09,2.09,0,0,0,1.71.79A2,2,0,0,0,88.06,412.29Z"/><path class="cls-11" d="M91.38,409.35V408h5.05v1.39L93.29,413h3.25v1.37H91.15v-1.3l3.17-3.72Z"/><path class="cls-11" d="M101.68,408h1.79l-2.31,6.38H99.4L97.11,408H99l1.33,4.71Z"/><path class="cls-11" d="M107.8,408.09a1.91,1.91,0,0,1,.73.71v-3.05h1.7v8.62H108.6v-.88a2.27,2.27,0,0,1-.81.82,2.21,2.21,0,0,1-1.14.26,2.38,2.38,0,0,1-1.88-.9,3.5,3.5,0,0,1-.77-2.33,4,4,0,0,1,.76-2.57,2.46,2.46,0,0,1,2-.94A2,2,0,0,1,107.8,408.09Zm.41,4.55a2.31,2.31,0,0,0,.37-1.37,2.09,2.09,0,0,0-.59-1.67,1.24,1.24,0,0,0-.85-.31,1.18,1.18,0,0,0-1.07.56,3,3,0,0,0,0,2.79,1.17,1.17,0,0,0,1,.53A1.23,1.23,0,0,0,108.21,412.64Z"/><path class="cls-11" d="M113.41,408v3.85a2,2,0,0,0,.13.82.89.89,0,0,0,.89.48,1.17,1.17,0,0,0,1.17-.69,2.69,2.69,0,0,0,.16-1V408h1.69v6.38h-1.62v-.9l-.12.18a1,1,0,0,1-.22.25,2.27,2.27,0,0,1-.76.49,2.72,2.72,0,0,1-.85.12,1.91,1.91,0,0,1-1.91-1,3.91,3.91,0,0,1-.27-1.65V408Z"/><path class="cls-11" d="M120.37,412.33a1.09,1.09,0,0,0,.23.64,1.56,1.56,0,0,0,1.15.33,1.74,1.74,0,0,0,.79-.15.46.46,0,0,0,.29-.43.49.49,0,0,0-.23-.43,9.41,9.41,0,0,0-1.75-.51,3.66,3.66,0,0,1-1.54-.67,1.49,1.49,0,0,1-.44-1.15,2,2,0,0,1,.69-1.52,2.83,2.83,0,0,1,2-.63,3.63,3.63,0,0,1,2,.47,2,2,0,0,1,.86,1.65h-1.67a1,1,0,0,0-.18-.51,1.17,1.17,0,0,0-.94-.34,1.41,1.41,0,0,0-.78.17.51.51,0,0,0-.23.4.44.44,0,0,0,.25.42,10.65,10.65,0,0,0,1.74.46,3.28,3.28,0,0,1,1.5.71,1.64,1.64,0,0,1,.49,1.2,2,2,0,0,1-.71,1.55,3.33,3.33,0,0,1-2.19.6,3.28,3.28,0,0,1-2.23-.64,2.08,2.08,0,0,1-.71-1.62Zm.53-5.2-1.37-1.76h1.36l.76,1,.76-1h1.36l-1.37,1.76Z"/><path class="cls-11" d="M128.65,405.37l-1.78,1.76h-1.21l1.13-1.76ZM125.77,408h1.7v6.38h-1.7Z"/><rect class="cls-16" x="76.4" y="335.68" width="57.14" height="57.14" rx="14.17"/><path class="cls-11" d="M169.39,410.64a3.32,3.32,0,0,1-2.17.63h-1.8v3.1h-1.79v-8.63h3.71a3,3,0,0,1,2,.66,2.62,2.62,0,0,1,.76,2.07A2.73,2.73,0,0,1,169.39,410.64ZM168,407.52a1.46,1.46,0,0,0-1-.28h-1.63v2.54h1.63a1.37,1.37,0,0,0,1-.31,1.28,1.28,0,0,0,.34-1A1.21,1.21,0,0,0,168,407.52Z"/><path class="cls-11" d="M176.78,413.59a3.51,3.51,0,0,1-4.91,0,3.67,3.67,0,0,1-.81-2.4,3.74,3.74,0,0,1,.81-2.4,3.49,3.49,0,0,1,4.91,0,3.74,3.74,0,0,1,.81,2.4A3.67,3.67,0,0,1,176.78,413.59Zm-1.33-.92a3,3,0,0,0,0-3,1.49,1.49,0,0,0-2.26,0,3,3,0,0,0,0,3,1.49,1.49,0,0,0,2.26,0Z"/><path class="cls-11" d="M183.38,408a1.94,1.94,0,0,1,.79.63,1.72,1.72,0,0,1,.32.74,8.77,8.77,0,0,1,.06,1.23v3.75h-1.71v-3.89a1.8,1.8,0,0,0-.17-.83.87.87,0,0,0-.86-.44,1.17,1.17,0,0,0-1,.44,2,2,0,0,0-.34,1.26v3.46H178.8v-8.6h1.67v3a2,2,0,0,1,.84-.77,2.28,2.28,0,0,1,1-.22A2.83,2.83,0,0,1,183.38,408Z"/><path class="cls-11" d="M186.37,415.6h.21a2.43,2.43,0,0,0,.47,0,.81.81,0,0,0,.37-.13,1,1,0,0,0,.28-.42,1.14,1.14,0,0,0,.11-.39L185.46,408h1.86l1.39,4.71L190,408h1.77l-2.19,6.28a8.59,8.59,0,0,1-1,2.25,1.92,1.92,0,0,1-1.48.44h-.36a3.36,3.36,0,0,1-.4,0Z"/><path class="cls-11" d="M198.24,408.75a3.68,3.68,0,0,1,.72,2.35,4,4,0,0,1-.71,2.46,2.26,2.26,0,0,1-2,1,2.33,2.33,0,0,1-1.28-.31,2.67,2.67,0,0,1-.62-.66v.8h-1.65v-8.62h1.67v3.07a2.49,2.49,0,0,1,.7-.68,2.08,2.08,0,0,1,1.16-.29A2.37,2.37,0,0,1,198.24,408.75Zm-1.39,3.89a2.34,2.34,0,0,0,.36-1.37,3,3,0,0,0-.18-1.12,1.23,1.23,0,0,0-1.24-.84,1.25,1.25,0,0,0-1.26.82,3,3,0,0,0-.17,1.14,2.42,2.42,0,0,0,.36,1.36,1.27,1.27,0,0,0,1.12.54A1.16,1.16,0,0,0,196.85,412.64Z"/><rect class="cls-17" x="152.44" y="335.68" width="57.14" height="57.14" rx="14.17"/><path class="cls-11" d="M259.11,406.66a2.12,2.12,0,0,1,.4,1.31,1.92,1.92,0,0,1-.4,1.28,2.1,2.1,0,0,1-.66.49,1.94,1.94,0,0,1,1,.76,2.33,2.33,0,0,1,.34,1.27,2.47,2.47,0,0,1-.39,1.37,2.35,2.35,0,0,1-.61.68,2.44,2.44,0,0,1-1,.44,6.59,6.59,0,0,1-1.22.11H252.7v-8.63h4.18A2.61,2.61,0,0,1,259.11,406.66Zm-4.69.58v1.9h2.1a1.79,1.79,0,0,0,.92-.21.84.84,0,0,0,.35-.76.78.78,0,0,0-.47-.8,3.2,3.2,0,0,0-1-.13Zm0,3.33v2.3h2.1a2.08,2.08,0,0,0,.88-.15,1.1,1.1,0,0,0,.56-1.08.92.92,0,0,0-.55-.92,2,2,0,0,0-.86-.15Z"/><path class="cls-11" d="M263,414.37h-1.79v-8.63H263Z"/><rect class="cls-18" x="229.19" y="335.68" width="57.14" height="57.14" rx="14.17"/><path class="cls-11" d="M327.36,414.37h-1.79v-8.63h1.79Z"/><path class="cls-11" d="M334.24,413.59a3.51,3.51,0,0,1-4.91,0,3.67,3.67,0,0,1-.81-2.4,3.74,3.74,0,0,1,.81-2.4,3.49,3.49,0,0,1,4.91,0,3.74,3.74,0,0,1,.81,2.4A3.67,3.67,0,0,1,334.24,413.59Zm-1.33-.92a3,3,0,0,0,0-3,1.49,1.49,0,0,0-2.26,0,3,3,0,0,0,0,3,1.49,1.49,0,0,0,2.26,0Z"/><path class="cls-11" d="M342.66,405.74v1.53h-2.59v7.1h-1.81v-7.1h-2.6v-1.53Z"/><rect class="cls-19" x="305.23" y="335.68" width="57.14" height="57.14" rx="14.17"/><path class="cls-20" d="M287.88,24.26V37.42a.5.5,0,0,0,.5.5h6.08a.5.5,0,0,0,.5-.5V24.26a.5.5,0,0,0-.5-.5h-6.08A.5.5,0,0,0,287.88,24.26Zm8.6-6.58a.5.5,0,0,0-.5.5V37.92h7.59a.5.5,0,0,0,.5-.5V18.18a.5.5,0,0,0-.5-.5ZM311.67,27.8h-6.09a.5.5,0,0,0-.5.5v9.12a.5.5,0,0,0,.5.5h6.09a.5.5,0,0,0,.5-.5V28.3a.5.5,0,0,0-.5-.5Z"/><rect class="cls-21" x="136.22" y="134.09" width="89.79" height="89.79" rx="22.27"/><g id="Vrstva_1-2-2" data-name="Vrstva 1-2"><path class="cls-22" d="M206.82,167.05a11.32,11.32,0,1,0-19-10.64,18.38,18.38,0,0,0-25.3,5.09l5.77,2.36c.24-.28.48-.55.74-.81a12.32,12.32,0,0,1,17.42,0h0l7.15-4.73a5.3,5.3,0,1,1,2.55,5.27L189.47,168a12.33,12.33,0,0,1-8,15.5c-.28.09-.56.17-.85.24v7.52a7.42,7.42,0,1,1-5.8,0v-7.54a12.32,12.32,0,0,1-9.4-12,12.55,12.55,0,0,1,.29-2.67l-5.65-2.31A18.39,18.39,0,0,0,169,187.89c-.26.22-.51.45-.76.7a13.47,13.47,0,1,0,19,0c-.24-.24-.5-.48-.76-.7a18.33,18.33,0,0,0,9.59-16.13c0-.59,0-1.17-.08-1.75a11.35,11.35,0,0,0,10.81-3Z"/></g><path class="cls-23" d="M180.77,101.58l-9.05,9.48a.48.48,0,0,0,0,.68l1.09,1.15a.51.51,0,0,0,.36.15.49.49,0,0,0,.36-.15l7.6-8,7.6,8a.51.51,0,0,0,.36.15.49.49,0,0,0,.36-.15l1.1-1.15a.51.51,0,0,0,.14-.34.48.48,0,0,0-.14-.34l-9.06-9.49a.5.5,0,0,0-.36-.16.56.56,0,0,0-.36.17Z"/><circle class="cls-24" cx="181.13" cy="117.37" r="1.83"/><circle class="cls-25" cx="181.13" cy="112.05" r="1.83"/><path class="cls-26" d="M180.8,302.94l-9,9.48a.5.5,0,0,0-.15.34.46.46,0,0,0,.15.34l1.09,1.15a.49.49,0,0,0,.72,0l7.6-8,7.6,8a.52.52,0,0,0,.36.16.5.5,0,0,0,.36-.16l1.1-1.15a.48.48,0,0,0,0-.68l-9.06-9.49a.5.5,0,0,0-.36-.16.58.58,0,0,0-.37.17Z"/><circle class="cls-27" cx="181.17" cy="318.74" r="1.83"/><circle class="cls-28" cx="181.17" cy="313.42" r="1.83"/><path class="cls-29" d="M18.91,381.34a.22.22,0,0,0-.37.14c.07,1.42.1,1.91.37,1.91h3.63c.29,0,.22-.75.22-1.45C20.5,382,19.67,382.09,18.91,381.34Z"/><path class="cls-30" d="M38.22,381.34a.22.22,0,0,1,.37.14c-.06,1.42-.09,1.91-.36,1.91H34.6c-.29,0-.22-.75-.22-1.45C36.64,382,37.47,382.09,38.22,381.34Z"/><path class="cls-31" d="M37,358.08H20.13A2.12,2.12,0,0,0,18,360.19h0v18.2A2.64,2.64,0,0,0,20.66,381H36.48a2.65,2.65,0,0,0,2.64-2.64v-18.2h0A2.12,2.12,0,0,0,37,358.08ZM22.37,378.65a1.59,1.59,0,1,1,1.45-1.46A1.6,1.6,0,0,1,22.37,378.65Zm5-5.14H20.93a1.08,1.08,0,0,1-1.07-1.07v-7.62a1.08,1.08,0,0,1,1.07-1.07h6.45a.27.27,0,0,1,.27.26v9.23A.27.27,0,0,1,27.38,373.51ZM35,378.65a1.59,1.59,0,1,1,1.45-1.46A1.59,1.59,0,0,1,35,378.65Zm2.24-6.2a1.06,1.06,0,0,1-1.05,1.06H29.76a.27.27,0,0,1-.27-.27V364a.27.27,0,0,1,.27-.26h6.46a1,1,0,0,1,1.05,1.05Zm-1-10.68H20.85a.93.93,0,1,1,0-1.85H36.28a.93.93,0,1,1,0,1.85Z"/><path class="cls-32" d="M47.91,348.62c-.49-1.1-1.75-3.29-3.57-3.29H40.06c-1.83,0-3,2.12-3.58,3.29a4.13,4.13,0,0,0-1.71,3v2.71a.29.29,0,0,0,.22.28,40,40,0,0,0,7.21.36,40.23,40.23,0,0,0,7.21-.36.3.3,0,0,0,.22-.28v-2.71A3.85,3.85,0,0,0,47.91,348.62Zm-8.07-2.44h4.72c1.44,0,2.21,2.15,2.21,2.5H37.63C37.63,348.33,38.59,346.18,39.84,346.18Zm-2.79,7.28a1.15,1.15,0,1,1,1.15-1.14A1.14,1.14,0,0,1,37.05,353.46Zm7.72-1.13a.58.58,0,0,1-.57.57h-4a.57.57,0,0,1-.57-.57h0a.57.57,0,0,1,.57-.58h4a.58.58,0,0,1,.57.58Zm2.57,1.14a1.15,1.15,0,1,1,1.14-1.14A1.14,1.14,0,0,1,47.34,353.47Z"/><path class="cls-33" d="M38.77,355.33c-1.71,0-3.43-.18-3.43-.18,0,.6,0,1,.21,1h3C38.82,356.18,38.77,355.71,38.77,355.33Z"/><path class="cls-34" d="M45.63,355.33c1.71,0,3.43-.18,3.43-.18,0,.57.07,1-.18,1H45.81C45.57,356.18,45.63,355.7,45.63,355.33Z"/><path class="cls-35" d="M16.21,347.44H14.58V350h1.63a1.42,1.42,0,0,0,1-.31,1.28,1.28,0,0,0,.34-1,1.18,1.18,0,0,0-.34-1A1.47,1.47,0,0,0,16.21,347.44Z"/><path class="cls-36" d="M18.64,343.51h-6.1a3.6,3.6,0,0,0-3.6,3.6v6.1a3.61,3.61,0,0,0,3.6,3.61h6.1a3.61,3.61,0,0,0,3.6-3.61v-6.1A3.6,3.6,0,0,0,18.64,343.51Zm-.09,7.33a3.27,3.27,0,0,1-2.17.64h-1.8v3.1H12.79v-8.64H16.5a3,3,0,0,1,2,.67,2.62,2.62,0,0,1,.77,2.07A2.69,2.69,0,0,1,18.55,350.84Z"/><path class="cls-37" d="M122,374.55a.84.84,0,0,1-.36-.69V362.78a2.45,2.45,0,0,0-4.89,0v11.08a.87.87,0,0,1-.36.69,5,5,0,1,0,5.61,0Zm-2.8,7.3a3.07,3.07,0,0,1-1-5.94.41.41,0,0,0,.28-.39v-7.45a.76.76,0,0,1,1.51,0v7.45a.41.41,0,0,0,.28.39,3.1,3.1,0,0,1,2,2.88,3,3,0,0,1-3,3.06Z"/><path class="cls-38" d="M111.68,349.21A5.43,5.43,0,0,0,108,347.8h-.29a5.81,5.81,0,0,0-1.94-3,6.88,6.88,0,0,0-8.6.35,5.85,5.85,0,0,0-1.86,4.21,4.61,4.61,0,0,0-3.51,4.4,4.47,4.47,0,0,0,4,4.44l-1.25,1.67a.73.73,0,0,0-.14.57.75.75,0,0,0,.31.5.77.77,0,0,0,.44.14.79.79,0,0,0,.65-.3l1.91-2.58h1.81l-2.85,3.87a.75.75,0,0,0-.15.55.74.74,0,0,0,.3.51.88.88,0,0,0,1.16-.19l3.48-4.74h1.79L102,359.86a.76.76,0,0,0,.17,1.07.77.77,0,0,0,.44.14.79.79,0,0,0,.65-.3l1.91-2.58H107l-2.85,3.87a.75.75,0,0,0-.15.55.72.72,0,0,0,.3.5.9.9,0,0,0,.46.15.8.8,0,0,0,.65-.31L109,358a5.25,5.25,0,0,0,3-1.78,5.38,5.38,0,0,0,1.28-3.46,4.9,4.9,0,0,0-1.56-3.59Z"/><path class="cls-39" d="M94.11,365.58a8.39,8.39,0,0,0-6.28,13.95l.12.13a1,1,0,0,0,1.39,0,6.47,6.47,0,0,1,9.54,0,1,1,0,0,0,1.39,0l.12-.13a8.39,8.39,0,0,0-6.28-13.95Zm-.52,1.72a.52.52,0,1,1,1,0v1.35a.52.52,0,0,1-1,0Zm-4.8,7.19H87.44a.52.52,0,0,1-.52-.52.52.52,0,0,1,.52-.53h1.35a.53.53,0,0,1,.53.53A.52.52,0,0,1,88.79,374.49Zm1.93-3.91a.53.53,0,0,1-.74,0l-1-.95a.53.53,0,0,1,.75-.75l1,1A.53.53,0,0,1,90.72,370.58Zm6,1.29L95,374.7a1.12,1.12,0,0,1-.27.26,1.13,1.13,0,0,1-1.57-.26,1.14,1.14,0,0,1,.26-1.58l2.83-1.78a.41.41,0,0,1,.44,0A.38.38,0,0,1,96.74,371.87Zm1.5-1.29a.52.52,0,0,1-.74-.74l1-1a.54.54,0,0,1,.75,0,.53.53,0,0,1,0,.74Zm2.54,3.91H99.43a.52.52,0,0,1-.53-.52.53.53,0,0,1,.53-.53h1.35a.52.52,0,0,1,.52.53A.52.52,0,0,1,100.78,374.49Z"/><path class="cls-40" d="M180.9,374.38a3.69,3.69,0,1,1-2.58,1.08,3.62,3.62,0,0,1,2.58-1.08m0-1.57a5.23,5.23,0,1,0,5.22,5.23A5.25,5.25,0,0,0,180.9,372.81Zm10.89-7.47a1.79,1.79,0,1,0-1.8-1.79A1.78,1.78,0,0,0,191.79,365.34Zm3.74,9a3.66,3.66,0,1,1-3.65,3.66,3.67,3.67,0,0,1,3.65-3.66m0-1.57a5.23,5.23,0,1,0,5.22,5.23A5.25,5.25,0,0,0,195.53,372.81Z"/><path class="cls-41" d="M194.48,368.93H191.8l-1.65-3.36a1.82,1.82,0,0,0-1.52-.89,1.87,1.87,0,0,0-1.26.52l-4,3.87a1.82,1.82,0,0,0-.52,1.25,1.67,1.67,0,0,0,1,1.52c2.54,1.47,3.44,1.63,3.44,2.36v3.69a.9.9,0,1,0,1.79,0v-5c0-.74-1.7-1.34-2.7-2.12l2.73-2.89c1.05,1.6,1.53,2.89,2.13,2.89h3.21a.9.9,0,1,0,0-1.8Z"/><path class="cls-42" d="M168.71,362l-3.59,2.59a1,1,0,0,0-.28.74.85.85,0,0,0,.25.66,1,1,0,0,0,.72.33,1.62,1.62,0,0,0,.84-.45l3.69-2.73a1,1,0,0,0,.31-.72l.48-2.78-2.42-2.47Z"/><circle class="cls-43" cx="172.6" cy="346.49" r="1.98"/><path class="cls-44" d="M176.63,367.14l-.81-6.22a.94.94,0,0,0-.22-.5l-3-3.64v-6.34c0-.6-.33-.84-1-.84h-2a.85.85,0,0,0-.41.12l-3.6,1.68a1.61,1.61,0,0,0-.81,1.52v3.46a1,1,0,1,0,1.93,0V353.3a.42.42,0,0,1,.24-.38l1.7-.87v4a.83.83,0,0,0,.25.59l4.89,5a.46.46,0,0,1,.12.24l.75,5.54a1,1,0,0,0,1,.84h.1a1,1,0,0,0,.85-1.11Z"/><path class="cls-45" d="M178.1,355.13l-5-5.09v2.78l3.66,3.71a1,1,0,0,0,1.37,0,.89.89,0,0,0,.29-.65,1.14,1.14,0,0,0-.29-.75Z"/><path class="cls-46" d="M274.51,346.49H269.3a.64.64,0,1,0,0,1.28h3.61l-6,6.12-3.7-3.62a.63.63,0,0,0-.46-.18.67.67,0,0,0-.46.18l-6.3,6.16a.66.66,0,0,0-.18.46.57.57,0,0,0,.18.44.68.68,0,0,0,.46.19.66.66,0,0,0,.46-.19l5.84-5.71,3.7,3.62a.68.68,0,0,0,.46.19.64.64,0,0,0,.46-.19l6.44-6.54v3.52a.65.65,0,0,0,1.3,0v-5.09a.65.65,0,0,0-.65-.64Z"/><path class="cls-47" d="M238.28,361.84v9a.34.34,0,0,0,.34.34h4.15a.34.34,0,0,0,.34-.34v-9a.34.34,0,0,0-.34-.34h-4.15A.34.34,0,0,0,238.28,361.84Zm5.86-4.48a.34.34,0,0,0-.34.34v13.44H249a.34.34,0,0,0,.34-.34V357.7a.34.34,0,0,0-.34-.34Zm10.34,6.89h-4.14a.34.34,0,0,0-.34.34v6.21a.34.34,0,0,0,.34.34h4.14a.34.34,0,0,0,.34-.34v-6.21a.34.34,0,0,0-.34-.34Z"/><path class="cls-48" d="M269.64,360.4a4.64,4.64,0,0,0-4.8,4.46c0,3.47,4.8,9.42,4.8,9.42s4.81-5.95,4.81-9.42A4.65,4.65,0,0,0,269.64,360.4Zm0,6.37a1.57,1.57,0,1,1,1.57-1.56A1.56,1.56,0,0,1,269.64,366.77Z"/><path class="cls-49" d="M261.94,368.26a.33.33,0,0,0-.52.3v13.63a.36.36,0,0,0,.15.3l3,2.16a.33.33,0,0,0,.52-.3V370.73a.4.4,0,0,0-.15-.31Z"/><path class="cls-50" d="M265.93,371.32v13.06a.34.34,0,0,0,.52.3l2.67-1.58a.39.39,0,0,0,.15-.31v-6.57A52,52,0,0,1,265.93,371.32Z"/><path class="cls-51" d="M270.11,376.1v6.65a.36.36,0,0,0,.15.3l2.67,1.59a.33.33,0,0,0,.52-.3V371.17A53.35,53.35,0,0,1,270.11,376.1Z"/><path class="cls-52" d="M277.44,368.26l-3,2.19a.38.38,0,0,0-.15.3v13.62a.33.33,0,0,0,.52.3l3-2.19a.37.37,0,0,0,.15-.3V368.56A.34.34,0,0,0,277.44,368.26Z"/><path class="cls-53" d="M343.75,343.88a.89.89,0,0,0-.64-.25.92.92,0,0,0-.65.26.86.86,0,0,0-.28.63.9.9,0,0,0,.28.64,9.62,9.62,0,0,1,0,14.18.86.86,0,0,0,0,1.27.91.91,0,0,0,.65.26.92.92,0,0,0,.64-.25,11.37,11.37,0,0,0,3.69-8.37h0a11.39,11.39,0,0,0-3.69-8.36Z"/><path class="cls-54" d="M340,346.86a.86.86,0,0,0-.59-.23.9.9,0,0,0-.59.22.77.77,0,0,0-.26.58.74.74,0,0,0,.25.57,5.81,5.81,0,0,1,0,8.48.76.76,0,0,0-.25.58.75.75,0,0,0,.26.57.84.84,0,0,0,.59.23.91.91,0,0,0,.59-.23,7.4,7.4,0,0,0,2.35-5.39h0a7.38,7.38,0,0,0-2.35-5.38Zm-15.09-1.7a.86.86,0,0,0,.28-.64.89.89,0,0,0-.27-.63,1,1,0,0,0-.66-.26.93.93,0,0,0-.64.25,11.36,11.36,0,0,0-3.68,8.37h0a11.38,11.38,0,0,0,3.68,8.36.89.89,0,0,0,.64.25,1,1,0,0,0,.66-.26.89.89,0,0,0,.27-.63.9.9,0,0,0-.28-.64,9.62,9.62,0,0,1,0-14.18Z"/><path class="cls-55" d="M328.56,348a.74.74,0,0,0,.25-.57.77.77,0,0,0-.26-.58.85.85,0,0,0-.58-.22.86.86,0,0,0-.6.23,7.38,7.38,0,0,0-2.35,5.38h0a7.36,7.36,0,0,0,2.35,5.38.86.86,0,0,0,.6.23.83.83,0,0,0,.58-.23.75.75,0,0,0,.26-.57.76.76,0,0,0-.25-.58,5.81,5.81,0,0,1,0-8.48Zm5.1.61a3.18,3.18,0,0,0-.93,6.22v15.43a.93.93,0,0,0,1.86,0V354.83a3.18,3.18,0,0,0-.93-6.22Z"/><path class="cls-56" d="M343.83,376.06l.69,8.53a.87.87,0,0,0,.86.86h4.14a.87.87,0,0,0,.86-.86l.68-8.53Zm1.81,7.77-.2-6.83H346l.21,6.83Zm2.06,0h-.53V377h.53Zm1.53,0h-.54l.2-6.83h.54Zm1.38-8.83h-1.06l-.77-.67a.58.58,0,0,0-.39-.15h-1.9a.54.54,0,0,0-.39.15l-.78.67h-1.05c-.52,0-.88.25-.88.76h8.1C351.49,375.25,351.12,375,350.61,375Z"/><path class="cls-57" d="M326.34,368a3.51,3.51,0,0,0-7,.17v16h-3.52a.38.38,0,0,0-.39.38v1.25a.38.38,0,0,0,.39.38h8.42a.38.38,0,0,0,.38-.38v-1.25a.38.38,0,0,0-.38-.38h-3.58v-16A2.19,2.19,0,0,1,325,368a3.51,3.51,0,0,0-2.95,3.27.24.24,0,0,0,.07.18.25.25,0,0,0,.18.08l6.72.07a.25.25,0,0,0,.19-.08.22.22,0,0,0,.06-.19A3.7,3.7,0,0,0,326.34,368Z"/></g></g></svg>