<svg xmlns="http://www.w3.org/2000/svg" xmlns:xlink="http://www.w3.org/1999/xlink" viewBox="0 0 74.63 57.14"><defs><style>.cls-1,.cls-2{opacity:0.5;}.cls-1{fill:url(#Nepojmenovaný_přechod_7);}.cls-2{fill:url(#Nepojmenovaný_přechod_7-2);}.cls-3{fill:url(#Nepojmenovaný_přechod_7-3);}.cls-4{fill:url(#Nové_políčko_přechodu_2);}</style><linearGradient id="Nepojmenovaný_přechod_7" x1="19" y1="6.85" x2="62.43" y2="50.28" gradientUnits="userSpaceOnUse"><stop offset="0" stop-color="#f6f6f6"/><stop offset="1" stop-color="#dadada"/></linearGradient><linearGradient id="Nepojmenovaný_přechod_7-2" x1="38.79" y1="12.72" x2="70.48" y2="44.41" xlink:href="#Nepojmenovaný_přechod_7"/><linearGradient id="Nepojmenovaný_přechod_7-3" x1="4.15" y1="4.15" x2="52.99" y2="52.99" xlink:href="#Nepojmenovaný_přechod_7"/><linearGradient id="Nové_políčko_přechodu_2" x1="17.54" y1="19.6" x2="39.6" y2="41.66" gradientUnits="userSpaceOnUse"><stop offset="0" stop-color="#662483"/><stop offset="1" stop-color="#ce357d"/></linearGradient></defs><title>DP_icon_Datový zdroj 5</title><g id="Vrstva_2" data-name="Vrstva 2"><g id="Vrstva_1-2" data-name="Vrstva 1"><rect class="cls-1" x="14.84" y="2.7" width="51.73" height="51.73" rx="14.17"/><rect class="cls-2" x="34.64" y="8.57" width="39.99" height="39.99" rx="14.17"/><rect class="cls-3" width="57.14" height="57.14" rx="14.17"/><path class="cls-4" d="M27.37,34.54a.76.76,0,0,0-1.29.54.75.75,0,0,0,.22.54h0l2.23,2.17H23.69a2.24,2.24,0,0,1-2.25-1.27,7.65,7.65,0,0,1-.51-3.17V26A3.83,3.83,0,0,0,23,24.83,3.81,3.81,0,1,0,19.41,26v7.35a9.65,9.65,0,0,0,.51,3.54,3.76,3.76,0,0,0,3.77,2.43h4.86L26.4,41.49a.77.77,0,0,0,0,1.07h0a.78.78,0,0,0,.53.21.72.72,0,0,0,.53-.23l3.13-3.11a1.23,1.23,0,0,0,.35-.85,1.21,1.21,0,0,0-.35-.84l-3.23-3.21Zm-7.15-10a2.28,2.28,0,1,1,2.28-2.27A2.28,2.28,0,0,1,20.22,24.56ZM37.73,35.27V27.92a9.7,9.7,0,0,0-.51-3.54A3.77,3.77,0,0,0,33.45,22H28.59l2.15-2.18a.77.77,0,0,0,0-1.07h0a.78.78,0,0,0-.53-.21.76.76,0,0,0-.54.22l-3.12,3.12a1.2,1.2,0,0,0,0,1.69l3.23,3.22a.76.76,0,0,0,.54.22.79.79,0,0,0,.54-.22.76.76,0,0,0,.22-.54.77.77,0,0,0-.22-.54h0l-2.23-2.18h4.84a2.26,2.26,0,0,1,2.25,1.27,7.65,7.65,0,0,1,.51,3.17v7.33a3.8,3.8,0,1,0,3.56,1.23A3.83,3.83,0,0,0,37.73,35.27Zm-.81,6A2.28,2.28,0,1,1,39.19,39,2.28,2.28,0,0,1,36.92,41.26Z"/></g></g></svg>