<svg xmlns="http://www.w3.org/2000/svg" xmlns:xlink="http://www.w3.org/1999/xlink" viewBox="0 0 57.14 57.14"><defs><style>.cls-1{fill:url(#Nepojmenovaný_přechod_7);}.cls-2{fill:url(#Nepojmenovaný_přechod_90);}</style><linearGradient id="Nepojmenovaný_přechod_7" x1="4.15" y1="4.15" x2="52.99" y2="52.99" gradientUnits="userSpaceOnUse"><stop offset="0" stop-color="#f6f6f6"/><stop offset="1" stop-color="#dadada"/></linearGradient><linearGradient id="Nepojmenovaný_přechod_90" x1="18.63" y1="20.71" x2="38.51" y2="40.59" gradientUnits="userSpaceOnUse"><stop offset="0" stop-color="#c9922a"/><stop offset="1" stop-color="#fcc50f"/></linearGradient></defs><title>DP_icon_Datový zdroj 4</title><g id="Vrstva_2" data-name="Vrstva 2"><g id="Vrstva_1-2" data-name="Vrstva 1"><rect class="cls-1" width="57.14" height="57.14" rx="14.17"/><path class="cls-2" d="M38.93,24.15H18.2a1.77,1.77,0,0,0-1.77,1.77V37.65a1.78,1.78,0,0,0,1.77,1.78H38.94a1.78,1.78,0,0,0,1.77-1.78V25.92A1.78,1.78,0,0,0,38.93,24.15Zm-1.36-1.42h-18a.71.71,0,0,1,0-1.42h18a.71.71,0,0,1,0,1.42ZM36,19.9H21.12a.66.66,0,0,1-.65-.65v-.12a.66.66,0,0,1,.65-.65H36a.65.65,0,0,1,.65.65v.12A.66.66,0,0,1,36,19.9Z"/></g></g></svg>