<svg xmlns="http://www.w3.org/2000/svg" xmlns:xlink="http://www.w3.org/1999/xlink" viewBox="0 0 75.67 57.14"><defs><style>.cls-1,.cls-2{opacity:0.5;}.cls-1{fill:url(#Nepojmenovaný_přechod_7);}.cls-2{fill:url(#Nepojmenovaný_přechod_7-2);}.cls-3{fill:url(#Nepojmenovaný_přechod_7-3);}.cls-4{fill:url(#Nové_políčko_přechodu_3);}.cls-5{fill:url(#Nové_políčko_přechodu_3-2);}.cls-6{fill:url(#Nové_políčko_přechodu_3-3);}.cls-7{fill:url(#Nové_políčko_přechodu_3-4);}</style><linearGradient id="Nepojmenovaný_přechod_7" x1="20.03" y1="7.87" x2="63.46" y2="51.3" gradientUnits="userSpaceOnUse"><stop offset="0" stop-color="#f6f6f6"/><stop offset="1" stop-color="#dadada"/></linearGradient><linearGradient id="Nepojmenovaný_přechod_7-2" x1="39.83" y1="13.74" x2="71.52" y2="45.43" xlink:href="#Nepojmenovaný_přechod_7"/><linearGradient id="Nepojmenovaný_přechod_7-3" x1="4.15" y1="4.15" x2="52.99" y2="52.99" xlink:href="#Nepojmenovaný_přechod_7"/><linearGradient id="Nové_políčko_přechodu_3" x1="22.42" y1="23.81" x2="34.72" y2="36.11" gradientUnits="userSpaceOnUse"><stop offset="0" stop-color="#008d36"/><stop offset="1" stop-color="#95c11f"/></linearGradient><linearGradient id="Nové_políčko_přechodu_3-2" x1="27.59" y1="28.98" x2="29.55" y2="30.94" xlink:href="#Nové_políčko_přechodu_3"/><linearGradient id="Nové_políčko_přechodu_3-3" x1="23.54" y1="28.98" x2="25.51" y2="30.94" xlink:href="#Nové_políčko_přechodu_3"/><linearGradient id="Nové_políčko_přechodu_3-4" x1="31.63" y1="28.98" x2="33.6" y2="30.94" xlink:href="#Nové_políčko_přechodu_3"/></defs><title>DP_icon_Datový zdroj 2</title><g id="Vrstva_2" data-name="Vrstva 2"><g id="Vrstva_1-2" data-name="Vrstva 1"><rect class="cls-1" x="15.88" y="3.72" width="51.73" height="51.73" rx="14.17"/><rect class="cls-2" x="35.68" y="9.59" width="39.99" height="39.99" rx="14.17"/><rect class="cls-3" width="57.14" height="57.14" rx="14.17"/><path class="cls-4" d="M40.59,29.68,33.37,22.8a.38.38,0,0,0-.25-.11.38.38,0,0,0-.26.11l-.88.83a.4.4,0,0,0-.12.27.38.38,0,0,0,.12.27L38,30,32,35.74a.42.42,0,0,0-.12.28.4.4,0,0,0,.12.27l.88.83a.36.36,0,0,0,.26.11.36.36,0,0,0,.25-.11l7.22-6.89a.36.36,0,0,0,.12-.27.42.42,0,0,0-.12-.28ZM19.1,30l6.06-5.79a.34.34,0,0,0,.12-.27.36.36,0,0,0-.12-.27l-.87-.83a.4.4,0,0,0-.26-.11.38.38,0,0,0-.26.11l-7.22,6.89a.36.36,0,0,0,0,.54l7.22,6.89a.4.4,0,0,0,.26.11.38.38,0,0,0,.26-.11l.87-.83a.36.36,0,0,0,.12-.27.38.38,0,0,0-.12-.28Z"/><circle class="cls-5" cx="28.57" cy="29.96" r="1.39"/><circle class="cls-6" cx="24.52" cy="29.96" r="1.39"/><circle class="cls-7" cx="32.62" cy="29.96" r="1.39"/></g></g></svg>