<svg xmlns="http://www.w3.org/2000/svg" xmlns:xlink="http://www.w3.org/1999/xlink" viewBox="0 0 76.21 57.14"><defs><style>.cls-1,.cls-2{opacity:0.5;}.cls-1{fill:url(#Nepojmenovaný_přechod_7);}.cls-2{fill:url(#Nepojmenovaný_přechod_7-2);}.cls-3{fill:url(#Nepojmenovaný_přechod_7-3);}.cls-4{fill:url(#Nepojmenovaný_přechod_68);}</style><linearGradient id="Nepojmenovaný_přechod_7" x1="20.58" y1="6.85" x2="64.01" y2="50.28" gradientUnits="userSpaceOnUse"><stop offset="0" stop-color="#f6f6f6"/><stop offset="1" stop-color="#dadada"/></linearGradient><linearGradient id="Nepojmenovaný_přechod_7-2" x1="40.37" y1="12.72" x2="72.06" y2="44.41" xlink:href="#Nepojmenovaný_přechod_7"/><linearGradient id="Nepojmenovaný_přechod_7-3" x1="4.15" y1="4.15" x2="52.99" y2="52.99" xlink:href="#Nepojmenovaný_přechod_7"/><linearGradient id="Nepojmenovaný_přechod_68" x1="19.94" y1="22.15" x2="37.21" y2="39.43" gradientUnits="userSpaceOnUse"><stop offset="0" stop-color="#a3151b"/><stop offset="1" stop-color="#e94e1b"/></linearGradient></defs><title>DP_icon_Datový zdroj 1</title><g id="Vrstva_2" data-name="Vrstva 2"><g id="Vrstva_1-2" data-name="Vrstva 1"><rect class="cls-1" x="16.43" y="2.7" width="51.73" height="51.73" rx="14.17"/><rect class="cls-2" x="36.22" y="8.57" width="39.99" height="39.99" rx="14.17"/><rect class="cls-3" width="57.14" height="57.14" rx="14.17"/><path class="cls-4" d="M35.57,24.22h-11v-2.8a3.89,3.89,0,0,1,1.17-2.8,4,4,0,0,1,6.77,2.8.82.82,0,0,0,.82.82.82.82,0,0,0,.81-.82A5.61,5.61,0,1,0,23,21.5v2.72h-1.4a2.34,2.34,0,0,0-2.33,2.34V37.77a2.34,2.34,0,0,0,2.33,2.33h14a2.34,2.34,0,0,0,2.34-2.33V26.56A2.34,2.34,0,0,0,35.57,24.22Zm-6.18,7.29v4a.85.85,0,0,1-.78.85.83.83,0,0,1-.86-.82v-4a1.87,1.87,0,1,1,1.64,0Z"/></g></g></svg>