<svg id="Vrstva_1" data-name="Vrstva 1" xmlns="http://www.w3.org/2000/svg" viewBox="0 0 70.87 70.87"><defs><style>.cls-1{fill:#d50018;}.cls-2{fill:#ffd900;}</style></defs><title>logo_praha</title><rect class="cls-1" width="34.74" height="70.86"/><rect class="cls-1" x="36.12" width="34.74" height="70.87"/><path class="cls-2" d="M38.17,75.88a3.74,3.74,0,0,1-.74-0.06v-3a5.64,5.64,0,0,1,.86-0.06,1.54,1.54,0,0,1,1.81,1.49c0,1-.7,1.61-1.93,1.61m2.54-3.53a3.56,3.56,0,0,0-2.44-.73,11.36,11.36,0,0,0-2.09.18l-0.13,0v8.5h1.39V77a4.74,4.74,0,0,0,.71,0,3.65,3.65,0,0,0,2.66-1,2.64,2.64,0,0,0,.7-1.89A2.4,2.4,0,0,0,40.7,72.35Z" transform="translate(-29.13 -64.76)"/><path class="cls-2" d="M48.63,74.15a1.5,1.5,0,0,1-1.73,1.43H46V72.83a5,5,0,0,1,.91-0.07c0.81,0,1.76.24,1.76,1.39m1,3.69a2.4,2.4,0,0,0-1.08-1.66A2.32,2.32,0,0,0,50,74a2.23,2.23,0,0,0-.71-1.7,3.6,3.6,0,0,0-2.52-.73,11.39,11.39,0,0,0-2.1.19l-0.12,0v8.49H46V76.71h0.86c0.88,0,1.3.4,1.53,1.5a9.6,9.6,0,0,0,.56,2l0,0.08h1.45L50.3,80.1A15.64,15.64,0,0,1,49.68,77.84Z" transform="translate(-29.13 -64.76)"/><path class="cls-2" d="M57.73,76.55H55.65l0.75-2.21c0.12-.34.19-0.69,0.28-1l0.29,1,0.76,2.19M56,71.67L53,80.32h1.44l0.87-2.62h2.73l0.89,2.62h1.48l-2.95-8.64H56Z" transform="translate(-29.13 -64.76)"/><path class="cls-2" d="M70.59,76.41h3.72v3.91h1.4V71.67h-1.4v3.49H70.59V71.67h-1.4v8.64h1.4V76.41" transform="translate(-29.13 -64.76)"/><path class="cls-2" d="M83.71,76.55H81.63l0.75-2.21c0.12-.35.19-0.69,0.28-1l0.29,1,0.76,2.19m-1.77-4.87L79,80.32h1.44l0.86-2.62H84l0.89,2.62h1.48l-2.95-8.64H81.94Z" transform="translate(-29.13 -64.76)"/><path class="cls-2" d="M38.17,91.44a3.65,3.65,0,0,1-.74-0.06v-3a5.67,5.67,0,0,1,.86-0.06,1.54,1.54,0,0,1,1.81,1.49c0,1-.7,1.61-1.93,1.61m2.54-3.53a3.57,3.57,0,0,0-2.44-.73,11.18,11.18,0,0,0-2.09.18l-0.13,0v8.51h1.39V92.56a4.49,4.49,0,0,0,.71.05,3.66,3.66,0,0,0,2.66-1,2.64,2.64,0,0,0,.7-1.89A2.4,2.4,0,0,0,40.7,87.91Z" transform="translate(-29.13 -64.76)"/><path class="cls-2" d="M48.63,89.72a1.5,1.5,0,0,1-1.73,1.43H46V88.39a5,5,0,0,1,.91-0.07c0.81,0,1.76.24,1.76,1.39m1,3.69a2.4,2.4,0,0,0-1.08-1.66A2.32,2.32,0,0,0,50,89.6a2.24,2.24,0,0,0-.71-1.7,3.6,3.6,0,0,0-2.52-.73,11.39,11.39,0,0,0-2.1.19l-0.12,0v8.49H46V92.27h0.86c0.88,0,1.3.41,1.53,1.5a9.59,9.59,0,0,0,.56,2l0,0.08h1.45l-0.11-.23A15.52,15.52,0,0,1,49.68,93.4Z" transform="translate(-29.13 -64.76)"/><path class="cls-2" d="M57.73,92.11H55.65L56.4,89.9c0.11-.34.19-0.68,0.28-1l0.29,1,0.76,2.19M56,87.23L53,95.88h1.44l0.87-2.62h2.73l0.89,2.62h1.48l-2.95-8.64H56Z" transform="translate(-29.13 -64.76)"/><path class="cls-2" d="M72.79,92.37h1.68v2.22a3.76,3.76,0,0,1-1.28.18,2.91,2.91,0,0,1-3.06-3.21,3,3,0,0,1,3.19-3.2,4,4,0,0,1,1.78.34l0.16,0.08,0.36-1.17-0.12-.06a5.39,5.39,0,0,0-2.16-.4,4.32,4.32,0,0,0-4.67,4.46A4.07,4.07,0,0,0,73.12,96a7.68,7.68,0,0,0,2.63-.47l0.1,0V91.19H72.79v1.18" transform="translate(-29.13 -64.76)"/><path class="cls-2" d="M79.55,87.23v5.06c0,2.4,1.12,3.72,3.15,3.72S86,94.64,86,92.26v-5h-1.4v5.1c0,1.63-.65,2.49-1.87,2.49s-1.79-.88-1.79-2.49v-5.1h-1.4" transform="translate(-29.13 -64.76)"/><path class="cls-2" d="M91.45,94.67V92h3.23v-1.2H91.45V88.45h3.43V87.23H90v8.64h5V94.67H91.45" transform="translate(-29.13 -64.76)"/><path class="cls-2" d="M38.17,107a3.76,3.76,0,0,1-.74-0.06v-3a5.62,5.62,0,0,1,.86-0.06,1.54,1.54,0,0,1,1.81,1.49c0,1-.7,1.61-1.93,1.61m2.54-3.53a3.56,3.56,0,0,0-2.44-.73,11.27,11.27,0,0,0-2.09.18l-0.13,0v8.51h1.39v-3.32a4.79,4.79,0,0,0,.71.05,3.66,3.66,0,0,0,2.66-1,2.64,2.64,0,0,0,.7-1.89A2.4,2.4,0,0,0,40.7,103.46Z" transform="translate(-29.13 -64.76)"/><path class="cls-2" d="M48.63,105.27a1.5,1.5,0,0,1-1.73,1.43H46V104a5,5,0,0,1,.91-0.07c0.81,0,1.76.24,1.76,1.39m1,3.69a2.4,2.4,0,0,0-1.08-1.66A2.32,2.32,0,0,0,50,105.16a2.23,2.23,0,0,0-.71-1.7,3.6,3.6,0,0,0-2.52-.73,11.39,11.39,0,0,0-2.1.19l-0.12,0v8.49H46v-3.61h0.86c0.88,0,1.3.41,1.53,1.5a9.61,9.61,0,0,0,.56,2l0,0.08h1.45l-0.11-.23A15.54,15.54,0,0,1,49.68,109Z" transform="translate(-29.13 -64.76)"/><path class="cls-2" d="M57.73,107.66H55.65l0.75-2.21c0.12-.34.19-0.68,0.28-1l0.29,1,0.76,2.19M56,102.79L53,111.44h1.44l0.87-2.62h2.73l0.89,2.62h1.48l-2.95-8.64H56Z" transform="translate(-29.13 -64.76)"/><path class="cls-2" d="M72.79,107.92h1.68v2.23a3.86,3.86,0,0,1-1.28.17,2.91,2.91,0,0,1-3.06-3.21,3,3,0,0,1,3.19-3.2,4,4,0,0,1,1.78.34l0.16,0.08,0.36-1.17-0.12-.06a5.41,5.41,0,0,0-2.16-.4,4.32,4.32,0,0,0-4.67,4.46,4.07,4.07,0,0,0,4.43,4.36,7.67,7.67,0,0,0,2.63-.47l0.1,0v-4.27H72.79v1.18" transform="translate(-29.13 -64.76)"/><path class="cls-2" d="M83.69,107.66H81.61l0.75-2.21c0.11-.33.2-0.67,0.29-1l0.29,1,0.76,2.19m-1.77-4.87L79,111.44h1.44l0.86-2.62H84l0.89,2.62h1.48l-2.95-8.64H81.92Z" transform="translate(-29.13 -64.76)"/><path class="cls-2" d="M38.17,122.56a3.75,3.75,0,0,1-.74-0.06v-3a5.49,5.49,0,0,1,.86-0.06,1.54,1.54,0,0,1,1.81,1.49c0,1-.7,1.61-1.93,1.61M40.7,119a3.56,3.56,0,0,0-2.44-.73,11.4,11.4,0,0,0-2.09.17l-0.13,0V127h1.39v-3.32a4.79,4.79,0,0,0,.71.05,3.66,3.66,0,0,0,2.66-1,2.64,2.64,0,0,0,.7-1.89A2.4,2.4,0,0,0,40.7,119Z" transform="translate(-29.13 -64.76)"/><path class="cls-2" d="M48.63,120.83a1.5,1.5,0,0,1-1.73,1.43H46v-2.75a5,5,0,0,1,.91-0.07c0.81,0,1.76.24,1.76,1.39m1,3.69a2.4,2.4,0,0,0-1.08-1.66A2.32,2.32,0,0,0,50,120.72a2.23,2.23,0,0,0-.71-1.7,3.6,3.6,0,0,0-2.52-.73,11.22,11.22,0,0,0-2.1.19l-0.12,0V127H46v-3.61h0.86c0.88,0,1.3.41,1.53,1.5a9.68,9.68,0,0,0,.56,2L49,127h1.45l-0.11-.22A15.64,15.64,0,0,1,49.68,124.52Z" transform="translate(-29.13 -64.76)"/><path class="cls-2" d="M57.73,123.22H55.65L56.4,121c0.12-.34.19-0.69,0.28-1L57,121l0.76,2.19M56,118.35L53,127h1.44l0.87-2.62h2.73L58.95,127h1.48l-2.95-8.64H56Z" transform="translate(-29.13 -64.76)"/><path class="cls-2" d="M72.79,123.48h1.68v2.22a3.82,3.82,0,0,1-1.28.17,2.91,2.91,0,0,1-3.06-3.21,3,3,0,0,1,3.19-3.19,4,4,0,0,1,1.78.34l0.16,0.08,0.36-1.17-0.12-.06a5.41,5.41,0,0,0-2.16-.4,4.32,4.32,0,0,0-4.67,4.46,4.06,4.06,0,0,0,4.43,4.36,7.67,7.67,0,0,0,2.63-.47l0.1,0v-4.27H72.79v1.18" transform="translate(-29.13 -64.76)"/></svg>