<svg xmlns="http://www.w3.org/2000/svg" viewBox="0 0 158.58 47.13"><defs><style>.cls-1{fill:#1aa0bc;}.cls-2{fill:#fff;}.cls-3{fill:#6d6d6c;}</style></defs><title>OICT_logoDatový zdroj 1</title><g id="Vrstva_2" data-name="Vrstva 2"><g id="Vrstva_1-2" data-name="Vrstva 1"><polygon class="cls-1" points="24.46 24.99 24.46 47.13 46.6 47.13 46.6 24.99 24.46 24.99 24.46 24.99"/><polygon class="cls-1" points="0 24.99 0 47.13 22.14 47.13 22.14 24.99 0 24.99 0 24.99"/><polygon class="cls-1" points="24.46 0.53 24.46 22.66 46.6 22.66 46.6 0.53 24.46 0.53 24.46 0.53"/><polygon class="cls-1" points="0 0.53 0 22.66 22.14 22.66 22.14 0.53 0 0.53 0 0.53"/><path class="cls-2" d="M17.65,10.44a6.62,6.62,0,0,0-1.84-4.8A6.34,6.34,0,0,0,11,3.75a6.22,6.22,0,0,0-4.73,1.9,6.68,6.68,0,0,0-1.82,4.8v2.84a6.68,6.68,0,0,0,1.82,4.8A6.28,6.28,0,0,0,11,20a6.35,6.35,0,0,0,4.77-1.9,6.58,6.58,0,0,0,1.84-4.8V10.44Zm-3.16,2.85a4.85,4.85,0,0,1-.92,3.06A3,3,0,0,1,11,17.52a3,3,0,0,1-2.51-1.17,4.9,4.9,0,0,1-.9-3.06V10.43a4.94,4.94,0,0,1,.89-3A3,3,0,0,1,11,6.22a3,3,0,0,1,2.53,1.17,4.76,4.76,0,0,1,.92,3v2.87ZM37,4H33.83V19.75H37V4Z"/><path class="cls-2" d="M14.29,38.79a3.48,3.48,0,0,1-.7,2.37,2.79,2.79,0,0,1-2.2.8A2.81,2.81,0,0,1,9,40.8a4.71,4.71,0,0,1-.88-3V34.69A4.94,4.94,0,0,1,9,31.75a2.67,2.67,0,0,1,2.26-1.15,3,3,0,0,1,2.33.83,3.43,3.43,0,0,1,.74,2.38h3.08l0-.06a5.18,5.18,0,0,0-1.6-4.1,6.49,6.49,0,0,0-4.57-1.49A5.93,5.93,0,0,0,6.72,30,6.6,6.6,0,0,0,5,34.72v3.13a6.5,6.5,0,0,0,1.78,4.71,6.15,6.15,0,0,0,4.63,1.84,6.25,6.25,0,0,0,4.44-1.5,5.15,5.15,0,0,0,1.55-4l0-.07Zm27.16-10.4H29.38v2.44h4.44V44.17H37V30.83h4.46V28.39Z"/><path class="cls-3" d="M62.52,10.58a7.1,7.1,0,0,0-1.68-4.93,5.79,5.79,0,0,0-4.5-1.9,5.54,5.54,0,0,0-4.42,1.9,7.16,7.16,0,0,0-1.64,4.93v2.56a7.22,7.22,0,0,0,1.64,4.94A5.6,5.6,0,0,0,56.35,20a5.73,5.73,0,0,0,4.49-1.88,7.14,7.14,0,0,0,1.67-4.94V10.58Zm-1.29,2.58A6.4,6.4,0,0,1,60,17.32a4.36,4.36,0,0,1-3.59,1.55,4.29,4.29,0,0,1-3.52-1.56,6.35,6.35,0,0,1-1.26-4.15v-2.6a6.41,6.41,0,0,1,1.25-4.12,4.29,4.29,0,0,1,3.53-1.57A4.38,4.38,0,0,1,60,6.44a6.19,6.19,0,0,1,1.28,4.12v2.6Zm10.13,0a5.42,5.42,0,0,0,3.84-1.25,4.35,4.35,0,0,0,1.36-3.36A4.32,4.32,0,0,0,75.2,5.24,5.47,5.47,0,0,0,71.36,4H65.93V19.75h1.29V13.19ZM67.22,5.08h4.14a3.92,3.92,0,0,1,2.94,1,3.46,3.46,0,0,1,1,2.52,3.38,3.38,0,0,1-1,2.5,4,4,0,0,1-2.93,1H67.22v-7ZM88.54,11H81V5.08H89.6V4H79.66V19.75h10V18.64H81V12.11h7.59Zm9.58,1.62a3.76,3.76,0,0,1,2.61.84,2.9,2.9,0,0,1,.94,2.29v1.44a6.56,6.56,0,0,0,.17,1.47,2.08,2.08,0,0,0,.56,1.09h1.32v-.26a2.09,2.09,0,0,1-.57-1,4.52,4.52,0,0,1-.18-1.32V15.73a4.16,4.16,0,0,0-.64-2.38A3.48,3.48,0,0,0,100.21,12a4.06,4.06,0,0,0,2.05-1.45A3.69,3.69,0,0,0,103,8.34a4,4,0,0,0-1.36-3.25A5.89,5.89,0,0,0,97.76,4H92.42V19.75h1.29V12.62ZM93.71,5.09h4.05a4.45,4.45,0,0,1,3,.84,3,3,0,0,1,1,2.4,2.92,2.92,0,0,1-1,2.32,4.65,4.65,0,0,1-3.12.86H93.71Zm23.44,14.66h1.35L112.55,4h-1.23l-6,15.78h1.34l1.62-4.4h7.23l1.63,4.4ZM111.9,5.66H112l3.15,8.54h-6.37Zm-.6-2.78h1.18l2.7-2.81,0-.07h-1.59l-2.24,2.88Z"/><path class="cls-3" d="M130.11,4H117.94V5.08h5.43V19.75h1.3V5.08h5.44V4Zm13.77,6.61a7.1,7.1,0,0,0-1.68-4.93,5.79,5.79,0,0,0-4.5-1.9,5.53,5.53,0,0,0-4.42,1.9,7.22,7.22,0,0,0-1.65,4.93v2.56a7.23,7.23,0,0,0,1.65,4.94A5.58,5.58,0,0,0,137.7,20a5.71,5.71,0,0,0,4.49-1.88,7.15,7.15,0,0,0,1.68-4.94V10.58Zm-1.29,2.58a6.34,6.34,0,0,1-1.28,4.16,4.36,4.36,0,0,1-3.59,1.55,4.3,4.3,0,0,1-3.53-1.56,6.4,6.4,0,0,1-1.26-4.15v-2.6a6.35,6.35,0,0,1,1.25-4.12,4.27,4.27,0,0,1,3.52-1.57,4.4,4.4,0,0,1,3.6,1.57,6.19,6.19,0,0,1,1.28,4.12v2.6Z"/><path class="cls-3" d="M153,12.62a3.8,3.8,0,0,1,2.62.84,2.93,2.93,0,0,1,.94,2.29v1.44a6.56,6.56,0,0,0,.16,1.47,2.16,2.16,0,0,0,.56,1.09h1.33v-.26a2,2,0,0,1-.58-1,4.51,4.51,0,0,1-.17-1.32V15.73a4.17,4.17,0,0,0-.65-2.38A3.46,3.46,0,0,0,155.07,12a4.08,4.08,0,0,0,2-1.45,3.69,3.69,0,0,0,.73-2.24,4,4,0,0,0-1.35-3.25A6,6,0,0,0,152.6,4h-5.35V19.75h1.29V12.62Zm-4.42-7.53h4a4.5,4.5,0,0,1,3,.84,3,3,0,0,1,1,2.4,2.9,2.9,0,0,1-1,2.32,4.71,4.71,0,0,1-3.12.85h-3.89V5.09Z"/><path class="cls-3" d="M52.58,28.39h-1.3V44.17h1.3ZM66.66,39.24a4.81,4.81,0,0,1-1.34,3,4.4,4.4,0,0,1-3.08,1,4,4,0,0,1-3.33-1.6,6.51,6.51,0,0,1-1.25-4.13V35a6.51,6.51,0,0,1,1.25-4.11,4,4,0,0,1,3.33-1.61,4.27,4.27,0,0,1,3.08,1,4.89,4.89,0,0,1,1.35,3h1.2l0-.07a5.4,5.4,0,0,0-1.68-3.75,5.67,5.67,0,0,0-4-1.34A5.32,5.32,0,0,0,58,30.06,7.42,7.42,0,0,0,56.36,35v2.58A7.4,7.4,0,0,0,58,42.5a5.28,5.28,0,0,0,4.25,1.9,5.65,5.65,0,0,0,4-1.36,5.48,5.48,0,0,0,1.69-3.73l0-.07Z"/><polygon class="cls-3" points="81.49 28.39 69.33 28.39 69.33 29.5 74.76 29.5 74.76 44.17 76.07 44.17 76.07 29.5 81.49 29.5 81.49 28.39 81.49 28.39"/></g></g></svg>